<?xml version="1.0" encoding="utf-8"?>
<svg version="1.1" xmlns:xlink="http://www.w3.org/1999/xlink" width="12px" height="12px" viewBox="1086 845  12 12" xmlns="http://www.w3.org/2000/svg">
  <path d="M 1092 845  C 1095.36 845  1098 847.64  1098 851  C 1098 854.36  1095.36 857  1092 857  C 1088.64 857  1086 854.36  1086 851  C 1086 847.64  1088.64 845  1092 845  Z " fill-rule="nonzero" fill="#f0f0f0" stroke="none" />
  <path d="M 1092 845.5  C 1095.08 845.5  1097.5 847.92  1097.5 851  C 1097.5 854.08  1095.08 856.5  1092 856.5  C 1088.92 856.5  1086.5 854.08  1086.5 851  C 1086.5 847.92  1088.92 845.5  1092 845.5  Z " stroke-width="1" stroke="#797979" fill="none" />
  <path d="M 1092 854  C 1090.32 854  1089 852.68  1089 851  C 1089 849.32  1090.32 848  1092 848  C 1093.68 848  1095 849.32  1095 851  C 1095 852.68  1093.68 854  1092 854  " fill-rule="nonzero" fill="#797979" stroke="none" />
</svg>