<?xml version="1.0" encoding="utf-8"?>
<svg version="1.1" xmlns:xlink="http://www.w3.org/1999/xlink" width="12px" height="12px" viewBox="951 845  12 12" xmlns="http://www.w3.org/2000/svg">
  <path d="M 957 845  C 960.36 845  963 847.64  963 851  C 963 854.36  960.36 857  957 857  C 953.64 857  951 854.36  951 851  C 951 847.64  953.64 845  957 845  Z " fill-rule="nonzero" fill="#f0f0f0" stroke="none" />
  <path d="M 957 845.5  C 960.08 845.5  962.5 847.92  962.5 851  C 962.5 854.08  960.08 856.5  957 856.5  C 953.92 856.5  951.5 854.08  951.5 851  C 951.5 847.92  953.92 845.5  957 845.5  Z " stroke-width="1" stroke="#797979" fill="none" />
  <path d="M 957 854  C 955.32 854  954 852.68  954 851  C 954 849.32  955.32 848  957 848  C 958.68 848  960 849.32  960 851  C 960 852.68  958.68 854  957 854  " fill-rule="nonzero" fill="#797979" stroke="none" />
</svg>