<?xml version="1.0" encoding="utf-8"?>
<svg version="1.1" xmlns:xlink="http://www.w3.org/1999/xlink" width="12px" height="12px" viewBox="303 801  12 12" xmlns="http://www.w3.org/2000/svg">
  <path d="M 309 801  C 312.36 801  315 803.64  315 807  C 315 810.36  312.36 813  309 813  C 305.64 813  303 810.36  303 807  C 303 803.64  305.64 801  309 801  Z " fill-rule="nonzero" fill="#f0f0f0" stroke="none" />
  <path d="M 309 801.5  C 312.08 801.5  314.5 803.92  314.5 807  C 314.5 810.08  312.08 812.5  309 812.5  C 305.92 812.5  303.5 810.08  303.5 807  C 303.5 803.92  305.92 801.5  309 801.5  Z " stroke-width="1" stroke="#797979" fill="none" />
  <path d="M 309 810  C 307.32 810  306 808.68  306 807  C 306 805.32  307.32 804  309 804  C 310.68 804  312 805.32  312 807  C 312 808.68  310.68 810  309 810  " fill-rule="nonzero" fill="#797979" stroke="none" />
</svg>