<?xml version="1.0" encoding="utf-8"?>
<svg version="1.1" xmlns:xlink="http://www.w3.org/1999/xlink" width="375px" height="1666px" xmlns="http://www.w3.org/2000/svg">
  <g transform="matrix(1 0 0 1 -132 -140 )">
    <path d="M 133 146  A 5 5 0 0 1 138 141 L 501 141  A 5 5 0 0 1 506 146 L 506 1800  A 5 5 0 0 1 501 1805 L 138 1805  A 5 5 0 0 1 133 1800 L 133 146  Z " fill-rule="nonzero" fill="#f8f9fd" stroke="none" />
    <path d="M 132.5 146  A 5.5 5.5 0 0 1 138 140.5 L 501 140.5  A 5.5 5.5 0 0 1 506.5 146 L 506.5 1800  A 5.5 5.5 0 0 1 501 1805.5 L 138 1805.5  A 5.5 5.5 0 0 1 132.5 1800 L 132.5 146  Z " stroke-width="1" stroke="#d7d7d7" fill="none" stroke-opacity="0.925490196078431" />
  </g>
</svg>