<?xml version="1.0" encoding="utf-8"?>
<svg version="1.1" xmlns:xlink="http://www.w3.org/1999/xlink" width="12px" height="12px" viewBox="404 399  12 12" xmlns="http://www.w3.org/2000/svg">
  <path d="M 410 399  C 413.36 399  416 401.64  416 405  C 416 408.36  413.36 411  410 411  C 406.64 411  404 408.36  404 405  C 404 401.64  406.64 399  410 399  Z " fill-rule="nonzero" fill="#ffffff" stroke="none" />
  <path d="M 410 399.5  C 413.08 399.5  415.5 401.92  415.5 405  C 415.5 408.08  413.08 410.5  410 410.5  C 406.92 410.5  404.5 408.08  404.5 405  C 404.5 401.92  406.92 399.5  410 399.5  Z " stroke-width="1" stroke="#797979" fill="none" />
  <path d="M 410 408  C 408.32 408  407 406.68  407 405  C 407 403.32  408.32 402  410 402  C 411.68 402  413 403.32  413 405  C 413 406.68  411.68 408  410 408  " fill-rule="nonzero" fill="#797979" stroke="none" />
</svg>