<?xml version="1.0" encoding="utf-8"?>
<svg version="1.1" xmlns:xlink="http://www.w3.org/1999/xlink" width="12px" height="12px" viewBox="319 399  12 12" xmlns="http://www.w3.org/2000/svg">
  <path d="M 325 399  C 328.36 399  331 401.64  331 405  C 331 408.36  328.36 411  325 411  C 321.64 411  319 408.36  319 405  C 319 401.64  321.64 399  325 399  Z " fill-rule="nonzero" fill="#f0f0f0" stroke="none" />
  <path d="M 325 399.5  C 328.08 399.5  330.5 401.92  330.5 405  C 330.5 408.08  328.08 410.5  325 410.5  C 321.92 410.5  319.5 408.08  319.5 405  C 319.5 401.92  321.92 399.5  325 399.5  Z " stroke-width="1" stroke="#797979" fill="none" />
  <path d="M 325 408  C 323.32 408  322 406.68  322 405  C 322 403.32  323.32 402  325 402  C 326.68 402  328 403.32  328 405  C 328 406.68  326.68 408  325 408  " fill-rule="nonzero" fill="#797979" stroke="none" />
</svg>