<?xml version="1.0" encoding="utf-8"?>
<svg version="1.1" xmlns:xlink="http://www.w3.org/1999/xlink" width="12px" height="12px" viewBox="404 499  12 12" xmlns="http://www.w3.org/2000/svg">
  <path d="M 410 499  C 413.36 499  416 501.64  416 505  C 416 508.36  413.36 511  410 511  C 406.64 511  404 508.36  404 505  C 404 501.64  406.64 499  410 499  Z " fill-rule="nonzero" fill="#ffffff" stroke="none" />
  <path d="M 410 499.5  C 413.08 499.5  415.5 501.92  415.5 505  C 415.5 508.08  413.08 510.5  410 510.5  C 406.92 510.5  404.5 508.08  404.5 505  C 404.5 501.92  406.92 499.5  410 499.5  Z " stroke-width="1" stroke="#797979" fill="none" />
  <path d="M 410 508  C 408.32 508  407 506.68  407 505  C 407 503.32  408.32 502  410 502  C 411.68 502  413 503.32  413 505  C 413 506.68  411.68 508  410 508  " fill-rule="nonzero" fill="#797979" stroke="none" />
</svg>