<?xml version="1.0" encoding="utf-8"?>
<svg version="1.1" xmlns:xlink="http://www.w3.org/1999/xlink" width="12px" height="12px" viewBox="319 499  12 12" xmlns="http://www.w3.org/2000/svg">
  <path d="M 325 499  C 328.36 499  331 501.64  331 505  C 331 508.36  328.36 511  325 511  C 321.64 511  319 508.36  319 505  C 319 501.64  321.64 499  325 499  Z " fill-rule="nonzero" fill="#ffffff" stroke="none" />
  <path d="M 325 499.5  C 328.08 499.5  330.5 501.92  330.5 505  C 330.5 508.08  328.08 510.5  325 510.5  C 321.92 510.5  319.5 508.08  319.5 505  C 319.5 501.92  321.92 499.5  325 499.5  Z " stroke-width="1" stroke="#797979" fill="none" />
  <path d="M 325 508  C 323.32 508  322 506.68  322 505  C 322 503.32  323.32 502  325 502  C 326.68 502  328 503.32  328 505  C 328 506.68  326.68 508  325 508  " fill-rule="nonzero" fill="#797979" stroke="none" />
</svg>