<?xml version="1.0" encoding="utf-8"?>
<svg version="1.1" xmlns:xlink="http://www.w3.org/1999/xlink" width="12px" height="12px" viewBox="404 709  12 12" xmlns="http://www.w3.org/2000/svg">
  <path d="M 410 709  C 413.36 709  416 711.64  416 715  C 416 718.36  413.36 721  410 721  C 406.64 721  404 718.36  404 715  C 404 711.64  406.64 709  410 709  Z " fill-rule="nonzero" fill="#f0f0f0" stroke="none" />
  <path d="M 410 709.5  C 413.08 709.5  415.5 711.92  415.5 715  C 415.5 718.08  413.08 720.5  410 720.5  C 406.92 720.5  404.5 718.08  404.5 715  C 404.5 711.92  406.92 709.5  410 709.5  Z " stroke-width="1" stroke="#797979" fill="none" />
  <path d="M 410 718  C 408.32 718  407 716.68  407 715  C 407 713.32  408.32 712  410 712  C 411.68 712  413 713.32  413 715  C 413 716.68  411.68 718  410 718  " fill-rule="nonzero" fill="#797979" stroke="none" />
</svg>