<?xml version="1.0" encoding="utf-8"?>
<svg version="1.1" xmlns:xlink="http://www.w3.org/1999/xlink" width="12px" height="12px" viewBox="319 709  12 12" xmlns="http://www.w3.org/2000/svg">
  <path d="M 325 709  C 328.36 709  331 711.64  331 715  C 331 718.36  328.36 721  325 721  C 321.64 721  319 718.36  319 715  C 319 711.64  321.64 709  325 709  Z " fill-rule="nonzero" fill="#f0f0f0" stroke="none" />
  <path d="M 325 709.5  C 328.08 709.5  330.5 711.92  330.5 715  C 330.5 718.08  328.08 720.5  325 720.5  C 321.92 720.5  319.5 718.08  319.5 715  C 319.5 711.92  321.92 709.5  325 709.5  Z " stroke-width="1" stroke="#797979" fill="none" />
  <path d="M 325 718  C 323.32 718  322 716.68  322 715  C 322 713.32  323.32 712  325 712  C 326.68 712  328 713.32  328 715  C 328 716.68  326.68 718  325 718  " fill-rule="nonzero" fill="#797979" stroke="none" />
</svg>