<?xml version="1.0" encoding="utf-8"?>
<svg version="1.1" xmlns:xlink="http://www.w3.org/1999/xlink" width="12px" height="12px" viewBox="404 602  12 12" xmlns="http://www.w3.org/2000/svg">
  <path d="M 410 602  C 413.36 602  416 604.64  416 608  C 416 611.36  413.36 614  410 614  C 406.64 614  404 611.36  404 608  C 404 604.64  406.64 602  410 602  Z " fill-rule="nonzero" fill="#ffffff" stroke="none" />
  <path d="M 410 602.5  C 413.08 602.5  415.5 604.92  415.5 608  C 415.5 611.08  413.08 613.5  410 613.5  C 406.92 613.5  404.5 611.08  404.5 608  C 404.5 604.92  406.92 602.5  410 602.5  Z " stroke-width="1" stroke="#797979" fill="none" />
  <path d="M 410 611  C 408.32 611  407 609.68  407 608  C 407 606.32  408.32 605  410 605  C 411.68 605  413 606.32  413 608  C 413 609.68  411.68 611  410 611  " fill-rule="nonzero" fill="#797979" stroke="none" />
</svg>