<?xml version="1.0" encoding="utf-8"?>
<svg version="1.1" xmlns:xlink="http://www.w3.org/1999/xlink" width="12px" height="12px" viewBox="319 602  12 12" xmlns="http://www.w3.org/2000/svg">
  <path d="M 325 602  C 328.36 602  331 604.64  331 608  C 331 611.36  328.36 614  325 614  C 321.64 614  319 611.36  319 608  C 319 604.64  321.64 602  325 602  Z " fill-rule="nonzero" fill="#ffffff" stroke="none" />
  <path d="M 325 602.5  C 328.08 602.5  330.5 604.92  330.5 608  C 330.5 611.08  328.08 613.5  325 613.5  C 321.92 613.5  319.5 611.08  319.5 608  C 319.5 604.92  321.92 602.5  325 602.5  Z " stroke-width="1" stroke="#797979" fill="none" />
  <path d="M 325 611  C 323.32 611  322 609.68  322 608  C 322 606.32  323.32 605  325 605  C 326.68 605  328 606.32  328 608  C 328 609.68  326.68 611  325 611  " fill-rule="nonzero" fill="#797979" stroke="none" />
</svg>