<?xml version="1.0" encoding="utf-8"?>
<svg version="1.1" xmlns:xlink="http://www.w3.org/1999/xlink" width="51px" height="32px" xmlns="http://www.w3.org/2000/svg">
  <defs>
    <mask fill="white" id="clip140">
      <path d="M 0 26.4347826086957  L 0 5.56521739130435  C 0 2.4486956521739  0.997333333333328 0  2.26666666666667 0  L 48.7333333333333 0  C 50.0026666666667 0  51 2.4486956521739  51 5.56521739130435  L 51 26.4347826086957  C 51 29.5513043478261  50.0026666666667 32  48.7333333333333 32  L 34 32  L 2.26666666666667 32  C 0.997333333333328 32  0 29.5513043478261  0 26.4347826086957  Z " fill-rule="evenodd" />
    </mask>
  </defs>
  <g transform="matrix(1 0 0 1 -1211 -388 )">
    <path d="M 0 26.4347826086957  L 0 5.56521739130435  C 0 2.4486956521739  0.997333333333328 0  2.26666666666667 0  L 48.7333333333333 0  C 50.0026666666667 0  51 2.4486956521739  51 5.56521739130435  L 51 26.4347826086957  C 51 29.5513043478261  50.0026666666667 32  48.7333333333333 32  L 34 32  L 2.26666666666667 32  C 0.997333333333328 32  0 29.5513043478261  0 26.4347826086957  Z " fill-rule="nonzero" fill="#ffffff" stroke="none" transform="matrix(1 0 0 1 1211 388 )" />
    <path d="M 0 26.4347826086957  L 0 5.56521739130435  C 0 2.4486956521739  0.997333333333328 0  2.26666666666667 0  L 48.7333333333333 0  C 50.0026666666667 0  51 2.4486956521739  51 5.56521739130435  L 51 26.4347826086957  C 51 29.5513043478261  50.0026666666667 32  48.7333333333333 32  L 34 32  L 2.26666666666667 32  C 0.997333333333328 32  0 29.5513043478261  0 26.4347826086957  Z " stroke-width="2" stroke="#009dff" fill="none" transform="matrix(1 0 0 1 1211 388 )" mask="url(#clip140)" />
  </g>
</svg>