<?xml version="1.0" encoding="utf-8"?>
<svg version="1.1" xmlns:xlink="http://www.w3.org/1999/xlink" width="14px" height="14px" viewBox="340 209  14 14" xmlns="http://www.w3.org/2000/svg">
  <path d="M 347 209  C 350.92 209  354 212.08  354 216  C 354 219.92  350.92 223  347 223  C 343.08 223  340 219.92  340 216  C 340 212.08  343.08 209  347 209  Z " fill-rule="nonzero" fill="#ffffff" stroke="none" />
  <path d="M 347 209.5  C 350.64 209.5  353.5 212.36  353.5 216  C 353.5 219.64  350.64 222.5  347 222.5  C 343.36 222.5  340.5 219.64  340.5 216  C 340.5 212.36  343.36 209.5  347 209.5  Z " stroke-width="1" stroke="#555555" fill="none" />
  <path d="M 347 219.5  C 345.04 219.5  343.5 217.96  343.5 216  C 343.5 214.04  345.04 212.5  347 212.5  C 348.96 212.5  350.5 214.04  350.5 216  C 350.5 217.96  348.96 219.5  347 219.5  " fill-rule="nonzero" fill="#555555" stroke="none" />
</svg>