<?xml version="1.0" encoding="utf-8"?>
<svg version="1.1" xmlns:xlink="http://www.w3.org/1999/xlink" width="14px" height="14px" viewBox="282 209  14 14" xmlns="http://www.w3.org/2000/svg">
  <path d="M 289 209  C 292.92 209  296 212.08  296 216  C 296 219.92  292.92 223  289 223  C 285.08 223  282 219.92  282 216  C 282 212.08  285.08 209  289 209  Z " fill-rule="nonzero" fill="#f0f0f0" stroke="none" />
  <path d="M 289 209.5  C 292.64 209.5  295.5 212.36  295.5 216  C 295.5 219.64  292.64 222.5  289 222.5  C 285.36 222.5  282.5 219.64  282.5 216  C 282.5 212.36  285.36 209.5  289 209.5  Z " stroke-width="1" stroke="#555555" fill="none" />
  <path d="M 289 219.5  C 287.04 219.5  285.5 217.96  285.5 216  C 285.5 214.04  287.04 212.5  289 212.5  C 290.96 212.5  292.5 214.04  292.5 216  C 292.5 217.96  290.96 219.5  289 219.5  " fill-rule="nonzero" fill="#555555" stroke="none" />
</svg>