<?xml version="1.0" encoding="utf-8"?>
<svg version="1.1" xmlns:xlink="http://www.w3.org/1999/xlink" width="77px" height="23px" xmlns="http://www.w3.org/2000/svg">
  <defs>
    <mask fill="white" id="clip192">
      <path d="M 0 19  L 0 4  C 0 1.75999999999999  1.75999999999999 0  4 0  L 44 0  L 73 0  C 75.24 0  77 1.75999999999999  77 4  L 77 19  C 77 21.24  75.24 23  73 23  L 4 23  C 1.75999999999999 23  0 21.24  0 19  Z " fill-rule="evenodd" />
    </mask>
  </defs>
  <g transform="matrix(1 0 0 1 -394 -616 )">
    <path d="M 0 19  L 0 4  C 0 1.75999999999999  1.75999999999999 0  4 0  L 44 0  L 73 0  C 75.24 0  77 1.75999999999999  77 4  L 77 19  C 77 21.24  75.24 23  73 23  L 4 23  C 1.75999999999999 23  0 21.24  0 19  Z " fill-rule="nonzero" fill="#ffffff" stroke="none" transform="matrix(1 0 0 1 394 616 )" />
    <path d="M 0 19  L 0 4  C 0 1.75999999999999  1.75999999999999 0  4 0  L 44 0  L 73 0  C 75.24 0  77 1.75999999999999  77 4  L 77 19  C 77 21.24  75.24 23  73 23  L 4 23  C 1.75999999999999 23  0 21.24  0 19  Z " stroke-width="2" stroke="#7f7f7f" fill="none" transform="matrix(1 0 0 1 394 616 )" mask="url(#clip192)" />
  </g>
</svg>