<?xml version="1.0" encoding="utf-8"?>
<svg version="1.1" xmlns:xlink="http://www.w3.org/1999/xlink" width="88px" height="23px" xmlns="http://www.w3.org/2000/svg">
  <defs>
    <mask fill="white" id="clip190">
      <path d="M 0 19  L 0 4  C 0 1.75999999999999  1.72088888888888 0  3.91111111111111 0  L 84.0888888888889 0  C 86.2791111111111 0  88 1.75999999999999  88 4  L 88 19  C 88 21.24  86.2791111111111 23  84.0888888888889 23  L 58.6666666666667 23  L 3.91111111111111 23  C 1.72088888888888 23  0 21.24  0 19  Z " fill-rule="evenodd" />
    </mask>
  </defs>
  <g transform="matrix(1 0 0 1 -291 -616 )">
    <path d="M 0 19  L 0 4  C 0 1.75999999999999  1.72088888888888 0  3.91111111111111 0  L 84.0888888888889 0  C 86.2791111111111 0  88 1.75999999999999  88 4  L 88 19  C 88 21.24  86.2791111111111 23  84.0888888888889 23  L 58.6666666666667 23  L 3.91111111111111 23  C 1.72088888888888 23  0 21.24  0 19  Z " fill-rule="nonzero" fill="#ffffff" stroke="none" transform="matrix(1 0 0 1 291 616 )" />
    <path d="M 0 19  L 0 4  C 0 1.75999999999999  1.72088888888888 0  3.91111111111111 0  L 84.0888888888889 0  C 86.2791111111111 0  88 1.75999999999999  88 4  L 88 19  C 88 21.24  86.2791111111111 23  84.0888888888889 23  L 58.6666666666667 23  L 3.91111111111111 23  C 1.72088888888888 23  0 21.24  0 19  Z " stroke-width="2" stroke="#7f7f7f" fill="none" transform="matrix(1 0 0 1 291 616 )" mask="url(#clip190)" />
  </g>
</svg>