<?xml version="1.0" encoding="utf-8"?>
<svg version="1.1" xmlns:xlink="http://www.w3.org/1999/xlink" width="79px" height="30px" xmlns="http://www.w3.org/2000/svg">
  <defs>
    <mask fill="white" id="clip161">
      <path d="M 0 26  L 0 4  C 0 1.75999999999999  1.82947368421051 0  4.15789473684207 0  L 33.2631578947369 0  L 51.9736842105264 0  L 58.6633663366337 0  L 74.8421052631579 0  C 77.1705263157895 0  79 1.75999999999999  79 4  L 79 26  C 79 28.24  77.1705263157895 30  74.8421052631579 30  L 4.15789473684207 30  C 1.82947368421051 30  0 28.24  0 26  Z " fill-rule="evenodd" />
    </mask>
  </defs>
  <g transform="matrix(1 0 0 1 -1157 -207 )">
    <path d="M 0 26  L 0 4  C 0 1.75999999999999  1.82947368421051 0  4.15789473684207 0  L 33.2631578947369 0  L 51.9736842105264 0  L 58.6633663366337 0  L 74.8421052631579 0  C 77.1705263157895 0  79 1.75999999999999  79 4  L 79 26  C 79 28.24  77.1705263157895 30  74.8421052631579 30  L 4.15789473684207 30  C 1.82947368421051 30  0 28.24  0 26  Z " fill-rule="nonzero" fill="#aaaaaa" stroke="none" fill-opacity="0" transform="matrix(1 0 0 1 1157 207 )" />
    <path d="M 0 26  L 0 4  C 0 1.75999999999999  1.82947368421051 0  4.15789473684207 0  L 33.2631578947369 0  L 51.9736842105264 0  L 58.6633663366337 0  L 74.8421052631579 0  C 77.1705263157895 0  79 1.75999999999999  79 4  L 79 26  C 79 28.24  77.1705263157895 30  74.8421052631579 30  L 4.15789473684207 30  C 1.82947368421051 30  0 28.24  0 26  Z " stroke-width="2" stroke="#aaaaaa" fill="none" transform="matrix(1 0 0 1 1157 207 )" mask="url(#clip161)" />
  </g>
</svg>