<?xml version="1.0" encoding="utf-8"?>
<svg version="1.1" xmlns:xlink="http://www.w3.org/1999/xlink" width="375px" height="955px" xmlns="http://www.w3.org/2000/svg">
  <g transform="matrix(1 0 0 1 -65 -94 )">
    <path d="M 66 100  A 5 5 0 0 1 71 95 L 434 95  A 5 5 0 0 1 439 100 L 439 1043  A 5 5 0 0 1 434 1048 L 71 1048  A 5 5 0 0 1 66 1043 L 66 100  Z " fill-rule="nonzero" fill="#f8f8fd" stroke="none" />
    <path d="M 65.5 100  A 5.5 5.5 0 0 1 71 94.5 L 434 94.5  A 5.5 5.5 0 0 1 439.5 100 L 439.5 1043  A 5.5 5.5 0 0 1 434 1048.5 L 71 1048.5  A 5.5 5.5 0 0 1 65.5 1043 L 65.5 100  Z " stroke-width="1" stroke="#d7d7d7" fill="none" stroke-opacity="0.925490196078431" />
  </g>
</svg>