<?xml version="1.0" encoding="utf-8"?>
<svg version="1.1" xmlns:xlink="http://www.w3.org/1999/xlink" width="70px" height="70px" xmlns="http://www.w3.org/2000/svg">
  <g transform="matrix(1 0 0 1 -300 -350 )">
    <path d="M 301 354  A 3 3 0 0 1 304 351 L 366 351  A 3 3 0 0 1 369 354 L 369 416  A 3 3 0 0 1 366 419 L 304 419  A 3 3 0 0 1 301 416 L 301 354  Z " fill-rule="nonzero" fill="#f2f2f2" stroke="none" />
    <path d="M 300.5 354  A 3.5 3.5 0 0 1 304 350.5 L 366 350.5  A 3.5 3.5 0 0 1 369.5 354 L 369.5 416  A 3.5 3.5 0 0 1 366 419.5 L 304 419.5  A 3.5 3.5 0 0 1 300.5 416 L 300.5 354  Z " stroke-width="1" stroke="#000000" fill="none" stroke-opacity="0.0470588235294118" />
  </g>
</svg>