<?xml version="1.0" encoding="utf-8"?>
<svg version="1.1" xmlns:xlink="http://www.w3.org/1999/xlink" width="375px" height="1096px" xmlns="http://www.w3.org/2000/svg">
  <g transform="matrix(1 0 0 1 -113 -88 )">
    <path d="M 114 94  A 5 5 0 0 1 119 89 L 482 89  A 5 5 0 0 1 487 94 L 487 1178  A 5 5 0 0 1 482 1183 L 119 1183  A 5 5 0 0 1 114 1178 L 114 94  Z " fill-rule="nonzero" fill="#f8f9fd" stroke="none" />
    <path d="M 113.5 94  A 5.5 5.5 0 0 1 119 88.5 L 482 88.5  A 5.5 5.5 0 0 1 487.5 94 L 487.5 1178  A 5.5 5.5 0 0 1 482 1183.5 L 119 1183.5  A 5.5 5.5 0 0 1 113.5 1178 L 113.5 94  Z " stroke-width="1" stroke="#d7d7d7" fill="none" stroke-opacity="0.925490196078431" />
  </g>
</svg>