<?xml version="1.0" encoding="utf-8"?>
<svg version="1.1" xmlns:xlink="http://www.w3.org/1999/xlink" width="395px" height="244px" xmlns="http://www.w3.org/2000/svg">
  <defs>
    <filter x="532px" y="635px" width="395px" height="244px" filterUnits="userSpaceOnUse" id="filter126">
      <feOffset dx="1" dy="1" in="SourceAlpha" result="shadowOffsetInner" />
      <feGaussianBlur stdDeviation="5" in="shadowOffsetInner" result="shadowGaussian" />
      <feComposite in2="shadowGaussian" operator="atop" in="SourceAlpha" result="shadowComposite" />
      <feColorMatrix type="matrix" values="0 0 0 0 0.843137254901961  0 0 0 0 0.843137254901961  0 0 0 0 0.843137254901961  0 0 0 0.294117647058824 0  " in="shadowComposite" />
    </filter>
    <g id="widget127">
      <path d="M 542 648  A 3 3 0 0 1 545 645 L 912 645  A 3 3 0 0 1 915 648 L 915 864  A 3 3 0 0 1 912 867 L 545 867  A 3 3 0 0 1 542 864 L 542 648  Z " fill-rule="nonzero" fill="#ffffff" stroke="none" />
      <path d="M 541.5 648  A 3.5 3.5 0 0 1 545 644.5 L 912 644.5  A 3.5 3.5 0 0 1 915.5 648 L 915.5 864  A 3.5 3.5 0 0 1 912 867.5 L 545 867.5  A 3.5 3.5 0 0 1 541.5 864 L 541.5 648  Z " stroke-width="1" stroke="#d7d7d7" fill="none" stroke-opacity="0.462745098039216" />
    </g>
  </defs>
  <g transform="matrix(1 0 0 1 -532 -635 )">
    <use xlink:href="#widget127" filter="url(#filter126)" />
    <use xlink:href="#widget127" />
  </g>
</svg>