<?xml version="1.0" encoding="utf-8"?>
<svg version="1.1" xmlns:xlink="http://www.w3.org/1999/xlink" width="16px" height="15px" xmlns="http://www.w3.org/2000/svg">
  <g transform="matrix(1 0 0 1 -874 -781 )">
    <path d="M 5.71590909090909 5.712890625  C 5.78409090909091 5.771484375  5.81818181818182 5.84635416666667  5.81818181818182 5.9375  L 5.81818181818182 11.5625  C 5.81818181818182 11.6536458333333  5.78409090909091 11.728515625  5.71590909090909 11.787109375  C 5.64772727272727 11.845703125  5.56060606060606 11.875  5.45454545454545 11.875  L 4.72727272727273 11.875  C 4.62121212121212 11.875  4.53409090909091 11.845703125  4.46590909090909 11.787109375  C 4.39772727272727 11.728515625  4.36363636363636 11.6536458333333  4.36363636363636 11.5625  L 4.36363636363636 5.9375  C 4.36363636363636 5.84635416666667  4.39772727272727 5.771484375  4.46590909090909 5.712890625  C 4.53409090909091 5.654296875  4.62121212121212 5.625  4.72727272727273 5.625  L 5.45454545454545 5.625  C 5.56060606060606 5.625  5.64772727272727 5.654296875  5.71590909090909 5.712890625  Z M 8.625 5.712890625  C 8.69318181818182 5.771484375  8.72727272727273 5.84635416666667  8.72727272727273 5.9375  L 8.72727272727273 11.5625  C 8.72727272727273 11.6536458333333  8.69318181818182 11.728515625  8.625 11.787109375  C 8.55681818181818 11.845703125  8.46969696969697 11.875  8.36363636363636 11.875  L 7.63636363636364 11.875  C 7.53030303030303 11.875  7.44318181818182 11.845703125  7.375 11.787109375  C 7.30681818181818 11.728515625  7.27272727272727 11.6536458333333  7.27272727272727 11.5625  L 7.27272727272727 5.9375  C 7.27272727272727 5.84635416666667  7.30681818181818 5.771484375  7.375 5.712890625  C 7.44318181818182 5.654296875  7.53030303030303 5.625  7.63636363636364 5.625  L 8.36363636363636 5.625  C 8.46969696969697 5.625  8.55681818181818 5.654296875  8.625 5.712890625  Z M 11.5340909090909 5.712890625  C 11.6022727272727 5.771484375  11.6363636363636 5.84635416666667  11.6363636363636 5.9375  L 11.6363636363636 11.5625  C 11.6363636363636 11.6536458333333  11.6022727272727 11.728515625  11.5340909090909 11.787109375  C 11.4659090909091 11.845703125  11.3787878787879 11.875  11.2727272727273 11.875  L 10.5454545454545 11.875  C 10.4393939393939 11.875  10.3522727272727 11.845703125  10.2840909090909 11.787109375  C 10.2159090909091 11.728515625  10.1818181818182 11.6536458333333  10.1818181818182 11.5625  L 10.1818181818182 5.9375  C 10.1818181818182 5.84635416666667  10.2159090909091 5.771484375  10.2840909090909 5.712890625  C 10.3522727272727 5.654296875  10.4393939393939 5.625  10.5454545454545 5.625  L 11.2727272727273 5.625  C 11.3787878787879 5.625  11.4659090909091 5.654296875  11.5340909090909 5.712890625  Z M 13.0113636363636 13.4033203125  C 13.0643939393939 13.2828776041667  13.0909090909091 13.1510416666667  13.0909090909091 13.0078125  L 13.0909090909091 4  L 2.90909090909091 4  L 2.90909090909091 13.0078125  C 2.90909090909091 13.1510416666667  2.93560606060606 13.2828776041667  2.98863636363636 13.4033203125  C 3.04166666666667 13.5237630208333  3.09659090909091 13.6116536458333  3.15340909090909 13.6669921875  C 3.21022727272727 13.7223307291667  3.25 13.75  3.27272727272727 13.75  L 12.7272727272727 13.75  C 12.75 13.75  12.7897727272727 13.7223307291667  12.8465909090909 13.6669921875  C 12.9034090909091 13.6116536458333  12.9583333333333 13.5237630208333  13.0113636363636 13.4033203125  Z M 6.01136363636364 1.357421875  L 5.45454545454545 2.5  L 10.5454545454545 2.5  L 10 1.357421875  C 9.9469696969697 1.298828125  9.88257575757576 1.26302083333333  9.80681818181818 1.25  L 6.20454545454545 1.25  C 6.12878787878788 1.26302083333333  6.06439393939394 1.298828125  6.01136363636364 1.357421875  Z M 15.8977272727273 2.587890625  C 15.9659090909091 2.646484375  16 2.72135416666667  16 2.8125  L 16 3.4375  C 16 3.52864583333333  15.9659090909091 3.603515625  15.8977272727273 3.662109375  C 15.8295454545455 3.720703125  15.7424242424242 3.75  15.6363636363636 3.75  L 14.5454545454545 3.75  L 14.5454545454545 13.0078125  C 14.5454545454545 13.5481770833333  14.3674242424242 14.0152994791667  14.0113636363636 14.4091796875  C 13.655303030303 14.8030598958333  13.2272727272727 15  12.7272727272727 15  L 3.27272727272727 15  C 2.77272727272727 15  2.34469696969697 14.8095703125  1.98863636363636 14.4287109375  C 1.63257575757576 14.0478515625  1.45454545454545 13.5872395833333  1.45454545454545 13.046875  L 1.45454545454545 3.75  L 0.363636363636364 3.75  C 0.257575757575758 3.75  0.170454545454545 3.720703125  0.102272727272727 3.662109375  C 0.0340909090909091 3.603515625  0 3.52864583333333  0 3.4375  L 0 2.8125  C 0 2.72135416666667  0.0340909090909091 2.646484375  0.102272727272727 2.587890625  C 0.170454545454545 2.529296875  0.257575757575758 2.5  0.363636363636364 2.5  L 3.875 2.5  L 4.67045454545455 0.869140625000001  C 4.78409090909091 0.628255208333332  4.98863636363636 0.423177083333332  5.28409090909091 0.253906250000001  C 5.57954545454546 0.0846354166666657  5.87878787878788 0  6.18181818181818 0  L 9.81818181818182 0  C 10.1212121212121 0  10.4204545454545 0.0846354166666657  10.7159090909091 0.253906250000001  C 11.0113636363636 0.423177083333332  11.2159090909091 0.628255208333332  11.3295454545455 0.869140625000001  L 12.125 2.5  L 15.6363636363636 2.5  C 15.7424242424242 2.5  15.8295454545455 2.529296875  15.8977272727273 2.587890625  Z " fill-rule="nonzero" fill="#aaaaaa" stroke="none" transform="matrix(1 0 0 1 874 781 )" />
  </g>
</svg>