<?xml version="1.0" encoding="utf-8"?>
<svg version="1.1" xmlns:xlink="http://www.w3.org/1999/xlink" width="12px" height="12px" viewBox="649 217  12 12" xmlns="http://www.w3.org/2000/svg">
  <path d="M 655 217  C 658.36 217  661 219.64  661 223  C 661 226.36  658.36 229  655 229  C 651.64 229  649 226.36  649 223  C 649 219.64  651.64 217  655 217  Z " fill-rule="nonzero" fill="#f0f0f0" stroke="none" />
  <path d="M 655 217.5  C 658.08 217.5  660.5 219.92  660.5 223  C 660.5 226.08  658.08 228.5  655 228.5  C 651.92 228.5  649.5 226.08  649.5 223  C 649.5 219.92  651.92 217.5  655 217.5  Z " stroke-width="1" stroke="#797979" fill="none" />
  <path d="M 655 226  C 653.32 226  652 224.68  652 223  C 652 221.32  653.32 220  655 220  C 656.68 220  658 221.32  658 223  C 658 224.68  656.68 226  655 226  " fill-rule="nonzero" fill="#797979" stroke="none" />
</svg>