<?xml version="1.0" encoding="utf-8"?>
<svg version="1.1" xmlns:xlink="http://www.w3.org/1999/xlink" width="375px" height="1247px" xmlns="http://www.w3.org/2000/svg">
  <g transform="matrix(1 0 0 1 -147 -101 )">
    <path d="M 148 107  A 5 5 0 0 1 153 102 L 516 102  A 5 5 0 0 1 521 107 L 521 1342  A 5 5 0 0 1 516 1347 L 153 1347  A 5 5 0 0 1 148 1342 L 148 107  Z " fill-rule="nonzero" fill="#f9f9fd" stroke="none" />
    <path d="M 147.5 107  A 5.5 5.5 0 0 1 153 101.5 L 516 101.5  A 5.5 5.5 0 0 1 521.5 107 L 521.5 1342  A 5.5 5.5 0 0 1 516 1347.5 L 153 1347.5  A 5.5 5.5 0 0 1 147.5 1342 L 147.5 107  Z " stroke-width="1" stroke="#d7d7d7" fill="none" stroke-opacity="0.925490196078431" />
  </g>
</svg>