<?xml version="1.0" encoding="utf-8"?>
<svg version="1.1" xmlns:xlink="http://www.w3.org/1999/xlink" width="14px" height="14px" xmlns="http://www.w3.org/2000/svg">
  <g transform="matrix(1 0 0 1 -581 -2188 )">
    <path d="M 11.811080414833 10.5413895948784  C 11.811080414833 10.5413895948784  13.8088887891279 12.4042571956174  13.8088887891279 12.4042571956174  L 12.741350371885 13.6059178983285  C 12.741350371885 13.6059178983285  10.8278864193587 11.6230195621431  10.8278864193587 11.6230195621431  C 9.73084286642455 12.4787220055272  8.00688877213012 13.3191539499922  6.52056744800943 13.3191539499922  C 2.91938554713768 13.3191539499922  0 10.3375365650232  0 6.65964368083045  C 0 2.98175079663771  2.91938554713767 0  6.52056744800943 0  C 10.1214856998658 0  13.0408712470034 2.98148397330022  13.0408712470034 6.65951026916171  C 13.0408712470034 8.10982852017953  12.5819901357605 9.44808096944453  11.811080414833 10.5413895948784  Z M 11.6776623814849 6.65950438785528  C 11.6776623814849 3.75037060637986  9.36854579955172 1.39227983373932  6.52058488202406 1.39227983373932  C 3.6719357852683 1.39227983373932  1.36268156748949 3.75037060637986  1.36268156748949 6.65950438785528  C 1.36268156748949 9.56863816933064  3.67179814942268 11.9270075279211  6.52058488202406 11.9270075279211  C 9.36854579955172 11.9270075279211  11.6776623814849 9.5686381693307  11.6776623814849 6.65950438785528  Z " fill-rule="nonzero" fill="#bbbbbb" stroke="none" transform="matrix(1 0 0 1 581 2188 )" />
  </g>
</svg>