<?xml version="1.0" encoding="utf-8"?>
<svg version="1.1" xmlns:xlink="http://www.w3.org/1999/xlink" width="60px" height="21px" xmlns="http://www.w3.org/2000/svg">
  <defs>
    <mask fill="white" id="clip162">
      <path d="M 0 18  L 0 3  C 0 1.31999999999999  1.2774193548387 0  2.90322580645161 0  L 37.741935483871 0  L 57.0967741935484 0  C 58.7225806451613 0  60 1.31999999999999  60 3  L 60 18  C 60 19.68  58.7225806451613 21  57.0967741935484 21  L 2.90322580645161 21  C 1.2774193548387 21  0 19.68  0 18  Z " fill-rule="evenodd" />
    </mask>
  </defs>
  <g transform="matrix(1 0 0 1 -125 -231 )">
    <path d="M 0 18  L 0 3  C 0 1.31999999999999  1.2774193548387 0  2.90322580645161 0  L 37.741935483871 0  L 57.0967741935484 0  C 58.7225806451613 0  60 1.31999999999999  60 3  L 60 18  C 60 19.68  58.7225806451613 21  57.0967741935484 21  L 2.90322580645161 21  C 1.2774193548387 21  0 19.68  0 18  Z " fill-rule="nonzero" fill="#cdf0ff" stroke="none" fill-opacity="0.8" transform="matrix(1 0 0 1 125 231 )" />
    <path d="M 0 18  L 0 3  C 0 1.31999999999999  1.2774193548387 0  2.90322580645161 0  L 37.741935483871 0  L 57.0967741935484 0  C 58.7225806451613 0  60 1.31999999999999  60 3  L 60 18  C 60 19.68  58.7225806451613 21  57.0967741935484 21  L 2.90322580645161 21  C 1.2774193548387 21  0 19.68  0 18  Z " stroke-width="2" stroke="#1a1919" fill="none" stroke-opacity="0.0666666666666667" transform="matrix(1 0 0 1 125 231 )" mask="url(#clip162)" />
  </g>
</svg>