<?xml version="1.0" encoding="utf-8"?>
<svg version="1.1" xmlns:xlink="http://www.w3.org/1999/xlink" width="102px" height="48px" xmlns="http://www.w3.org/2000/svg">
  <defs>
    <mask fill="white" id="clip91">
      <path d="M 0 28  L 0 0  L 82 0  L 82 28  L 34 28  L 0 28  Z " fill-rule="evenodd" />
    </mask>
    <filter x="1019px" y="836px" width="102px" height="48px" filterUnits="userSpaceOnUse" id="filter92">
      <feOffset dx="1" dy="1" in="SourceAlpha" result="shadowOffsetInner" />
      <feGaussianBlur stdDeviation="5" in="shadowOffsetInner" result="shadowGaussian" />
      <feComposite in2="shadowGaussian" operator="atop" in="SourceAlpha" result="shadowComposite" />
      <feColorMatrix type="matrix" values="0 0 0 0 0.843137254901961  0 0 0 0 0.843137254901961  0 0 0 0 0.843137254901961  0 0 0 0.294117647058824 0  " in="shadowComposite" />
    </filter>
    <g id="widget93">
      <path d="M 0 28  L 0 0  L 82 0  L 82 28  L 34 28  L 0 28  Z " fill-rule="nonzero" fill="#ffffff" stroke="none" transform="matrix(1 0 0 1 1028 845 )" />
      <path d="M 0 28  L 0 0  L 82 0  L 82 28  L 34 28  L 0 28  Z " stroke-width="2" stroke="#3e74fa" fill="none" transform="matrix(1 0 0 1 1028 845 )" mask="url(#clip91)" />
    </g>
  </defs>
  <g transform="matrix(1 0 0 1 -1019 -836 )">
    <use xlink:href="#widget93" filter="url(#filter92)" />
    <use xlink:href="#widget93" />
  </g>
</svg>