<?xml version="1.0" encoding="utf-8"?>
<svg version="1.1" xmlns:xlink="http://www.w3.org/1999/xlink" width="70px" height="24px" xmlns="http://www.w3.org/2000/svg">
  <defs>
    <mask fill="white" id="clip95">
      <path d="M 0 20.5714285714286  L 0 3.42857142857143  C 0 1.50857142857142  1.49032258064515 0  3.38709677419355 0  L 44.0322580645161 0  L 66.6129032258064 0  C 68.5096774193548 0  70 1.50857142857142  70 3.42857142857143  L 70 20.5714285714286  C 70 22.4914285714286  68.5096774193548 24  66.6129032258064 24  L 3.38709677419355 24  C 1.49032258064515 24  0 22.4914285714286  0 20.5714285714286  Z " fill-rule="evenodd" />
    </mask>
  </defs>
  <g transform="matrix(1 0 0 1 -129 -1104 )">
    <path d="M 0 20.5714285714286  L 0 3.42857142857143  C 0 1.50857142857142  1.49032258064515 0  3.38709677419355 0  L 44.0322580645161 0  L 66.6129032258064 0  C 68.5096774193548 0  70 1.50857142857142  70 3.42857142857143  L 70 20.5714285714286  C 70 22.4914285714286  68.5096774193548 24  66.6129032258064 24  L 3.38709677419355 24  C 1.49032258064515 24  0 22.4914285714286  0 20.5714285714286  Z " fill-rule="nonzero" fill="#ffffff" stroke="none" transform="matrix(1 0 0 1 129 1104 )" />
    <path d="M 0 20.5714285714286  L 0 3.42857142857143  C 0 1.50857142857142  1.49032258064515 0  3.38709677419355 0  L 44.0322580645161 0  L 66.6129032258064 0  C 68.5096774193548 0  70 1.50857142857142  70 3.42857142857143  L 70 20.5714285714286  C 70 22.4914285714286  68.5096774193548 24  66.6129032258064 24  L 3.38709677419355 24  C 1.49032258064515 24  0 22.4914285714286  0 20.5714285714286  Z " stroke-width="2" stroke="#aba8a8" fill="none" stroke-opacity="0.713725490196078" transform="matrix(1 0 0 1 129 1104 )" mask="url(#clip95)" />
  </g>
</svg>