<?xml version="1.0" encoding="utf-8"?>
<svg version="1.1" xmlns:xlink="http://www.w3.org/1999/xlink" width="18px" height="15px" xmlns="http://www.w3.org/2000/svg">
  <g transform="matrix(1 0 0 1 -850 -1029 )">
    <path d="M 10.6218929732143 14.7835217578125  C 10.8306748526786 14.6711779296875  10.9614821584821 14.4711735351563  10.968800625 14.2526616796875  C 10.968800625 14.2526616796875  10.995134765625 6.73913585937498  10.995134765625 6.73913585937498  C 10.995134765625 6.73913585937498  15.7690363660714 1.53322546875  15.7690363660714 1.53322546875  C 15.9441861897321 1.34169533203124  15.9812307924107 1.07649513671873  15.8627374151786 0.852207207031256  C 15.7443262633928 0.627819335937488  15.4927436986607 0.484916230468741  15.215690390625 0.484916230468741  C 15.215690390625 0.484916230468741  1.18672431026783 0.484916230468741  1.18672431026783 0.484916230468741  C 0.90712187276787 0.484916230468741  0.653051852678566 0.630757343749963  0.536367535714291 0.858742773437484  C 0.419600993303551 1.08646837890626  0.461456035714296 1.35424681640626  0.644047674107105 1.54429796875002  C 0.644047674107105 1.54429796875002  5.62841684598212 6.73875613281251  5.62841684598212 6.73875613281251  C 5.62841684598212 6.73875613281251  5.62841684598212 12.5966244921875  5.62841684598212 12.5966244921875  C 5.62841684598212 12.8401393945312  5.78214576562495 13.0629683203125  6.02556699776785 13.1712349023437  C 6.02556699776785 13.1712349023437  9.93527278794638 14.8081650585937  9.93527278794638 14.8081650585937  C 10.0356344598214 14.8527548242187  10.1450003102678 14.8748198632812  10.2535232946428 14.8748198632812  C 10.380938625 14.8748198632812  10.5084361808036 14.8442605859375  10.6218929732143 14.7835217578125  Z M 12.5532281049107 9.03855685546876  L 12.5532281049107 7.90700404296877  L 17.8788516227679 7.90700404296877  L 17.8788516227679 9.03855685546876  L 12.5532281049107 9.03855685546876  Z M 12.5532281049107 11.502466328125  L 12.5532281049107 10.3708935351563  L 17.8788516227679 10.3708935351563  L 17.8788516227679 11.502466328125  L 12.5532281049107 11.502466328125  Z M 12.5532281049107 12.634019140625  L 17.8788516227679 12.634019140625  L 17.8788516227679 13.7655919335938  L 12.5532281049107 13.7655919335938  L 12.5532281049107 12.634019140625  Z M 7.05911540625 12.1988141992188  L 7.05911540625 7.14252236328127  L 9.54961427008929 7.14252236328127  L 9.53072194419641 13.2147254101563  L 7.05911540625 12.1988141992188  Z M 2.74568104687498 2  L 13.7010761517857 2  L 9.94867627901783 5.85985201171877  L 9.81690275892854 5.85985201171877  L 6.67222342633925 5.85985201171877  L 2.74568104687498 2  Z " fill-rule="nonzero" fill="#d9001b" stroke="none" transform="matrix(1 0 0 1 850 1029 )" />
  </g>
</svg>