<?xml version="1.0" encoding="utf-8"?>
<svg version="1.1" xmlns:xlink="http://www.w3.org/1999/xlink" width="71px" height="31px" xmlns="http://www.w3.org/2000/svg">
  <defs>
    <linearGradient gradientUnits="userSpaceOnUse" x1="35" y1="0" x2="35" y2="30" id="LinearGradient150">
      <stop id="Stop151" stop-color="#ffffff" offset="0" />
      <stop id="Stop152" stop-color="#f2f2f2" offset="0" />
      <stop id="Stop153" stop-color="#e4e4e4" offset="1" />
      <stop id="Stop154" stop-color="#ffffff" offset="1" />
    </linearGradient>
    <mask fill="white" id="clip155">
      <path d="M 70 0  L 0 0  L 0 30  L 70 30  L 70 0  Z " fill-rule="evenodd" />
    </mask>
  </defs>
  <g transform="matrix(1 0 0 1 -302 -556 )">
    <path d="M 70 0  L 0 0  L 0 30  L 70 30  L 70 0  Z " fill-rule="nonzero" fill="url(#LinearGradient150)" stroke="none" transform="matrix(1 0 0 1 302 556 )" />
    <path d="M 70 0  L 0 0  L 0 30  L 70 30  L 70 0  Z " stroke-width="2" stroke="#797979" fill="none" transform="matrix(1 0 0 1 302 556 )" mask="url(#clip155)" />
    <path d="M 7.5 0  L 7.5 30  M 62.5 0  L 62.5 30  " stroke-width="1" stroke="#797979" fill="none" transform="matrix(1 0 0 1 302 556 )" />
  </g>
</svg>