<?xml version="1.0" encoding="utf-8"?>
<svg version="1.1" xmlns:xlink="http://www.w3.org/1999/xlink" width="375px" height="1245px" xmlns="http://www.w3.org/2000/svg">
  <g transform="matrix(1 0 0 1 -187 -155 )">
    <path d="M 188 161  A 5 5 0 0 1 193 156 L 556 156  A 5 5 0 0 1 561 161 L 561 1394  A 5 5 0 0 1 556 1399 L 193 1399  A 5 5 0 0 1 188 1394 L 188 161  Z " fill-rule="nonzero" fill="#f9f9fd" stroke="none" />
    <path d="M 187.5 161  A 5.5 5.5 0 0 1 193 155.5 L 556 155.5  A 5.5 5.5 0 0 1 561.5 161 L 561.5 1394  A 5.5 5.5 0 0 1 556 1399.5 L 193 1399.5  A 5.5 5.5 0 0 1 187.5 1394 L 187.5 161  Z " stroke-width="1" stroke="#d7d7d7" fill="none" stroke-opacity="0.925490196078431" />
  </g>
</svg>