<?xml version="1.0" encoding="utf-8"?>
<svg version="1.1" xmlns:xlink="http://www.w3.org/1999/xlink" width="72px" height="23px" xmlns="http://www.w3.org/2000/svg">
  <defs>
    <mask fill="white" id="clip173">
      <path d="M 0 19  L 0 4  C 0 1.75999999999999  1.40799999999999 0  3.2 0  L 68.8 0  C 70.592 0  72 1.75999999999999  72 4  L 72 19  C 72 21.24  70.592 23  68.8 23  L 48 23  L 3.2 23  C 1.40799999999999 23  0 21.24  0 19  Z " fill-rule="evenodd" />
    </mask>
  </defs>
  <g transform="matrix(1 0 0 1 -290 -462 )">
    <path d="M 0 19  L 0 4  C 0 1.75999999999999  1.40799999999999 0  3.2 0  L 68.8 0  C 70.592 0  72 1.75999999999999  72 4  L 72 19  C 72 21.24  70.592 23  68.8 23  L 48 23  L 3.2 23  C 1.40799999999999 23  0 21.24  0 19  Z " fill-rule="nonzero" fill="#ffffff" stroke="none" transform="matrix(1 0 0 1 290 462 )" />
    <path d="M 0 19  L 0 4  C 0 1.75999999999999  1.40799999999999 0  3.2 0  L 68.8 0  C 70.592 0  72 1.75999999999999  72 4  L 72 19  C 72 21.24  70.592 23  68.8 23  L 48 23  L 3.2 23  C 1.40799999999999 23  0 21.24  0 19  Z " stroke-width="2" stroke="#7f7f7f" fill="none" transform="matrix(1 0 0 1 290 462 )" mask="url(#clip173)" />
  </g>
</svg>