<?xml version="1.0" encoding="utf-8"?>
<svg version="1.1" xmlns:xlink="http://www.w3.org/1999/xlink" width="76px" height="30px" xmlns="http://www.w3.org/2000/svg">
  <defs>
    <mask fill="white" id="clip200">
      <path d="M 0 26  L 0 4  C 0 1.75999999999999  1.75999999999999 0  4 0  L 72 0  C 74.24 0  76 1.75999999999999  76 4  L 76 26  C 76 28.24  74.24 30  72 30  L 41.0740740740714 30  L 4 30  C 1.75999999999999 30  0 28.24  0 26  Z " fill-rule="evenodd" />
    </mask>
  </defs>
  <g transform="matrix(1 0 0 1 -1202 -285 )">
    <path d="M 0 26  L 0 4  C 0 1.75999999999999  1.75999999999999 0  4 0  L 72 0  C 74.24 0  76 1.75999999999999  76 4  L 76 26  C 76 28.24  74.24 30  72 30  L 41.0740740740714 30  L 4 30  C 1.75999999999999 30  0 28.24  0 26  Z " fill-rule="nonzero" fill="#555555" stroke="none" transform="matrix(1 0 0 1 1202 285 )" />
    <path d="M 0 26  L 0 4  C 0 1.75999999999999  1.75999999999999 0  4 0  L 72 0  C 74.24 0  76 1.75999999999999  76 4  L 76 26  C 76 28.24  74.24 30  72 30  L 41.0740740740714 30  L 4 30  C 1.75999999999999 30  0 28.24  0 26  Z " stroke-width="2" stroke="#aaaaaa" fill="none" transform="matrix(1 0 0 1 1202 285 )" mask="url(#clip200)" />
  </g>
</svg>