<?xml version="1.0" encoding="utf-8"?>
<svg version="1.1" xmlns:xlink="http://www.w3.org/1999/xlink" width="14px" height="14px" viewBox="1266 244  14 14" xmlns="http://www.w3.org/2000/svg">
  <path d="M 1273 244  C 1276.92 244  1280 247.08  1280 251  C 1280 254.92  1276.92 258  1273 258  C 1269.08 258  1266 254.92  1266 251  C 1266 247.08  1269.08 244  1273 244  Z " fill-rule="nonzero" fill="#ffffff" stroke="none" />
  <path d="M 1273 244.5  C 1276.64 244.5  1279.5 247.36  1279.5 251  C 1279.5 254.64  1276.64 257.5  1273 257.5  C 1269.36 257.5  1266.5 254.64  1266.5 251  C 1266.5 247.36  1269.36 244.5  1273 244.5  Z " stroke-width="1" stroke="#555555" fill="none" />
  <path d="M 1273 254.5  C 1271.04 254.5  1269.5 252.96  1269.5 251  C 1269.5 249.04  1271.04 247.5  1273 247.5  C 1274.96 247.5  1276.5 249.04  1276.5 251  C 1276.5 252.96  1274.96 254.5  1273 254.5  " fill-rule="nonzero" fill="#555555" stroke="none" />
</svg>