<?xml version="1.0" encoding="utf-8"?>
<svg version="1.1" xmlns:xlink="http://www.w3.org/1999/xlink" width="14px" height="14px" viewBox="1184 194  14 14" xmlns="http://www.w3.org/2000/svg">
  <path d="M 1191 194  C 1194.92 194  1198 197.08  1198 201  C 1198 204.92  1194.92 208  1191 208  C 1187.08 208  1184 204.92  1184 201  C 1184 197.08  1187.08 194  1191 194  Z " fill-rule="nonzero" fill="#f0f0f0" stroke="none" />
  <path d="M 1191 194.5  C 1194.64 194.5  1197.5 197.36  1197.5 201  C 1197.5 204.64  1194.64 207.5  1191 207.5  C 1187.36 207.5  1184.5 204.64  1184.5 201  C 1184.5 197.36  1187.36 194.5  1191 194.5  Z " stroke-width="1" stroke="#555555" fill="none" />
  <path d="M 1191 204.5  C 1189.04 204.5  1187.5 202.96  1187.5 201  C 1187.5 199.04  1189.04 197.5  1191 197.5  C 1192.96 197.5  1194.5 199.04  1194.5 201  C 1194.5 202.96  1192.96 204.5  1191 204.5  " fill-rule="nonzero" fill="#555555" stroke="none" />
</svg>