<?xml version="1.0" encoding="utf-8"?>
<svg version="1.1" xmlns:xlink="http://www.w3.org/1999/xlink" width="14px" height="14px" viewBox="1337 194  14 14" xmlns="http://www.w3.org/2000/svg">
  <path d="M 1344 194  C 1347.92 194  1351 197.08  1351 201  C 1351 204.92  1347.92 208  1344 208  C 1340.08 208  1337 204.92  1337 201  C 1337 197.08  1340.08 194  1344 194  Z " fill-rule="nonzero" fill="#f0f0f0" stroke="none" />
  <path d="M 1344 194.5  C 1347.64 194.5  1350.5 197.36  1350.5 201  C 1350.5 204.64  1347.64 207.5  1344 207.5  C 1340.36 207.5  1337.5 204.64  1337.5 201  C 1337.5 197.36  1340.36 194.5  1344 194.5  Z " stroke-width="1" stroke="#555555" fill="none" />
  <path d="M 1344 204.5  C 1342.04 204.5  1340.5 202.96  1340.5 201  C 1340.5 199.04  1342.04 197.5  1344 197.5  C 1345.96 197.5  1347.5 199.04  1347.5 201  C 1347.5 202.96  1345.96 204.5  1344 204.5  " fill-rule="nonzero" fill="#555555" stroke="none" />
</svg>