<?xml version="1.0" encoding="utf-8"?>
<svg version="1.1" xmlns:xlink="http://www.w3.org/1999/xlink" width="14px" height="14px" viewBox="1347 243  14 14" xmlns="http://www.w3.org/2000/svg">
  <path d="M 1354 243  C 1357.92 243  1361 246.08  1361 250  C 1361 253.92  1357.92 257  1354 257  C 1350.08 257  1347 253.92  1347 250  C 1347 246.08  1350.08 243  1354 243  Z " fill-rule="nonzero" fill="#ffffff" stroke="none" />
  <path d="M 1354 243.5  C 1357.64 243.5  1360.5 246.36  1360.5 250  C 1360.5 253.64  1357.64 256.5  1354 256.5  C 1350.36 256.5  1347.5 253.64  1347.5 250  C 1347.5 246.36  1350.36 243.5  1354 243.5  Z " stroke-width="1" stroke="#555555" fill="none" />
  <path d="M 1354 253.5  C 1352.04 253.5  1350.5 251.96  1350.5 250  C 1350.5 248.04  1352.04 246.5  1354 246.5  C 1355.96 246.5  1357.5 248.04  1357.5 250  C 1357.5 251.96  1355.96 253.5  1354 253.5  " fill-rule="nonzero" fill="#555555" stroke="none" />
</svg>