<?xml version="1.0" encoding="utf-8"?>
<svg version="1.1" xmlns:xlink="http://www.w3.org/1999/xlink" width="375px" height="256px" xmlns="http://www.w3.org/2000/svg">
  <defs>
    <mask fill="white" id="clip109">
      <path d="M 0 256  L 0 0  L 375 0  L 375 256  L 98.5 256  L 59.75 256  L 0 256  Z " fill-rule="evenodd" />
    </mask>
  </defs>
  <g transform="matrix(1 0 0 1 -871 -1118 )">
    <path d="M 0 256  L 0 0  L 375 0  L 375 256  L 98.5 256  L 59.75 256  L 0 256  Z " fill-rule="nonzero" fill="#ffffff" stroke="none" transform="matrix(1 0 0 1 871 1118 )" />
    <path d="M 0 256  L 0 0  L 375 0  L 375 256  L 98.5 256  L 59.75 256  L 0 256  Z " stroke-width="2" stroke="#f2f2f2" fill="none" transform="matrix(1 0 0 1 871 1118 )" mask="url(#clip109)" />
  </g>
</svg>