<?xml version="1.0" encoding="utf-8"?>
<svg version="1.1" xmlns:xlink="http://www.w3.org/1999/xlink" width="375px" height="600px" xmlns="http://www.w3.org/2000/svg">
  <defs>
    <mask fill="white" id="clip111">
      <path d="M 0 600  L 0 0  L 375 0  L 375 600  L 98.5 600  L 59.75 600  L 0 600  Z " fill-rule="evenodd" />
    </mask>
  </defs>
  <g transform="matrix(1 0 0 1 -457 -1116 )">
    <path d="M 0 600  L 0 0  L 375 0  L 375 600  L 98.5 600  L 59.75 600  L 0 600  Z " fill-rule="nonzero" fill="#ffffff" stroke="none" transform="matrix(1 0 0 1 457 1116 )" />
    <path d="M 0 600  L 0 0  L 375 0  L 375 600  L 98.5 600  L 59.75 600  L 0 600  Z " stroke-width="2" stroke="#f2f2f2" fill="none" transform="matrix(1 0 0 1 457 1116 )" mask="url(#clip111)" />
  </g>
</svg>