<?xml version="1.0" encoding="utf-8"?>
<svg version="1.1" xmlns:xlink="http://www.w3.org/1999/xlink" width="375px" height="282px" xmlns="http://www.w3.org/2000/svg">
  <defs>
    <mask fill="white" id="clip112">
      <path d="M 0 282  L 0 0  L 375 0  L 375 282  L 98.5 282  L 59.75 282  L 0 282  Z " fill-rule="evenodd" />
    </mask>
  </defs>
  <g transform="matrix(1 0 0 1 -881 -1853 )">
    <path d="M 0 282  L 0 0  L 375 0  L 375 282  L 98.5 282  L 59.75 282  L 0 282  Z " fill-rule="nonzero" fill="#ffffff" stroke="none" transform="matrix(1 0 0 1 881 1853 )" />
    <path d="M 0 282  L 0 0  L 375 0  L 375 282  L 98.5 282  L 59.75 282  L 0 282  Z " stroke-width="2" stroke="#f2f2f2" fill="none" transform="matrix(1 0 0 1 881 1853 )" mask="url(#clip112)" />
  </g>
</svg>