<?xml version="1.0" encoding="utf-8"?>
<svg version="1.1" xmlns:xlink="http://www.w3.org/1999/xlink" width="375px" height="445px" xmlns="http://www.w3.org/2000/svg">
  <defs>
    <mask fill="white" id="clip115">
      <path d="M 0 445  L 0 0  L 375 0  L 375 445  L 98.5 445  L 59.75 445  L 0 445  Z " fill-rule="evenodd" />
    </mask>
  </defs>
  <g transform="matrix(1 0 0 1 -884 -2606 )">
    <path d="M 0 445  L 0 0  L 375 0  L 375 445  L 98.5 445  L 59.75 445  L 0 445  Z " fill-rule="nonzero" fill="#ffffff" stroke="none" transform="matrix(1 0 0 1 884 2606 )" />
    <path d="M 0 445  L 0 0  L 375 0  L 375 445  L 98.5 445  L 59.75 445  L 0 445  Z " stroke-width="2" stroke="#f2f2f2" fill="none" transform="matrix(1 0 0 1 884 2606 )" mask="url(#clip115)" />
  </g>
</svg>