<?xml version="1.0" encoding="utf-8"?>
<svg version="1.1" xmlns:xlink="http://www.w3.org/1999/xlink" width="375px" height="418px" xmlns="http://www.w3.org/2000/svg">
  <defs>
    <mask fill="white" id="clip116">
      <path d="M 0 418  L 0 0  L 375 0  L 375 418  L 98.5 418  L 59.75 418  L 0 418  Z " fill-rule="evenodd" />
    </mask>
  </defs>
  <g transform="matrix(1 0 0 1 -884 -3106 )">
    <path d="M 0 418  L 0 0  L 375 0  L 375 418  L 98.5 418  L 59.75 418  L 0 418  Z " fill-rule="nonzero" fill="#ffffff" stroke="none" transform="matrix(1 0 0 1 884 3106 )" />
    <path d="M 0 418  L 0 0  L 375 0  L 375 418  L 98.5 418  L 59.75 418  L 0 418  Z " stroke-width="2" stroke="#f2f2f2" fill="none" transform="matrix(1 0 0 1 884 3106 )" mask="url(#clip116)" />
  </g>
</svg>