<?xml version="1.0" encoding="utf-8"?>
<svg version="1.1" xmlns:xlink="http://www.w3.org/1999/xlink" width="375px" height="455px" xmlns="http://www.w3.org/2000/svg">
  <defs>
    <mask fill="white" id="clip119">
      <path d="M 0 455  L 0 0  L 375 0  L 375 455  L 98.5 455  L 59.75 455  L 0 455  Z " fill-rule="evenodd" />
    </mask>
  </defs>
  <g transform="matrix(1 0 0 1 -886 -4270 )">
    <path d="M 0 455  L 0 0  L 375 0  L 375 455  L 98.5 455  L 59.75 455  L 0 455  Z " fill-rule="nonzero" fill="#ffffff" stroke="none" transform="matrix(1 0 0 1 886 4270 )" />
    <path d="M 0 455  L 0 0  L 375 0  L 375 455  L 98.5 455  L 59.75 455  L 0 455  Z " stroke-width="2" stroke="#f2f2f2" fill="none" transform="matrix(1 0 0 1 886 4270 )" mask="url(#clip119)" />
  </g>
</svg>