<?xml version="1.0" encoding="utf-8"?>
<svg version="1.1" xmlns:xlink="http://www.w3.org/1999/xlink" width="375px" height="489px" xmlns="http://www.w3.org/2000/svg">
  <defs>
    <mask fill="white" id="clip118">
      <path d="M 0 489  L 0 0  L 375 0  L 375 489  L 98.5 489  L 59.75 489  L 0 489  Z " fill-rule="evenodd" />
    </mask>
  </defs>
  <g transform="matrix(1 0 0 1 -886 -3680 )">
    <path d="M 0 489  L 0 0  L 375 0  L 375 489  L 98.5 489  L 59.75 489  L 0 489  Z " fill-rule="nonzero" fill="#ffffff" stroke="none" transform="matrix(1 0 0 1 886 3680 )" />
    <path d="M 0 489  L 0 0  L 375 0  L 375 489  L 98.5 489  L 59.75 489  L 0 489  Z " stroke-width="2" stroke="#f2f2f2" fill="none" transform="matrix(1 0 0 1 886 3680 )" mask="url(#clip118)" />
  </g>
</svg>