<?xml version="1.0" encoding="utf-8"?>
<svg version="1.1" xmlns:xlink="http://www.w3.org/1999/xlink" width="375px" height="843px" xmlns="http://www.w3.org/2000/svg">
  <defs>
    <mask fill="white" id="clip120">
      <path d="M 0 843  L 0 0  L 375 0  L 375 843  L 98.5 843  L 59.75 843  L 0 843  Z " fill-rule="evenodd" />
    </mask>
  </defs>
  <g transform="matrix(1 0 0 1 -464 -3681 )">
    <path d="M 0 843  L 0 0  L 375 0  L 375 843  L 98.5 843  L 59.75 843  L 0 843  Z " fill-rule="nonzero" fill="#ffffff" stroke="none" transform="matrix(1 0 0 1 464 3681 )" />
    <path d="M 0 843  L 0 0  L 375 0  L 375 843  L 98.5 843  L 59.75 843  L 0 843  Z " stroke-width="2" stroke="#f2f2f2" fill="none" transform="matrix(1 0 0 1 464 3681 )" mask="url(#clip120)" />
  </g>
</svg>