<?xml version="1.0" encoding="utf-8"?>
<svg version="1.1" xmlns:xlink="http://www.w3.org/1999/xlink" width="106px" height="30px" xmlns="http://www.w3.org/2000/svg">
  <defs>
    <mask fill="white" id="clip196">
      <path d="M 0 26  L 0 4  C 0 1.75999999999999  2.45473684210524 0  5.578947368421 0  L 44.6315789473685 0  L 69.7368421052632 0  L 78.7128712871287 0  L 100.421052631579 0  C 103.545263157895 0  106 1.75999999999999  106 4  L 106 26  C 106 28.24  103.545263157895 30  100.421052631579 30  L 5.578947368421 30  C 2.45473684210524 30  0 28.24  0 26  Z " fill-rule="evenodd" />
    </mask>
  </defs>
  <g transform="matrix(1 0 0 1 -1067 -269 )">
    <path d="M 0 26  L 0 4  C 0 1.75999999999999  2.45473684210524 0  5.578947368421 0  L 44.6315789473685 0  L 69.7368421052632 0  L 78.7128712871287 0  L 100.421052631579 0  C 103.545263157895 0  106 1.75999999999999  106 4  L 106 26  C 106 28.24  103.545263157895 30  100.421052631579 30  L 5.578947368421 30  C 2.45473684210524 30  0 28.24  0 26  Z " fill-rule="nonzero" fill="#aaaaaa" stroke="none" fill-opacity="0" transform="matrix(1 0 0 1 1067 269 )" />
    <path d="M 0 26  L 0 4  C 0 1.75999999999999  2.45473684210524 0  5.578947368421 0  L 44.6315789473685 0  L 69.7368421052632 0  L 78.7128712871287 0  L 100.421052631579 0  C 103.545263157895 0  106 1.75999999999999  106 4  L 106 26  C 106 28.24  103.545263157895 30  100.421052631579 30  L 5.578947368421 30  C 2.45473684210524 30  0 28.24  0 26  Z " stroke-width="2" stroke="#aaaaaa" fill="none" transform="matrix(1 0 0 1 1067 269 )" mask="url(#clip196)" />
  </g>
</svg>