<?xml version="1.0" encoding="utf-8"?>
<svg version="1.1" xmlns:xlink="http://www.w3.org/1999/xlink" width="76px" height="24px" xmlns="http://www.w3.org/2000/svg">
  <defs>
    <mask fill="white" id="clip180">
      <path d="M 0 20  L 0 4  C 0 1.75999999999999  1.36489795918367 0  3.10204081632653 0  L 31.7959183673469 0  L 72.8979591836735 0  C 74.6351020408163 0  76 1.75999999999999  76 4  L 76 20  C 76 22.24  74.6351020408163 24  72.8979591836735 24  L 3.10204081632653 24  C 1.36489795918367 24  0 22.24  0 20  Z " fill-rule="evenodd" />
    </mask>
  </defs>
  <g transform="matrix(1 0 0 1 -1708 -963 )">
    <path d="M 0 20  L 0 4  C 0 1.75999999999999  1.36489795918367 0  3.10204081632653 0  L 31.7959183673469 0  L 72.8979591836735 0  C 74.6351020408163 0  76 1.75999999999999  76 4  L 76 20  C 76 22.24  74.6351020408163 24  72.8979591836735 24  L 3.10204081632653 24  C 1.36489795918367 24  0 22.24  0 20  Z " fill-rule="nonzero" fill="#7f7f7f" stroke="none" transform="matrix(1 0 0 1 1708 963 )" />
    <path d="M 0 20  L 0 4  C 0 1.75999999999999  1.36489795918367 0  3.10204081632653 0  L 31.7959183673469 0  L 72.8979591836735 0  C 74.6351020408163 0  76 1.75999999999999  76 4  L 76 20  C 76 22.24  74.6351020408163 24  72.8979591836735 24  L 3.10204081632653 24  C 1.36489795918367 24  0 22.24  0 20  Z " stroke-width="2" stroke="#7f7f7f" fill="none" transform="matrix(1 0 0 1 1708 963 )" mask="url(#clip180)" />
  </g>
</svg>