<?xml version="1.0" encoding="utf-8"?>
<svg version="1.1" xmlns:xlink="http://www.w3.org/1999/xlink" width="23px" height="10px" preserveAspectRatio="xMinYMid meet" viewBox="1262 522  23 8" xmlns="http://www.w3.org/2000/svg">
  <path d="M 1264 526  L 1280 526  L 1280 740  L 1106 740  L 1106 754  " stroke-width="2" stroke="#f59a23" fill="none" />
  <path d="M 1265.5 522.5  A 3.5 3.5 0 0 0 1262 526 A 3.5 3.5 0 0 0 1265.5 529.5 A 3.5 3.5 0 0 0 1269 526 A 3.5 3.5 0 0 0 1265.5 522.5 Z M 1110.29289321881 748.892893218813  L 1106 753.185786437627  L 1101.70710678119 748.892893218813  L 1100.29289321881 750.307106781187  L 1105.29289321881 755.307106781187  L 1106 756.014213562373  L 1106.70710678119 755.307106781187  L 1111.70710678119 750.307106781187  L 1110.29289321881 748.892893218813  Z " fill-rule="nonzero" fill="#f59a23" stroke="none" />
</svg>