<?xml version="1.0" encoding="utf-8"?>
<svg version="1.1" xmlns:xlink="http://www.w3.org/1999/xlink" width="50px" height="40px" xmlns="http://www.w3.org/2000/svg">
  <g transform="matrix(1 0 0 1 -245 -2022 )">
    <path d="M 15.2083333333333 8.125  C 16.1805555555555 9.09722222222217  16.6666666666667 10.2777777777778  16.6666666666667 11.6666666666666  C 16.6666666666667 13.0555555555555  16.1805555555555 14.2361111111111  15.2083333333333 15.2083333333334  C 14.2361111111111 16.1805555555555  13.0555555555555 16.6666666666666  11.6666666666667 16.6666666666666  C 10.2777777777778 16.6666666666666  9.09722222222223 16.1805555555555  8.125 15.2083333333334  C 7.15277777777777 14.2361111111111  6.66666666666666 13.0555555555555  6.66666666666666 11.6666666666666  C 6.66666666666666 10.2777777777778  7.15277777777777 9.09722222222217  8.125 8.125  C 9.09722222222223 7.15277777777783  10.2777777777778 6.66666666666663  11.6666666666667 6.66666666666663  C 13.0555555555555 6.66666666666663  14.2361111111111 7.15277777777783  15.2083333333333 8.125  Z M 32.5 10.8333333333334  L 34.3333333333333 12.6666666666666  L 43 21.6666666666666  L 43 33  L 6.66666666666666 33  L 6.66666666666666 28.3333333333334  L 15 20  L 19.1666666666667 24.1666666666666  L 32.5 10.8333333333334  Z M 46.4192708333333 3.58072916666663  C 46.2543402777778 3.41579861111109  46.0590277777778 3.33333333333337  45.8333333333333 4  L 4.16666666666666 4  C 3.94097222222223 3.33333333333337  3.74565972222223 3.41579861111109  3.58072916666666 3.58072916666663  C 3.41579861111111 3.74565972222217  3.33333333333334 3.94097222222217  4 4.16666666666663  L 4 35.8333333333334  C 3.33333333333334 36.0590277777778  3.41579861111111 36.2543402777778  3.58072916666666 36.4192708333334  C 3.74565972222223 36.5842013888889  3.94097222222223 36.6666666666666  4.16666666666666 36  L 45.8333333333333 36  C 46.0590277777778 36.6666666666666  46.2543402777778 36.5842013888889  46.4192708333333 36.4192708333334  C 46.5842013888889 36.2543402777778  46.6666666666667 36.0590277777778  46 35.8333333333334  L 46 4.16666666666663  C 46.6666666666667 3.94097222222217  46.5842013888889 3.74565972222217  46.4192708333333 3.58072916666663  Z M 48.7760416666667 1.22395833333337  C 49.5920138888889 2.03993055555554  50 3.02083333333337  50 4.16666666666663  L 50 35.8333333333334  C 50 36.9791666666666  49.5920138888889 37.9600694444445  48.7760416666667 38.7760416666666  C 47.9600694444445 39.5920138888889  46.9791666666667 40  45.8333333333333 40  L 4.16666666666666 40  C 3.02083333333334 40  2.03993055555554 39.5920138888889  1.22395833333334 38.7760416666666  C 0.407986111111114 37.9600694444445  0 36.9791666666666  0 35.8333333333334  L 0 4.16666666666663  C 0 3.02083333333337  0.407986111111114 2.03993055555554  1.22395833333334 1.22395833333337  C 2.03993055555554 0.407986111111086  3.02083333333334 0  4.16666666666666 0  L 45.8333333333333 0  C 46.9791666666667 0  47.9600694444445 0.407986111111086  48.7760416666667 1.22395833333337  Z " fill-rule="nonzero" fill="#aaaaaa" stroke="none" transform="matrix(1 0 0 1 245 2022 )" />
  </g>
</svg>