<?xml version="1.0" encoding="utf-8"?>
<svg version="1.1" xmlns:xlink="http://www.w3.org/1999/xlink" width="30px" height="30px" xmlns="http://www.w3.org/2000/svg">
  <g transform="matrix(1 0 0 1 -503 -118 )">
    <path d="M 518 118  C 526.4 118  533 124.6  533 133  C 533 141.4  526.4 148  518 148  C 509.6 148  503 141.4  503 133  C 503 124.6  509.6 118  518 118  Z " fill-rule="nonzero" fill="#ffffff" stroke="none" />
    <path d="M 518 118.5  C 526.12 118.5  532.5 124.88  532.5 133  C 532.5 141.12  526.12 147.5  518 147.5  C 509.88 147.5  503.5 141.12  503.5 133  C 503.5 124.88  509.88 118.5  518 118.5  Z " stroke-width="1" stroke="#797979" fill="none" />
  </g>
</svg>