<?xml version="1.0" encoding="utf-8"?>
<svg version="1.1" xmlns:xlink="http://www.w3.org/1999/xlink" width="118px" height="14px" viewBox="248 456  118 14" xmlns="http://www.w3.org/2000/svg">
  <g transform="matrix(-0.992546151641322 -0.121869343405147 0.12186934340515 -0.992546151641321 555.286162557302 959.962756635312 )">
    <path d="M 440.326940324483 411.748687426698  C 443.011778925693 409.763953649158  445.664376954946 407.735973133039  448.283695990297 405.665539779053  L 447.663581329611 404.881028588819  C 445.052712004106 406.944782893456  442.408671040033 408.966221309617  439.732493509452 410.94455249766  L 440.326940324483 411.748687426698  Z M 429.696835889634 419.266829110066  C 432.462649901553 417.396588661955  435.198067811695 415.481785764689  437.902018776343 413.523170012925  L 437.315394560703 412.713310747605  C 434.620166321614 414.665608164494  431.893572646835 416.574234063585  429.136680925627 418.438441268353  L 429.696835889634 419.266829110066  Z M 418.760403547563 426.33195630597  C 421.602313701381 424.579508543587  424.415725846443 422.781261235631  427.199538606333 420.93791834834  L 426.647439719944 420.104139708864  C 423.872607313256 421.941536122153  421.068271006612 423.733982430767  418.235528623457 425.480776939417  L 418.760403547563 426.33195630597  Z M 407.531305647517 432.92447322946  C 409.029175605224 432.090926186651  410.519263146508 431.243470459908  412.001375060114 430.382215934041  C 413.40578853992 429.564717031646  414.803752103268 428.736187496596  416.195136098195 427.896704169578  L 415.678536517925 427.040477053875  C 414.291746938888 427.877188367163  412.898400016708 428.702982893241  411.498624955423 429.517784056786  C 410.021978118324 430.375860169413  408.537385660394 431.220189361008  407.0450400525 432.050662168015  L 407.531305647517 432.92447322946  Z M 396.00630275249 438.987123340601  C 398.997570882225 437.502427192502  401.961701116873 435.963671538257  404.89723496005 434.371613520561  L 404.420494116724 433.492569626148  C 401.495575110524 435.078870791013  398.542163116887 436.612062332803  395.561711358295 438.091389846637  L 396.00630275249 438.987123340601  Z M 384.208674937142 444.500506696671  C 387.266519566517 443.158272030621  390.299801266076 441.760760262317  393.307027513547 440.308659035589  L 392.872196649514 439.408146892592  C 389.87584447745 440.8549973477  386.853531069341 442.24745573887  383.80674355052 443.584836908784  L 384.208674937142 444.500506696671  Z M 372.164581459877 449.452398295989  C 375.282222331956 448.255601291945  378.377929703661 447.002432157233  381.450180336252 445.693507512079  L 381.058223615929 444.773523854946  C 377.997082185742 446.077715452392  374.912568835574 447.32635315031  371.806201296179 448.518822558157  L 372.164581459877 449.452398295989  Z M 359.899506483997 453.829733938299  C 360.654377350869 453.580878302041  361.408171855916 453.328769459554  362.160868984247 453.073414439331  C 364.569901013681 452.253479937112  366.967501048805 451.400333515148  369.352983995562 450.514218952859  L 369.004770517151 449.576803690847  C 366.628068230312 450.459656577915  364.239294235423 451.309664818145  361.83913101571 452.126585560449  C 361.089311540191 452.380962824188  360.338399117074 452.632106995213  359.586414672111 452.880011074865  L 359.899506483997 453.829733938299  Z M 347.43932346356 457.614606089073  C 350.656591026746 456.719509947301  353.857381670821 455.766212373491  357.040120450956 454.755182436461  L 356.737368126952 453.802113168092  C 353.566138072352 454.80948723926  350.376921429017 455.759337706386  347.171287446818 456.651197196791  L 347.43932346356 457.614606089073  Z M 334.814779866959 460.80871270564  C 338.070617655412 460.066063413275  341.312736653794 459.264501555582  344.539541581736 458.404421540013  L 344.281991123529 457.438156689427  C 341.066854263511 458.295126671304  337.836458708446 459.093790095902  334.592393970213 459.833753981934  L 334.814779866959 460.80871270564  Z M 322.053868499472 463.404971392988  C 325.341057239674 462.816415650119  328.617315737967 462.168366837347  331.881031915689 461.461143826234  L 331.669254398168 460.483825923465  C 328.417339758778 461.188491629034  325.152928151612 461.834197109089  321.877625826102 462.420624645097  L 322.053868499472 463.404971392988  Z M 309.184884539011 465.397625383492  C 312.49613544197 464.964468213637  315.799268887173 464.471369385195  319.09265957215 463.918571526796  L 318.927124576395 462.932367610164  C 315.645642732224 463.483166561563  312.354453357475 463.974482353611  309.055175877546 464.406073235019  L 309.184884539011 465.397625383492  Z M 296.240554202527 466.803790588697  C 299.566665134342 466.513080163112  302.887862291251 466.168652052412  306.202845512467 465.770641091087  L 306.083637409605 464.777771800489  C 302.77934805424 465.174498810873  299.468864808821 465.517815824544  296.153483639946 465.807588441976  L 296.240554202527 466.803790588697  Z M 283.249010038704 467.664810278607  C 286.58439472804 467.514027466611  289.917125708162 467.309368011203  293.245898303073 467.050912031144  L 293.168488256491 466.053912690779  C 289.850454010825 466.311534912899  286.528474149374 466.515534153575  283.203849139359 466.665830552502  L 283.249010038704 467.664810278607  Z M 270.232769059403 467.979525126968  C 273.571543438001 467.968935929769  276.909928854553 467.904406176525  280.246618419524 467.785961128926  L 280.211142990981 466.786590580045  C 276.885217314759 466.904653533569  273.557601257622 466.968975119085  270.229597493211 466.979530156397  L 270.232769059403 467.979525126968  Z M 257.214793668562 467.747379934356  C 260.551067688281 467.877003032726  263.889218179315 467.95271682083  267.227938344096 467.974491658724  L 267.234460117031 466.974512925712  C 263.906510391548 466.952808331671  260.579128502078 466.87733879008  257.253617030593 466.748133845267  L 257.214793668562 467.747379934356  Z M 450.631963914738 403.790794271391  C 453.23109068798 401.695068502385  455.79618929579 399.557487998459  458.326255569933 397.37888956582  L 457.673744430067 396.62111043418  C 455.151839943632 398.792680885736  452.595016134995 400.92336572907  450.004273933008 403.012330857456  L 450.631963914738 403.790794271391  Z M 252.970665841449 467.553347991013  C 253.384676395514 467.575119619762  253.798730209415 467.596060673985  254.212824783621 467.616171027267  L 254.261332252747 466.617348207424  C 253.849647555327 466.597354888937  253.438003274513 466.57653785282  253.026401882312 466.554897224086  L 252.970665841449 467.553347991013  Z M 257.799194799296 471.960273624171  L 253.405135288201 467.074460160571  L 258.290948751801 462.680400649477  L 257.622250811543 461.936866477637  L 252.364670262023 466.665274958861  L 251.992903176103 466.99962392899  L 252.327252146232 467.37139101491  L 257.055660627456 472.62897156443  L 257.799194799296 471.960273624171  Z " fill-rule="nonzero" fill="#000000" stroke="none" />
  </g>
</svg>