<?xml version="1.0" encoding="utf-8"?>
<svg version="1.1" xmlns:xlink="http://www.w3.org/1999/xlink" width="162px" height="16px" viewBox="236 418  162 16" xmlns="http://www.w3.org/2000/svg">
  <g transform="matrix(-0.819152044288991 -0.573576436351046 0.573576436351047 -0.819152044288992 332.327636154064 956.782501190392 )">
    <path d="M 449.534266047102 269.402620486063  C 450.911105632831 266.362608603571  452.252357677068 263.306604097127  453.557747220559 260.235233453544  L 452.637422452748 259.844078341403  C 451.335081547783 262.908276031198  449.996961896227 265.957143470308  448.623337815193 268.990055635026  L 449.534266047102 269.402620486063  Z M 443.985307300616 281.175105103438  C 445.45390089653 278.178341459011  446.887409426774 275.164511025278  448.285539019335 272.134231643287  L 447.377527094933 271.71528732104  C 445.982662728266 274.738489714776  444.552502048747 277.745281575532  443.087338242077 280.735046505173  L 443.985307300616 281.175105103438  Z M 438.081130281944 292.773511501247  C 439.640121133267 289.822764643923  441.16456180795 286.853892599029  442.654139792716 283.867503991058  L 441.759279575188 283.421157498872  C 440.273180387119 286.400571622171  438.752299928306 289.362510091002  437.196949982178 292.306365702266  L 438.081130281944 292.773511501247  Z M 431.827189543245 304.187124534524  C 433.47513738203 301.285120500901  435.089101852258 298.363949626334  436.668752088102 295.424210756482  L 435.78787029076 294.950874449917  C 434.211909208542 297.883747782031  432.601714030235 300.798096483011  430.95761484896 303.69332310575  L 431.827189543245 304.187124534524  Z M 425.2292627646 315.405399778972  C 426.964645140316 312.554819574772  428.666642350967 309.684048583468  430.334905483845 306.793675318645  L 429.468815906088 306.293786487703  C 427.804448875553 309.177409504423  426.106426550629 312.041476027254  424.375097029169 314.885398917034  L 425.2292627646 315.405399778972  Z M 418.27604996808 326.408853581062  C 419.999913745341 323.781449949687  421.691289302665 321.132873586444  423.349790326377 318.463729431651  C 423.452791068112 318.297688079108  423.555678143579 318.13157624302  423.658451480765 317.965394039653  L 422.807954256255 317.439414504785  C 422.705486035829 317.605103341127  422.602904486506 317.7707220641  422.500209680544 317.936270557039  C 420.846113255393 320.598320290241  419.159230967352 323.239857669379  417.439948073379 325.860279409525  L 418.27604996808 326.408853581062  Z M 410.951193322979 337.168657586465  C 412.87621681351 334.441963573207  414.765418528084 331.690155168159  416.618311671177 328.913941436958  L 415.786549659602 328.358809059861  C 413.938507306105 331.127754790351  412.054251435316 333.872359086704  410.134267568335 336.59191473961  L 410.951193322979 337.168657586465  Z M 403.263987705253 347.672646204928  C 405.280795859824 345.013123588237  407.262658719475 342.327280662455  409.209065612445 339.61580949572  L 408.396700668557 339.032660116966  C 406.455389379907 341.737032776064  404.478714946685 344.415844287764  402.467186703722 347.06840439575  L 403.263987705253 347.672646204928  Z M 395.223359487432 357.908622219395  C 397.329610391208 355.319359233249  399.401833059516 352.702600583834  401.439493537376 350.059020538129  L 400.647468978223 349.448531309969  C 398.615143002409 352.08519058388  396.548345318362 354.695098678716  394.447608483234 357.277583092648  L 395.223359487432 357.908622219395  Z M 386.838645435878 367.864699628679  C 389.03189331322 365.348702921682  391.192069528098 362.804067125146  393.318617462315 360.231447921968  L 392.54785298572 359.594327743651  C 390.426872256844 362.160211947285  388.272351284603 364.698186003563  386.084845230007 367.207595946123  L 386.838645435878 367.864699628679  Z M 378.119581868951 377.529317449466  C 380.397279923451 375.089508593518  382.642901291278 372.619950477417  384.855867337327 370.121279438632  L 384.107257953933 369.458268133226  C 381.900085351889 371.950397765389  379.660342918217 374.413490691159  377.388607773163 376.846912238988  L 378.119581868951 377.529317449466  Z M 369.067571559044 386.883483490695  C 371.429416938507 384.525038646184  373.760248464595 382.135738118137  376.059465545915 379.716197563806  L 375.334563894456 379.027345187958  C 373.041366058421 381.440551495647  370.716636542768 383.823596944085  368.360974366614 386.175867487731  L 369.067571559044 386.883483490695  Z M 359.701582897235 395.922574346131  C 362.142412550907 393.645970234128  364.553297654734 391.3374716674  366.933616989674 388.997673482782  L 366.232606392816 388.284522627008  C 363.858518625139 390.618195326882  361.453945108389 392.92065034981  359.019505435231 395.191294416264  L 359.701582897235 395.922574346131  Z M 350.033057479542 404.637304597459  C 352.550037119418 402.445184807499  355.038176284513 400.220168827453  357.496833849566 397.962829982953  L 356.820528319844 397.226208757039  C 354.368307407979 399.477637991565  351.886682077529 401.69682898144  349.37629177537 403.883209901932  L 350.033057479542 404.637304597459  Z M 340.073222384306 413.017554711966  C 342.663429297104 410.91246473052  345.225933299722 408.773515022626  347.760074105119 406.601256736991  L 347.109258967578 405.842020504487  C 344.581752427038 408.008591917168  342.025956942825 410.141941952451  339.442531073393 412.241520904495  L 340.073222384306 413.017554711966  Z M 329.833642958262 421.05359355481  C 332.494069399291 419.03797780946  335.127962663341 416.987578119148  337.734644068278 414.902922815701  L 337.110075048556 414.121953200668  C 334.510217816446 416.201150971772  331.883219964638 418.246182809363  329.229758398485 420.25652176478  L 329.833642958262 421.05359355481  Z M 319.325661456324 428.735692203335  C 319.622106468719 428.526796896949  319.918285976365 428.317525064766  320.214199262318 428.107877213358  C 322.640556938712 426.386150443259  325.046716476197 424.636134722127  327.432185254535 422.858188335915  L 326.834587601314 422.056392199191  C 324.455463094037 423.829610049901  322.055703712907 425.574972682743  319.635800726859 427.292122794211  C 319.340679329863 427.501209224997  319.045292514928 427.709920771093  318.749640996492 427.918256927699  L 319.325661456324 428.735692203335  Z M 308.574286702512 436.069877784547  C 311.359449693351 434.231338526064  314.12302332352 432.360301011686  316.864441055099 430.457148807709  L 316.294168589322 429.635693200402  C 313.559153231465 431.53440073638  310.802033718441 433.40106858419  308.02337526507 435.235314073321  L 308.574286702512 436.069877784547  Z M 297.604982603503 443.073926957704  C 300.444734716354 441.320881770586  303.26389510638 439.534697209886  306.061885840268 437.715739446881  L 305.516841924975 436.877331950253  C 302.725385686777 438.692041675007  299.912809232569 440.474054736793  297.079689145949 442.223005819494  L 297.604982603503 443.073926957704  Z M 286.427883110422 449.741369057814  C 289.319600850772 448.07543748639  292.191743529729 446.375756039386  295.043722352507 444.642673154772  L 294.524410524509 443.788088328496  C 291.679092282518 445.517123729141  288.813657275507 447.212835698709  285.92869292318 448.874876612975  L 286.427883110422 449.741369057814  Z M 275.053314145405 456.066044393088  C 277.994326010487 454.488765502097  280.916797559955 452.877157413222  283.82012968151 451.231550509229  L 283.327029705123 450.361577858345  C 280.430478096101 452.003341571904  277.514831757848 453.611185872007  274.580688403489 455.18478114747  L 275.053314145405 456.066044393088  Z M 263.491784062032 462.04210993555  C 266.479373008883 460.554940888275  269.449473514302 459.032895035719  272.401476701963 457.476284400215  L 271.935044125782 456.591727645745  C 268.989935118247 458.144702934868  266.026771057866 459.66319416448  263.046159398988 461.14689004095  L 263.491784062032 462.04210993555  Z M 454.722880136333 257.466933615607  C 456.006693723705 254.386481998814  457.254450171182 251.291126698149  458.465893686289 248.181502267414  L 457.534106313711 247.818497732586  C 456.325492033288 250.920859870707  455.0806496266 254.008986203235  453.799834288741 257.082243658314  L 454.722880136333 257.466933615607  Z M 253.117006402968 467.033593594134  C 255.689510199175 465.838238013152  258.250071982178 464.617348422195  260.798312494298 463.371105653359  L 260.358978230338 462.472781989799  C 257.817388280734 463.715772233843  255.263512580369 464.933482432818  252.697729188524 466.125732324764  L 253.117006402968 467.033593594134  Z M 259.448628601136 468.659188569504  L 253.275783860499 466.406430261089  L 255.528542168914 460.233585520453  L 254.589144658894 459.890755652779  L 252.164971416643 466.533299148426  L 251.993556482806 467.002997903435  L 252.463255237816 467.174412837272  L 259.105798733462 469.598586079523  L 259.448628601136 468.659188569504  Z " fill-rule="nonzero" fill="#000000" stroke="none" />
  </g>
</svg>