<?xml version="1.0" encoding="utf-8"?>
<svg version="1.1" xmlns:xlink="http://www.w3.org/1999/xlink" width="118px" height="12px" viewBox="248 464  118 12" xmlns="http://www.w3.org/2000/svg">
  <g transform="matrix(-0.994521895368273 0.104528463267653 -0.104528463267651 -0.994521895368272 661.446599613856 905.335052599918 )">
    <path d="M 439.367491333486 517.547475632156  C 442.096023314121 519.452871568935  444.793325758139 521.402602404487  447.458324499954 523.395891683887  L 448.057274018331 522.595104899259  C 445.383576070173 520.595309037146  442.677468972634 518.639213804266  439.940030397658 516.727598190097  L 439.367491333486 517.547475632156  Z M 428.572250126705 510.344194186383  C 431.379033687993 512.132317919602  434.156493466778 513.966059445252  436.903523375839 515.844688499627  L 437.468019447211 515.019252744764  C 434.712022562052 513.134491386634  431.925496476647 511.294764081078  429.109550888757 509.500803475562  L 428.572250126705 510.344194186383  Z M 417.481612424955 503.604590958586  C 420.361610480157 505.272233500396  423.214243131764 506.98669486206  426.038374355939 508.747292281648  L 426.567403929026 507.898688893251  C 423.734054051243 506.132344453972  420.872109710411 504.41228667197  417.982710638629 502.739200537878  L 417.481612424955 503.604590958586  Z M 406.111907770243 497.350633872962  C 407.770284853959 498.213033692413  409.419767430942 499.092430778301  411.060094905362 499.988686197836  C 412.339236460716 500.688831454837  413.613362689921 501.398100834326  414.882376164288 502.116440100558  L 415.374989836405 501.246191992233  C 414.101725983676 500.525446751805  412.823331817884 499.813802549224  411.539905110598 499.111313811028  C 409.893465697998 498.211715997437  408.237836435516 497.329040453772  406.573278924662 496.463426649215  L 406.111907770243 497.350633872962  Z M 394.461457097582 491.639378800148  C 397.483053151588 493.032621310808  400.478943955518 494.480949019541  403.447629917528 495.983636966539  L 403.899248802404 495.091426014565  C 400.919696321477 493.58323765856  397.912839418568 492.129608519953  394.880183174599 490.73126621218  L 394.461457097582 491.639378800148  Z M 382.552974754758 486.487730163695  C 385.637314364243 487.735935507559  388.698593168127 489.040384412594  391.735278844629 490.400423937466  L 392.144026073112 489.487776303816  C 389.096224972893 488.122758517378  386.023740725098 486.813534833574  382.92811126039 485.560760583751  L 382.552974754758 486.487730163695  Z M 370.413321953725 481.907308212258  C 373.553447968516 483.007660891319  376.673209638984 484.165288629599  379.771045369775 485.379611977034  L 380.135998956542 484.448586263368  C 377.026823969594 483.229818030959  373.895642785697 482.067952935182  370.744022716236 480.963572547109  L 370.413321953725 481.907308212258  Z M 358.069395096439 477.911750223312  C 359.132097743583 478.227203195591  360.192870549358 478.549121368245  361.251654569923 478.877486853283  C 363.370007902808 479.536771075479  365.480251749458 480.221835017718  367.58191645923 480.932526213867  L 367.902253201511 479.985222476122  C 365.792738601769 479.271876790099  363.67461218626 478.584255994393  361.54834543014 477.922513146972  C 360.485528165798 477.592894701288  359.420714231563 477.269749092342  358.35396281347 476.953094281681  L 358.069395096439 477.911750223312  Z M 345.546632312865 474.515892798571  C 348.777762326328 475.310226634682  351.994111051705 476.163523615644  355.194068547035 477.075356624022  L 355.468111476081 476.113639163933  C 352.256440920123 475.198468500188  349.028319135986 474.342048127966  345.785361958631 473.544806728116  L 345.546632312865 474.515892798571  Z M 332.876757102824 471.718447974302  C 336.141958080151 472.358471399462  339.395194019126 473.058093287568  342.634836513909 473.816963443185  L 342.862907880376 472.84331902565  C 339.611407062785 472.081671116842  336.346263043828 471.379488346724  333.069110189933 470.737122192576  L 332.876757102824 471.718447974302  Z M 320.088348104104 469.525725770218  C 323.38025493755 470.009995123987  326.66303997116 470.554363826303  329.935060008306 471.15855939365  L 330.11664536601 470.175184206924  C 326.832648491944 469.568777054167  323.537847217436 469.022415755504  320.233890753837 468.536373791846  L 320.088348104104 469.525725770218  Z M 307.210359507804 467.943247210057  C 307.556659240512 467.977375059697  307.90290057402 468.012092918487  308.249082000633 468.047400635248  C 311.212758089351 468.351902015723  314.171254894614 468.704862643824  317.12338511448 469.106140869631  L 317.25807487279 468.115253051053  C 314.295015721853 467.712489273545  311.325566159021 467.358223982411  308.350917980763 467.052599362967  C 308.003483105976 467.017163379319  307.655988085316 466.982319599849  307.308434433131 466.948068176404  L 307.210359507804 467.943247210057  Z M 294.271016716013 466.944295551501  C 297.593800021443 467.130122219131  300.913334697461 467.370081257977  304.228298782594 467.664077107475  L 304.316639533875 466.66798679447  C 300.990854596876 466.373031270763  297.660484149468 466.132288947047  294.32685446833 465.945855695818  L 294.271016716013 466.944295551501  Z M 281.30097551937 466.494264822591  C 284.628647654442 466.539193729603  287.955366762602 466.638344024888  291.279808021251 466.791676223129  L 291.325881738316 465.792738180708  C 287.990588691996 465.638905468748  284.653010360704 465.539431522699  281.314475891591 465.494355956769  L 281.30097551937 466.494264822591  Z M 268.323512106127 466.59396265376  C 271.65010119135 466.497913170209  274.978034562466 466.456076785647  278.305986913307 466.468470160869  L 278.309710911724 465.468477094975  C 274.970895312148 465.456043264752  271.632098754252 465.498016213484  268.294650870325 465.594379225992  L 268.323512106127 466.59396265376  Z M 255.361915984535 467.243210126108  C 258.68145208407 467.006354623526  262.004627369829 466.823606639184  265.330118430491 466.69503895009  L 265.291486027127 465.695785460023  C 261.955139751983 465.824772825434  258.621116810995 466.008117343801  255.290744935424 466.245746000553  L 255.361915984535 467.243210126108  Z M 449.847962778648 525.201508202425  C 452.493346523087 527.220756896835  455.105651021707 529.282978032443  457.683835958229 531.387350356513  L 458.316164041771 530.612649643487  C 455.72956328035 528.50140813453  453.108731582261 526.432455405808  450.454712659612 524.406615390814  L 449.847962778648 525.201508202425  Z M 258.402526937558 471.152423817564  L 253.402686950732 466.888560276798  L 257.666550491497 461.888720289972  L 256.905663504789 461.239835867707  L 252.317357752891 466.620119347888  L 251.992915541759 467.000562841242  L 252.373359035113 467.325005052374  L 257.753642515293 471.913310804272  L 258.402526937558 471.152423817564  Z " fill-rule="nonzero" fill="#000000" stroke="none" />
  </g>
</svg>