<?xml version="1.0" encoding="utf-8"?>
<svg version="1.1" xmlns:xlink="http://www.w3.org/1999/xlink" width="148px" height="14px" viewBox="344 584  148 14" xmlns="http://www.w3.org/2000/svg">
  <g transform="matrix(-0.601815023152047 0.798635510047296 -0.798635510047294 -0.601815023152051 1141.55226611551 612.843035483093 )">
    <path d="M 446.67790018434 628.994218256176  C 448.339771165729 631.87886732155  449.964687222518 634.78464936851  451.552249837518 637.710851742339  L 452.431222544839 637.233979663282  C 450.839594646468 634.300284141316  449.21051765507 631.387061236697  447.544391108325 628.495025429052  L 446.67790018434 628.994218256176  Z M 440.010890894781 617.854041830313  C 441.767730686411 620.681855355935  443.488338446379 623.532018585012  445.172292188722 626.403832503565  L 446.034927691136 625.898006456417  C 444.346661835948 623.018838662647  442.621648102916 620.161376999431  440.860309558592 617.326322270726  L 440.010890894781 617.854041830313  Z M 432.977260830705 606.941636422332  C 434.827127709057 609.709489005386  436.64152549365 612.500883312056  438.42000919614 615.315134741677  L 439.265354077376 614.780913783863  C 437.482316198465 611.959455879712  435.663272272005 609.160913628932  433.808668425803 606.385973385219  L 432.977260830705 606.941636422332  Z M 425.584783817015 596.269062821345  C 427.525633241634 598.973895330041  429.431815712136 601.70343556334  431.302863729613 604.457014090537  L 432.129983683626 603.894988662576  C 430.254144459604 601.134359026407  428.343080813499 598.39782923917  426.397261441352 595.686070445794  L 425.584783817015 596.269062821345  Z M 417.839070253362 585.851156924257  C 418.480258228897 586.681813356505  419.117688764167 587.515363407036  419.751342329117 588.351781536941  C 421.126464565687 590.169743166056  422.48564319053 591.999709907317  423.828721918318 593.841471341762  L 424.636702781917 593.25226261469  C 423.290111719517 591.405684722133  421.92737778169 589.570933011452  420.548657679556 587.748218474672  C 419.913110641065 586.909299115726  419.27377489127 586.073256746218  418.630670023215 585.240116987454  L 417.839070253362 585.851156924257  Z M 409.717283474792 575.725306047841  C 411.847976789303 578.282609588669  413.941898150944 580.870328142242  415.998402075276 583.487664003312  L 416.784716656245 582.869837668688  C 414.722307804666 580.244986539761  412.622374077495 577.649837759762  410.485562812583 575.085191324433  L 409.717283474792 575.725306047841  Z M 401.223795062449 565.90914941516  C 403.448307121039 568.385275724866  405.637206193167 570.893166239478  407.789817516007 573.432047862006  L 408.552562438753 572.785348408761  C 406.393770231401 570.239176787371  404.1985860802 567.724085259979  401.967686685456 565.24084914341  L 401.223795062449 565.90914941516  Z M 392.370404049552 556.4163234913  C 394.685644591727 558.807832770453  396.966480586909 561.2324113203  399.212208931243 563.689311726067  L 399.950324601372 563.014637539879  C 397.69814800166 560.550682531405  395.410762945005 558.119142185969  393.088874554119 555.720766064435  L 392.370404049552 556.4163234913  Z M 383.169409440892 547.260015574931  C 385.572162167445 549.563585572879  387.941766580772 551.901483967942  390.277492212748 554.272990065875  L 390.989953250478 553.57127839452  C 388.647520950082 551.192962890191  386.271112590743 548.848351587957  383.86146073802 546.538167251429  L 383.169409440892 547.260015574931  Z M 373.633593127229 538.452945478695  C 376.120520168268 540.665376108783  378.575601179015 542.913346573883  380.998079341828 545.196163901463  L 381.683896006425 544.468389552808  C 379.254462078958 542.179017474673  376.792331689607 539.924592316294  374.298263829105 537.705809039972  L 373.633593127229 538.452945478695  Z M 363.768869288391 530.01670497041  C 366.338616985498 532.132373227395  368.877901618324 534.284773639676  371.385940412125 536.473242695705  L 372.043412444796 535.719763746924  C 369.528172212455 533.525010846546  366.981596423588 531.366430155352  364.40447010054 529.244687090051  L 363.768869288391 530.01670497041  Z M 353.595590209625 521.954405718118  C 356.242394011128 523.972842003156  358.86012474292 526.029120145121  361.447975448005 528.122606263679  L 362.076912178887 527.345149777085  C 359.481630867925 525.245652542729  356.856383734469 523.183470121817  354.201980052554 521.159238214762  L 353.595590209625 521.954405718118  Z M 343.128933339432 514.276816877239  C 345.849116343162 516.195217207371  348.541656659638 518.152516526687  351.205724270642 520.148111466657  L 351.805251989781 519.347757473736  C 349.133534928057 517.346432497078  346.433263405966 515.383513100917  343.705269825001 513.459604386265  L 343.128933339432 514.276816877239  Z M 332.383438808571 506.994604044921  C 335.173222175007 508.810303405708  337.936831637493 510.665904850026  340.6734152696 512.560836359313  L 341.24270112162 511.738696700442  C 338.498259820452 509.838324193657  335.726715088494 507.977394681935  332.928921298336 506.156481826291  L 332.383438808571 506.994604044921  Z M 321.374034105111 500.117883567587  C 324.229542306909 501.828359615321  327.060381748465 503.579685409519  329.865679778644 505.371321076243  L 330.403932919743 504.528537856135  C 327.59057991793 502.731757789665  324.751612166595 500.97540333917  321.88790482256 499.260015928759  L 321.374034105111 500.117883567587  Z M 310.117033110369 493.652632460391  C 312.390582286213 494.90677806635  314.651566846655 496.183567466613  316.899649463638 497.482810170323  C 317.533438943751 497.84972816742  318.166069519538 498.218644342372  318.7975317501 498.589553189756  L 319.304004446675 497.727297190864  C 318.67062207715 497.355260490547  318.036067611929 496.98522285976  317.400350523937 496.617189822598  C 315.146405042527 495.314555913516  312.879523327792 494.034434939303  310.600043619869 492.777017906085  L 310.117033110369 493.652632460391  Z M 298.646456743809 487.571643931761  C 301.613319211234 489.081856661321  304.560748788805 490.629945929196  307.488022607577 492.215532060276  L 307.964300990368 491.336237512308  C 305.029531279795 489.746591159051  302.074554197438 488.194537687502  299.100094463265 486.680457744993  L 298.646456743809 487.571643931761  Z M 286.980084100167 481.875303614847  C 289.995507258371 483.286061767796  292.992767300935 484.735321486858  295.971129137795 486.222727335266  L 296.417916125993 485.328086967757  C 293.431927575871 483.836872308153  290.426992427266 482.38390145897  287.403847652601 480.969530767148  L 286.980084100167 481.875303614847  Z M 275.130809280691 476.569907313066  C 278.191460373837 477.879651667956  281.235238200098 479.228480063419  284.261396260737 480.616061693873  L 284.678198049041 479.70706429604  C 281.644290882989 478.315929475003  278.592718832266 476.963647124661  275.524230307142 475.650548897677  L 275.130809280691 476.569907313066  Z M 263.111728536793 471.661318744231  C 266.214224821481 472.868601723752  269.30115633699 474.115508021197  272.371766000966 475.401731827788  L 272.758121924811 474.479382056764  C 269.679649327872 473.189864607322  266.58481308393 471.93976534767  263.474372213972 470.72939086966  L 263.111728536793 471.661318744231  Z M 452.970920077154 640.349853169957  C 454.53598548778 643.288149555553  456.063413924802 646.246338843922  457.552830780259 649.223695527261  L 458.447169219741 648.776304472739  C 456.953938403487 645.791323650043  455.422598669127 642.825559304403  453.853525583888 639.879738801444  L 452.970920077154 640.349853169957  Z M 252.77534762073 467.806297633387  C 255.298156794136 468.706814137777  257.811633696144 469.633264231887  260.3153792122 470.585500804872  L 260.670862256907 469.650818075318  C 258.159907543657 468.695839665679  255.639190343439 467.766730211314  253.109111174902 466.863637339124  L 252.77534762073 467.806297633387  Z M 256.137533082944 473.41215991179  L 253.325088412443 467.473381656669  L 259.263866667564 464.660936986168  L 258.835862460178 463.757160244677  L 252.445195834311 466.783607018872  L 251.993307463566 466.997609122565  L 252.207309567259 467.44949749331  L 255.233756341454 473.840164119177  L 256.137533082944 473.41215991179  Z " fill-rule="nonzero" fill="#000000" stroke="none" />
  </g>
</svg>