<?xml version="1.0" encoding="utf-8"?>
<svg version="1.1" xmlns:xlink="http://www.w3.org/1999/xlink" width="118px" height="12px" viewBox="248 458  118 12" xmlns="http://www.w3.org/2000/svg">
  <g transform="matrix(-0.990268068741571 -0.139173100960064 0.139173100960064 -0.990268068741565 546.435978258193 966.210525890826 )">
    <path d="M 440.522654275757 411.980038388436  C 443.180775392317 409.95970366333  445.806230986565 407.896748282613  448.398002492438 405.791972585984  L 447.767597270814 405.015706358103  C 445.184149038103 407.113722730838  442.567124890851 409.170053090364  439.91754012408 411.183899667206  L 440.522654275757 411.980038388436  Z M 429.994514621928 419.640169759288  C 432.734769114331 417.732719736703  435.444168329324 415.781320783658  438.121661134275 413.786729960649  L 437.52425758584 412.984789189572  C 434.855363341356 414.97297453886  432.15466515178 416.918106725532  429.423210774136 418.819431120318  L 429.994514621928 419.640169759288  Z M 419.1553581802 426.853492490249  C 421.972955281788 425.062261950949  424.761561294929 423.225831041924  427.520094358094 421.344912220917  L 426.956736919052 420.51869893376  C 424.207062670857 422.393577329864  421.427412049622 424.224110683472  418.618863442583 426.009588824829  L 419.1553581802 426.853492490249  Z M 408.018816756972 433.600931563584  C 409.430419296686 432.789288738142  410.834858416002 431.965250483291  412.231971270045 431.128912346358  C 413.69925188958 430.249090571954  415.159256648121 429.35719131936  416.611836804656 428.453305452661  L 416.083510388648 427.604264112001  C 414.635700117047 428.505181859139  413.180490158903 429.394153220808  411.718028745236 430.271087644351  C 410.326050137868 431.104349789613  408.926772765203 431.92535818912  407.520358848875 432.734017661367  L 408.018816756972 433.600931563584  Z M 396.580611166464 439.825591596625  C 399.550440236752 438.298523820136  402.492492375824 436.718029344915  405.405332951268 435.08487886723  L 404.916282895062 434.212623146398  C 402.013927776866 435.839894713422  399.08246624896 437.414699825692  396.123327779461 438.936270561244  L 396.580611166464 439.825591596625  Z M 384.863261768769 445.507375009425  C 387.901392021432 444.121162446878  390.914279638605 442.680280154144  393.90045544638 441.185430748427  L 393.45281991256 440.29121465102  C 390.477393549513 441.780682993431  387.475351532532 443.216378490222  384.448157746885 444.597601053425  L 384.863261768769 445.507375009425  Z M 372.892516511217 450.633796532911  C 375.992271895635 449.391485276628  379.069374408978 448.093381391108  382.12232356424 446.74011787054  L 381.717086196442 445.825906365614  C 378.675126852334 447.174298494691  375.60910109586 448.467729548849  372.520504012667 449.705568812509  L 372.892516511217 450.633796532911  Z M 360.693595519183 455.191997383439  C 361.285431126421 454.987092504186  361.876572096632 454.78018674823  362.467008289062 454.571283664946  C 365.023984521097 453.663744750407  367.567527637331 452.718793544939  370.096818816876 451.73673424853  L 369.734870092122 450.804536243464  C 367.214837630838 451.783000615566  364.680606262574 452.724494996067  362.132991710897 453.628716334834  C 361.544836229829 453.836811291965  360.955978882669 454.042917163585  360.366429765696 454.247030415897  L 360.693595519183 455.191997383439  Z M 348.291524534761 459.162837968882  C 351.494913332303 458.219375774361  354.681029567688 457.218227978156  357.848319595563 456.159882769807  L 357.531396084411 455.211431670341  C 354.375507464652 456.265967115283  351.200860406762 457.263511043667  348.009002963378 458.203577023308  L 348.291524534761 459.162837968882  Z M 335.716991245147 462.548107855619  C 338.961074648437 461.755805152601  342.190607832314 460.90507077016  345.404015980026 459.996319551767  L 345.131888677303 459.034058292486  C 341.930047950766 459.939538246351  338.71214023394 460.78721020956  335.479734674648 461.576660831971  L 335.716991245147 462.548107855619  Z M 322.99762719139 465.340368181173  C 326.275276584068 464.700965992101  329.541130073032 464.002514444854  332.793595130666 463.245354125251  L 332.56686201457 462.271397199065  C 329.326104972682 463.025831941364  326.072007694273 463.721769247393  322.8061569743 464.35886975735  L 322.99762719139 465.340368181173  Z M 310.161382168675 467.533483174617  C 313.465395175777 467.048386535162  316.760392515429 466.50375261507  320.044767448604 465.899846994094  L 319.863926747201 464.916334594215  C 316.591374696898 465.518066314352  313.308238477978 466.060739696083  310.01611904563 466.544090115674  L 310.161382168675 467.533483174617  Z M 297.240462388134 469.140965527121  C 300.561608817701 468.798406531947  303.877030988093 468.402454751778  307.185442655332 467.953263799205  L 307.050904650897 466.962355364806  C 303.753117691111 467.410103775476  300.448342741857 467.804783987216  297.137861916446 468.146242880747  L 297.240462388134 469.140965527121  Z M 284.264117006142 470.205764905643  C 287.596680415821 470.002340737366  290.92575657282 469.745331163413  294.250053935965 469.434835892662  L 294.15705692907 468.439169504403  C 290.843435289055 468.748667643676  287.525050201921 469.004851851317  284.20318906114 469.207622738656  L 284.264117006142 470.205764905643  Z M 271.2546025604 470.727177482479  C 274.592756654242 470.663243786067  277.929666598624 470.545625746269  281.264037813193 470.374368993924  L 281.212744389818 469.375685367985  C 277.889081249775 469.546392142553  274.562887532851 469.66363246114  271.235453661959 469.727360839445  L 271.2546025604 470.727177482479  Z M 258.234663488765 470.704291675879  C 261.572572196664 470.77996022614  264.911482033461 470.801939351245  268.250097642929 470.77022052422  L 268.240597478986 469.770265651796  C 264.912703574586 469.801882616268  261.584516387754 469.779974075419  258.257327114762 469.704548528837  L 258.234663488765 470.704291675879  Z M 450.721370873022 403.886490528695  C 453.29271144026 401.756803237319  455.829633349167 399.585898078564  458.331152381014 397.374617272091  L 457.668847618986 396.625382727909  C 455.175362021477 398.829562177592  452.64658724051 400.993495642812  450.083504334056 403.116343608642  L 450.721370873022 403.886490528695  Z M 252.97777533809 470.540692906324  C 253.728745208275 470.570413795242  254.479820217872 470.597415809839  255.23098560049 470.621698419249  L 255.263295305046 469.622220514044  C 254.515612150547 469.598050473168  253.768018818087 469.571177501358  253.02052996363 469.541602125436  L 252.97777533809 470.540692906324  Z M 257.863172872385 474.884483454303  L 253.405984353823 470.056191551556  L 258.23427625657 465.599003032994  L 257.555971200805 464.864222622719  L 252.360289092921 469.660563669163  L 251.992898887783 469.999716197046  L 252.332051415666 470.367106402183  L 257.12839246211 475.562788510068  L 257.863172872385 474.884483454303  Z " fill-rule="nonzero" fill="#000000" stroke="none" />
  </g>
</svg>