<?xml version="1.0" encoding="utf-8"?>
<svg version="1.1" xmlns:xlink="http://www.w3.org/1999/xlink" width="162px" height="14px" viewBox="236 420  162 14" xmlns="http://www.w3.org/2000/svg">
  <g transform="matrix(-0.809016994374947 -0.587785252292472 0.587785252292473 -0.809016994374945 322.474084487972 958.778181574815 )">
    <path d="M 449.683922273337 269.461151683657  C 451.038898763027 266.411363777746  452.358432923759 263.345952342853  453.642258150179 260.265536730203  L 452.719215137587 259.880839970528  C 451.438366510398 262.954113518544  450.121891741472 266.012417676563  448.770056818014 269.055134529381  L 449.683922273337 269.461151683657  Z M 444.220931619609 281.273661794886  C 445.667307653656 278.266143893552  447.078728878188 275.241940230876  448.454910122545 272.201661832211  L 447.543894180185 271.78929069747  C 446.170903666117 274.822520091208  444.762754877159 277.83971201885  443.319732322778 280.840256871757  L 444.220931619609 281.273661794886  Z M 438.404027924174 292.915967984325  C 439.940486546166 289.953458497147  441.4425097052 286.973216208989  442.909793924943 283.975843263024  L 442.011634552377 283.536173225982  C 440.547752288754 286.526596644991  439.049211629433 289.499929124304  437.516315347131 292.455569916824  L 438.404027924174 292.915967984325  Z M 432.238507602644 304.377469682418  C 433.863649834042 301.462666037842  435.454907303267 298.529098698741  437.011958504636 295.577360377849  L 436.127473495241 295.110791767507  C 434.574032378266 298.055686367115  432.986464302008 300.982452115073  431.365090026733 303.890497672863  L 432.238507602644 304.377469682418  Z M 425.729984493542 315.647730945978  C 427.44233060748 312.783287135255  429.121373512832 309.89906582121  430.766773967304 306.995649746457  L 429.896768663657 306.502607383545  C 428.255183134794 309.399291774039  426.580033156392 312.27682590764  424.871657184205 315.13462839283  L 425.729984493542 315.647730945978  Z M 418.868649928667 326.708489916182  C 420.466658962872 324.227411352387  422.036069678796 321.728029400276  423.576570480767 319.210840294894  C 423.778133060238 318.880935682476  423.979251977601 318.55076020952  424.17992668745 318.220314771414  L 423.325193248044 317.70124758158  C 423.125048052784 318.030821082806  422.924459964241 318.360125417705  422.723429526067 318.689159693767  C 421.186994700095 321.199699511103  419.621727537439 323.692479925474  418.027938784971 326.167006054128  L 418.868649928667 326.708489916182  Z M 411.636446214973 337.530650628468  C 413.537646890193 334.787332206753  415.403070369753 332.019391035751  417.232242918069 329.227530050877  L 416.39578484403 328.679499129875  C 414.571366368637 331.464103986439  412.710791179234 334.224851197419  410.814531780144 336.961039654364  L 411.636446214973 337.530650628468  Z M 404.042322544531 348.101990123393  C 406.035227751268 345.424549403724  407.993209096774 342.721289864783  409.915769339836 339.992898015695  L 409.098326994505 339.416887588654  C 407.180763541714 342.138188267571  405.227871046965 344.834421955942  403.240145459117 347.504903928915  L 404.042322544531 348.101990123393  Z M 396.094970017467 358.410410024108  C 398.177298973967 355.801911205381  400.225597372305 353.166427045765  402.239345034704 350.504626842414  L 401.441853940543 349.901296124869  C 399.433340067184 352.556178231682  397.390365256263 355.184812690922  395.313448333591 357.786531944968  L 396.094970017467 358.410410024108  Z M 387.803483986914 368.444112852279  C 389.972853570353 365.907541232785  392.109124844994 363.342848634175  394.211755291815 360.750686375658  L 393.435128138062 360.120725849868  C 391.337962489241 362.706151002895  389.207243446085 365.264177890477  387.043512117612 367.794156886178  L 387.803483986914 368.444112852279  Z M 379.177353649835 378.191615529716  C 381.431281123683 375.72987409061  383.653080417478 373.238908217237  385.842187291842 370.719350505457  L 385.087312889985 370.063481130185  C 382.903895568378 372.576490437821  380.6878707959 375.060982218068  378.439801345442 377.516325519213  L 379.177353649835 378.191615529716  Z M 370.218472873515 387.634837052433  C 372.556743880237 385.253062783217  374.863923688463 382.840963196397  377.139426375914 380.399150859263  L 376.407844948418 379.717396787076  C 374.138256358968 382.152862782568  371.837072978512 384.558693252046  369.504879206488 386.934277220313  L 370.218472873515 387.634837052433  Z M 360.94397296411 396.767612340884  C 363.361469208057 394.466292745331  365.748917795243 392.133613528686  368.105712418648 389.770167088958  L 367.397609877805 389.064057471652  C 365.046940632524 391.421361244991  362.665697094 393.747977760168  360.254483993464 396.043316158816  L 360.94397296411 396.767612340884  Z M 351.365865029514 405.581452674823  C 353.859819805426 403.363221499745  356.324804854374 401.112632289631  358.760194178486 398.830256595232  L 358.076380912741 398.100599540451  C 355.647321236674 400.377043273702  353.188742755929 402.621783136665  350.701269841383 404.834249064076  L 351.365865029514 405.581452674823  Z M 341.495110742026 414.066271048538  C 344.062669841621 411.93366695015  346.602370298476 409.767743434955  349.113567140285 407.569050552339  L 348.454825740208 406.816681116606  C 345.950155572403 409.009659532144  343.41705587127 411.169953748814  340.856169932834 413.297015146806  L 341.495110742026 414.066271048538  Z M 331.343006693264 422.212357005733  C 333.981231671743 420.16782064428  336.592740974547 418.08904161668  339.176871393079 415.976547841448  L 338.543955755723 415.202327074489  C 335.966541567693 417.309330416642  333.361819653901 419.382706636789  330.730451499266 421.421929188468  L 331.343006693264 422.212357005733  Z M 320.921171465777 430.010387752661  C 323.627043004727 428.056258999206  326.307372409839 426.067003519306  328.961478995237 424.04312649643  L 328.355113461344 423.247940455741  C 325.707904976552 425.266557363068  323.034541825908 427.250642709831  320.335702926192 429.199692625529  L 320.921171465777 430.010387752661  Z M 310.24968123326 437.460931567703  C 313.014584181245 435.592113961051  315.757703990972 433.691269049995  318.478486428684 431.758780890822  L 317.899418563649 430.943501547478  C 315.184944366931 432.871509156917  312.448184588267 434.767946884358  309.689692176413 436.632431563955  L 310.24968123326 437.460931567703  Z M 299.358359584157 444.585450831933  C 302.178388649145 442.800905054618  304.977610801925 440.983689325602  307.755460473543 439.13417080431  L 307.201254365535 438.301791329643  C 304.429845247535 440.147021669567  301.637113201304 441.960024112513  298.823622484516 443.74043235032  L 299.358359584157 444.585450831933  Z M 288.257039509497 451.378120013526  C 291.129626994524 449.679470932764  293.982402738535 447.947538999695  296.814790352337 446.182674142577  L 296.285950617907 445.333952435957  C 293.460130006079 447.094725384558  290.613968534736 448.822641765381  287.748041256663 450.517352461505  L 288.257039509497 451.378120013526  Z M 276.955828999374 457.832754241465  C 279.878359351907 456.221548513686  282.782091173631 454.576477337745  285.66643777993 452.897873092117  L 285.163445939001 452.033581932866  C 282.285786803649 453.708294268591  279.388787398248 455.349551282371  276.473033047177 456.957021366358  L 276.955828999374 457.832754241465  Z M 265.465018048409 463.94347643281  C 268.434830241864 462.421181095396  271.386874231181 460.864468549182  274.320553570511 459.27365332022  L 273.843867607946 458.394579663981  C 270.916990119436 459.981706525328  267.971790560115 461.534809772328  265.008863992921 463.053575608188  L 265.465018048409 463.94347643281  Z M 253.795069286494 469.704722643907  C 256.809459243148 468.272723779424  259.807127500688 466.805787283102  262.787468395066 465.304209542205  L 262.33752234366 464.411153804401  C 259.364091486751 465.909250078305  256.373373440865 467.372785424715  253.365972465768 468.801464143563  L 253.795069286494 469.704722643907  Z M 454.788025715169 257.489193194517  C 456.050368925345 254.399912181332  457.276814558102 251.296084097127  458.46711481618 248.178336054978  L 457.53288518382 247.821663945022  C 456.345344683662 250.932183365825  455.121742613295 254.028815102659  453.862326195456 257.110933496424  L 454.788025715169 257.489193194517  Z M 259.459717997588 471.608596327015  L 253.27172590389 469.397785155417  L 255.482537075488 463.209793061719  L 254.540834406931 462.873346804444  L 252.161800106697 469.532190232421  L 251.99357697806 470.003041566699  L 252.464428312338 470.171264695336  L 259.123271740314 472.550298995571  L 259.459717997588 471.608596327015  Z " fill-rule="nonzero" fill="#000000" stroke="none" />
  </g>
</svg>