<?xml version="1.0" encoding="utf-8"?>
<svg version="1.1" xmlns:xlink="http://www.w3.org/1999/xlink" width="114px" height="12px" viewBox="352 480  114 12" xmlns="http://www.w3.org/2000/svg">
  <g transform="matrix(-0.927183854566787 0.374606593415912 -0.374606593415914 -0.927183854566787 970.27700091795 783.39725661235 )">
    <path d="M 437.892649198442 496.873695900594  C 440.831148779081 498.435615820398  443.743232165033 500.046734392579  446.627669574168 501.706371236611  L 447.126385781181 500.839605902243  C 444.232252041771 499.174390019842  441.31037939078 497.55785550841  438.362001744369 495.990685035638  L 437.892649198442 496.873695900594  Z M 426.303550776793 491.034226565247  C 429.307375331853 492.466501561097  432.286954561124 493.949080502269  435.241030178788 495.481337290944  L 435.701469037183 494.59364587064  C 432.737462993314 493.056238244635  429.747867604842 491.568675463277  426.733945387455 490.131585729082  L 426.303550776793 491.034226565247  Z M 414.470799096513 485.705756614316  C 417.534232178173 487.005660985984  420.575636943189 488.356878864678  423.593728996599 489.758839626766  L 424.015014265218 488.851911447446  C 420.986776587832 487.445237851398  417.935147830777 486.089477716115  414.861416706653 484.785203583444  L 414.470799096513 485.705756614316  Z M 402.412893728682 480.91407297001  C 404.674903249626 481.750000700547  406.925409205137 482.616733538403  409.163783995682 483.514029777431  C 410.013422649963 483.855358719449  410.861480856813 484.200608633541  411.707931499704 484.549768480395  L 412.089261448884 483.625329477616  C 411.239850636779 483.27494856461  410.3888264215 482.928491788341  409.536216021739 482.585970229693  C 407.289289535225 481.685242228769  405.030184867767 480.815195972118  402.759532081451 479.976074114793  L 402.412893728682 480.91407297001  Z M 390.136723459608 476.71564253809  C 393.310252982204 477.714996520684  396.464700860523 478.773965595055  399.598392719964 479.891987662542  L 399.93442159983 478.950135980007  C 396.788917053608 477.82789944438  393.62257824713 476.764938506561  390.43708586669 475.761817384086  L 390.136723459608 476.71564253809  Z M 377.669962128908 473.122449460846  C 380.888557414156 473.965445548103  384.091008624076 474.868918384177  387.275615904022 475.83238840751  L 387.565193151323 474.875233760733  C 384.368581255096 473.908131864799  381.154058164851 473.001253320022  377.923330142984 472.155079495713  L 377.669962128908 473.122449460846  Z M 365.042429417883 470.14308842214  C 368.298391795438 470.827710222309  371.541186282217 471.573525771901  374.76909160942 472.380139193518  L 375.011524574237 471.409971034089  C 371.771451415512 470.600317022608  368.516432971397 469.851690065296  365.248196999162 469.164487531841  L 365.042429417883 470.14308842214  Z M 352.283722049718 467.791153207991  C 354.430007343205 468.131671274178  356.572027446957 468.498549318816  358.709297272816 468.891704257627  C 359.843848432885 469.101573746078  360.977018332693 469.318842809162  362.108734627877 469.543497575886  L 362.303443426344 468.562636482867  C 361.167298477143 468.33710259278  360.029694027968 468.118984369624  358.890702727032 467.908295742581  C 356.745214033032 467.513624785363  354.594956386888 467.145333775612  352.440416816254 466.803506130265  L 352.283722049718 467.791153207991  Z M 339.423859048686 466.072113312681  C 342.731479712413 466.432173805103  346.03203387717 466.854428613247  349.323769615436 467.338653605109  L 349.469306618998 466.349300796151  C 346.165162435679 465.86325048182  342.85216658415 465.439403952468  339.53207759595 465.077986184981  L 339.423859048686 466.072113312681  Z M 326.495327374996 464.983883865653  C 329.816596592784 465.181794947439  333.133848616288 465.442171463393  336.445322654795 465.764875206185  L 336.542313385454 464.769589921371  C 333.218356496892 464.445669722589  329.888599842777 464.184311697804  326.554810851271 463.985654575334  L 326.495327374996 464.983883865653  Z M 313.529051234539 464.529067840882  C 316.856024746691 464.564356121611  320.182039978112 464.662231541704  323.505331486595 464.822642149086  L 323.553543948839 463.823805046009  C 320.217725043457 463.662789758796  316.879172147863 463.564545389957  313.539657359222 463.529124087404  L 313.529051234539 464.529067840882  Z M 300.5551424321 464.70623454325  C 302.489006596577 464.635258262572  304.423517304627 464.583154100567  306.358398273807 464.549929498633  C 307.750399459749 464.527063922259  309.142559077141 464.515156451765  310.534747727092 464.514208193931  L 310.534066599851 463.514208425898  C 309.13650584619 463.515160342819  307.738974241642 463.527114738567  306.341601707472 463.550070501804  C 304.400092295586 463.583406500584  302.458954416309 463.635687947328  300.518465334023 463.706907374363  L 300.5551424321 464.70623454325  Z M 287.600183914331 465.464953297481  C 290.917275367202 465.197974057501  294.238613265991 464.986675069267  297.56279499908 464.831145565019  L 297.516058820189 463.832238297259  C 294.180702511472 463.988290629784  290.848199596896 464.200299921098  287.519957403096 464.468176638999  L 287.600183914331 465.464953297481  Z M 274.690642905069 466.787963227647  C 277.992934110712 466.376567536831  281.301896141066 466.020613913393  284.616131610881 465.720252677688  L 284.525873903755 464.724334234087  C 281.200497293689 465.025705164693  277.880411850291 465.382855362507  274.567019656258 465.795634001859  L 274.690642905069 466.787963227647  Z M 261.851086990111 468.672746571113  C 265.132293501816 468.1177173387  268.422582522069 467.617786479912  271.72056455129 467.173165117149  L 271.586957081444 466.182130786764  C 268.277888549569 466.628246789545  264.976538887499 467.129858216857  261.68430226575 467.686753236592  L 261.851086990111 468.672746571113  Z M 449.216039652499 503.213051780344  C 452.083622128023 504.901644202262  454.922667811462 506.638236355794  457.731977764742 508.42209487252  L 458.268022235258 507.57790512748  C 455.449268500302 505.788049988577  452.600679075504 504.045620103564  449.723456929283 502.351351306152  L 449.216039652499 503.213051780344  Z M 253.080000592847 470.292024959756  C 255.016496240174 469.904410571812  256.956803849659 469.536089959762  258.90063481289 469.187117908955  L 258.723931842887 468.2028536861  C 256.772463564947 468.553196848608  254.82453451167 468.922975572542  252.880434752885 469.312134793448  L 253.080000592847 470.292024959756  Z M 258.849581817611 473.364253805926  L 253.379589481802 469.723084208897  L 257.020759078831 464.253091873088  L 256.188323241549 463.698970427187  L 252.270092921569 469.585180681636  L 251.993032198618 470.001398600277  L 252.409250117259 470.278459323228  L 258.295460371709 474.196689643208  L 258.849581817611 473.364253805926  Z " fill-rule="nonzero" fill="#000000" stroke="none" />
  </g>
</svg>