<?xml version="1.0" encoding="utf-8"?>
<svg version="1.1" xmlns:xlink="http://www.w3.org/1999/xlink" width="138px" height="12px" viewBox="244 490  138 12" xmlns="http://www.w3.org/2000/svg">
  <g transform="matrix(-0.898794046299167 0.438371146789079 -0.438371146789077 -0.898794046299171 811.754625299022 804.591678019407 )">
    <path d="M 445.286678185367 608.849686874194  C 447.153809306732 611.605626728317  448.983541298543 614.386719966773  450.775371085726 617.192201942776  L 451.618143861633 616.653932448759  C 449.821455538296 613.840843424526  447.986762238732 611.052209267778  446.114568402079 608.288796698603  L 445.286678185367 608.849686874194  Z M 437.817327391722 598.232056119294  C 439.780295530476 600.920576007662  441.706772968077 603.635549938523  443.596230029807 606.376231444243  L 444.419536606078 605.808634508497  C 442.524956292405 603.060521660656  440.593255222323 600.338186093611  438.624964506764 597.642376299047  L 437.817327391722 598.232056119294  Z M 429.978922507552 587.883882705704  C 432.035295483813 590.50165146677  434.056131400462 593.14714215109  436.040874639417 595.819627395079  L 436.84369491305 595.223406288237  C 434.853570054231 592.543674615898  432.827254652629 589.891010698818  430.765305832883 587.26614387283  L 429.978922507552 587.883882705704  Z M 421.781175565507 577.81798834901  C 423.928405467835 580.361762484121  426.041095983636 582.934492074904  428.118666239895 585.535469763048  L 428.900005491068 584.911363222002  C 426.816801915022 582.303332997834  424.698382851051 579.723627465577  422.545330747208 577.172955901546  L 421.781175565507 577.81798834901  Z M 413.225085905646 568.057104988164  C 414.826979370915 569.813749248221  416.409779547255 571.587710221888  417.973207346583 573.378675114551  C 418.598058156148 574.0955416501  419.220133926725 574.814822307451  419.839420699108 575.53650094615  L 420.598310823668 574.885282258731  C 419.977264057459 574.161552631693  419.353420003111 573.440228114191  418.726792663272 572.721324896896  C 417.15853175666 570.924819407266  415.570837532904 569.145371292289  413.963989972161 567.383294346747  L 413.225085905646 568.057104988164  Z M 404.291876837028 558.640988942959  C 406.629833778467 561.009910209221  408.931697091063 563.414183931969  411.196671287236 565.852979232202  L 411.929408062854 565.172467059162  C 409.657547328487 562.726256726558  407.348685318228 560.314672932533  405.003619938291 557.938549082327  L 404.291876837028 558.640988942959  Z M 394.994105385046 549.584670062358  C 397.423709013102 551.859501228913  399.818641969685 554.171081419431  402.178076603833 556.518611788347  L 402.883392803605 555.809718948533  C 400.516784429136 553.455051033606  398.114569801392 551.136442601749  395.677579087778 548.854694927388  L 394.994105385046 549.584670062358  Z M 385.346251436173 540.902252206619  C 387.863718007082 543.079450564631  390.347990858282 545.294737282996  392.798211464337 547.547346793637  L 393.475008663921 546.811177281475  C 391.017338287437 544.551718826834  388.525512131702 542.329696642512  386.000391332449 540.145878624253  L 385.346251436173 540.902252206619  Z M 375.363340077941 532.607256941154  C 377.964749014571 534.683431830269  380.534492877494 536.798975099205  383.071683603846 538.953155649643  L 383.718907792968 538.19085593889  C 381.174002867986 536.03012571267  378.596445830288 533.908150242633  375.987127442844 531.825662849961  L 375.363340077941 532.607256941154  Z M 365.057261147243 524.718300547223  C 366.884076334256 526.059009974533  368.696987201641 527.418562797806  370.495703332272 528.796741225075  C 371.338163791394 529.443565517504  372.177486071955 530.094466919598  373.013640632722 530.749422521887  L 373.630283856646 529.962179780168  C 372.791456583977 529.30513065628  371.949450972692 528.652149324658  371.104296667672 528.003258775118  C 369.299982202154 526.620786582807  367.481427741105 525.256999329656  365.648924648174 523.9121155178  L 365.057261147243 524.718300547223  Z M 354.443952269783 517.246812053484  C 357.202816922368 519.108665016124  359.933260721738 521.012288797825  362.634340069668 522.957025536295  L 363.218636802992 522.145485440288  C 360.50934496146 520.194835829235  357.770599387379 518.285424176794  355.00334654793 516.417910345453  L 354.443952269783 517.246812053484  Z M 343.544115695858 510.199895827068  C 346.374292603622 511.951446367739  349.177718881257 513.745856563219  351.953425708947 515.582506293702  L 352.505247668472 514.748544349135  C 349.721101446145 512.906310379087  346.909151494307 511.106444371192  344.070369578413 509.34956833069  L 343.544115695858 510.199895827068  Z M 332.374726288419 503.588526384553  C 335.271807874716 505.227046725626  338.143850714069 506.909448809759  340.989862273863 508.635151225383  L 341.508350079535 507.780066203078  C 338.653685367158 506.049116877525  335.772910228463 504.361599535912  332.86702021378 502.718097357547  L 332.374726288419 503.588526384553  Z M 320.953178698588 497.422999943636  C 323.912653192754 498.945938335086  326.848839817259 500.513712218608  329.76072387241 502.125779796324  L 330.245070057128 501.250903363135  C 327.324332567444 499.633934376403  324.379218617692 498.061393756579  321.410745992699 496.533824948845  L 320.953178698588 497.422999943636  Z M 309.297504223613 491.710758118869  C 311.24985736946 492.623151009172  313.194175877708 493.552638783975  315.130235697039 494.499114334818  C 316.184108330414 495.015290279658  317.23521088652 495.537102766961  318.283498205819 496.064529377594  L 318.732948472942 495.171224022531  C 317.681363032368 494.642138022442  316.62695320076 494.118684403006  315.569764289261 493.600885658589  C 313.628344338586 492.651787295777  311.678642339563 491.719724720225  309.720882989666 490.804805349429  L 309.297504223613 491.710758118869  Z M 297.441760066518 486.422411060721  C 300.505293857215 487.724771923605  303.551054161309 489.068551270391  306.578203563212 490.453379636099  L 306.994208961181 489.544017492143  C 303.958851461106 488.155434172295  300.904832595482 486.808011175547  297.832992050553 485.502118968682  L 297.441760066518 486.422411060721  Z M 285.407240366096 481.554596386138  C 288.514712098353 482.748331087459  291.605879054934 483.98408414102  294.679891335934 485.261515783095  L 295.063634528808 484.338075930196  C 291.981287081209 483.05718053958  288.881738443222 481.818076748728  285.765840819257 480.621105242638  L 285.407240366096 481.554596386138  Z M 273.208856274553 477.113345472137  C 276.356415692179 478.19697493668  279.489159247192 479.323170559727  282.606225608422 480.491622699784  L 282.957231126195 479.555249309254  C 279.831712857476 478.383628917947  276.69047488635 477.254379621952  273.534380879487 476.167811902356  L 273.208856274553 477.113345472137  Z M 260.86172197728 473.104161169684  C 264.045469154171 474.076342746118  267.215907738833 475.091585546498  270.372166036052 476.149610435219  L 270.689998971738 475.201463703434  C 267.525182498321 474.14056998632  264.346147287688 473.122574360932  261.153767398661 472.147756719752  L 260.86172197728 473.104161169684  Z M 452.377720125578 619.723619388611  C 454.146700794782 622.543564511463  455.87742024474 625.387331194645  457.569402623349 628.254137559643  L 458.430597376651 627.745862440357  C 456.734027197565 624.871282746409  454.998614911783 622.019805206237  453.224837661681 619.192213818422  L 452.377720125578 619.723619388611  Z M 252.829324009605 470.750717537227  C 254.554102675287 471.234883773333  256.275330696048 471.731610739533  257.992871007271 472.240858880527  L 258.277137555765 471.282113591408  C 256.554073588257 470.771227694563  254.827308201454 470.27290956489  253.096979039309 469.787198924333  L 252.829324009605 470.750717537227  Z M 256.571820864178 476.110108733296  L 253.354700118159 470.38044327241  L 259.084365579044 467.163322526391  L 258.594776848852 466.291369044106  L 252.429134646824 469.753284155221  L 251.993157905681 469.998078520318  L 252.237952270778 470.43405526146  L 255.699867381893 476.599697463488  L 256.571820864178 476.110108733296  Z " fill-rule="nonzero" fill="#000000" stroke="none" />
  </g>
</svg>