<?xml version="1.0" encoding="utf-8"?>
<svg version="1.1" xmlns:xlink="http://www.w3.org/1999/xlink" width="404px" height="16px" viewBox="688 448  404 16" xmlns="http://www.w3.org/2000/svg">
  <g transform="matrix(-0.939692620785908 -0.34202014332567 0.34202014332567 -0.939692620785911 1570.36524714295 1188.89776263822 )">
    <path d="M 1053.17518500569 393.780830265747  C 1056.22819630114 392.441415756006  1059.27891957361 391.096792053794  1062.3273414955 389.746965033329  L 1061.9224625829 388.832594722057  C 1058.87508095016 390.181961107335  1055.82539875271 391.526125949789  1052.77342931255 392.865083377664  L 1053.17518500569 393.780830265747  Z M 1041.2568939293 398.978112952052  C 1044.31581823135 397.65225801527  1047.37247764643 396.321183785202  1050.42685882101 394.984896076878  L 1050.02604100802 394.068738295277  C 1046.97270215621 395.404569988771  1043.91708584188 396.735189982908  1040.85920541298 398.060592465096  L 1041.2568939293 398.978112952052  Z M 1029.3156595296 404.122462329214  C 1032.38043661543 402.810193068266  1035.44297199489 401.492694515975  1038.50325228879 400.169972428062  L 1038.10650346653 399.252045213062  C 1035.04726750851 400.57431591548  1031.98577723501 401.891364864611  1028.92204601961 403.203186307144  L 1029.3156595296 404.122462329214  Z M 1017.3517169006 409.213777117444  C 1020.42228643216 407.915119367735  1023.4906374821 406.611222431579  1026.55675664579 405.302092005275  L 1026.1640846253 404.382413428641  C 1023.09901179002 405.691097107673  1020.03170783067 406.994549082289  1016.96218614624 408.292763658579  L 1017.3517169006 409.213777117444  Z M 1005.36530158338 414.251957081071  C 1008.44160310859 412.966936410031  1011.51570942059 411.676666760585  1014.58760708962 410.3811537695  L 1014.19901960164 409.459741937479  C 1011.12817023298 410.754812828309  1008.05511297558 412.044642166597  1004.97986125357 413.32922431794  L 1005.36530158338 414.251957081071  Z M 993.356649561444 419.236903030527  C 996.438622515377 417.965544737102  999.518423567729 416.688927776654  1002.59603926386 415.407057726304  L 1002.21154395875 414.483930779264  C 999.134978514293 415.765363385081  996.056228459899 417.041544693422  992.975307244572 418.312469129503  L 993.356649561444 419.236903030527  Z M 981.325997256101 424.168516824286  C 984.413580962164 422.910845938446  987.499016121035 421.647906800494  990.582289253458 420.379704927798  L 990.201893701003 419.454881039875  C 987.119672750878 420.722650132372  984.035290512633 421.985158285843  980.948760459874 423.242399985236  L 981.325997256101 424.168516824286  Z M 969.273581521779 429.046701370808  C 972.366715192919 427.802742653048  975.457723713557 426.553506201807  978.54659358009 425.298997474592  L 978.170305269355 424.372494853331  C 975.082489495033 425.626575473201  971.992535796959 426.875385616073  968.900457673075 428.118919826732  L 969.273581521779 429.046701370808  Z M 957.199639641378 433.871360630443  C 960.298262381279 432.6411385713  963.394783409208 431.405629401213  966.489189197477 430.164838517719  L 966.117015536666 429.236675403714  C 963.02366572977 430.477042861146  959.928201405577 431.71213040737  956.830636086104 432.941932647114  L 957.199639641378 433.871360630443  Z M 945.104409321598 438.642399617324  C 948.208460125877 437.425938436894  951.310432698089 436.204180872148  954.410313486732 434.977132260545  L 954.042261803045 434.047326927083  C 950.943438864146 435.273956802241  947.842524856038 436.49529743593  944.739533324541 437.71134349293  L 945.104409321598 438.642399617324  Z M 932.988128688256 443.35972440124  C 936.097546445662 442.1570480487  939.204909491824 440.949066142744  942.31020425169 439.73578396065  L 941.946281791175 438.804354713347  C 938.842046728597 440.017222856858  935.735744086066 441.224792532772  932.627387432941 442.427058466023  L 932.988128688256 443.35972440124  Z M 920.851036281595 448.02324210948  C 923.965759775219 446.834374262617  927.078452118872 445.640191797692  930.189099714221 444.440699931698  L 929.82931364163 443.507665108142  C 926.719727570251 444.706747641568  923.608097448878 445.900522585581  920.494436870145 447.088984725376  L 920.851036281595 448.02324210948  Z M 908.693371051599 452.632860928667  C 911.813338960071 451.457824993411  914.931299319835 450.27746548008  918.047238509543 449.091787545278  L 917.691595908193 448.157165514666  C 914.576720048237 449.342438830973  911.459823708492 450.522395540546  908.340920504593 451.697030488942  L 908.693371051599 452.632860928667  Z M 896.515372353274 457.188490106559  C 899.640523251976 456.027309216526  902.763690242756 454.860795893212  905.884859681521 453.688955232731  L 905.533367553154 452.75276439551  C 902.413263228991 453.924205159535  899.291162035018 455.090320404174  896.167077609611 456.251105035451  L 896.515372353274 457.188490106559  Z M 884.317279941947 461.690039953843  C 887.44755230422 460.542736969874  890.575864438416 459.3900928024  893.702202677964 458.232112486947  L 893.35486794261 457.294371274449  C 890.229596581542 458.451956423358  887.10235199996 459.604207245078  883.973147858707 460.751118706195  L 884.317279941947 461.690039953843  Z M 872.099333968539 466.137421845894  C 875.234666166895 465.004019355608  878.368061855611 463.86526703675  881.499507345907 462.721169864156  L 881.156336841746 461.781896738237  C 878.025959972805 462.925603481978  874.893633571493 464.063967195747  871.75937132085 465.196982906793  L 872.099333968539 466.137421845894  Z M 859.861774974841 470.530548224526  C 863.002105282177 469.411068541876  866.140522836433 468.286230490911  869.277013926894 467.156038985679  L 868.938014410122 466.215252438354  C 865.802593662853 467.34505826011  862.665247109737 468.469512454302  859.525988455745 469.58861010894  L 859.861774974841 470.530548224526  Z M 847.604843888777 474.86933259971  C 850.750110479587 473.763797764542  853.893488111539 472.652896126809  857.034963052243 471.536632539677  L 856.700141196942 470.594351092755  C 853.559738300192 471.710233749384  850.417433362034 472.820756286216  847.273240109098 473.925913852121  L 847.604843888777 474.86933259971  Z M 835.32878201966 479.153689551282  C 838.478922971256 478.062121328901  841.627198795403 476.965177975365  844.773595738312 475.862864282861  L 844.442958136313 474.919106487585  C 841.297634917016 476.021044010057  838.150433458196 477.117613026028  835.001367507874 478.208808745321  L 835.32878201966 479.153689551282  Z M 823.033831053443 483.38353473062  C 826.188784347173 482.305954611364  829.341896381581 481.222991138186  832.493153381753 480.134649042198  L 832.166706542511 479.189433478875  C 829.01652492447 480.277404172707  825.86448890577 481.359998079027  822.710612255549 482.437210468705  L 823.033831053443 483.38353473062  Z M 810.720233047957 487.558784862308  C 813.879936570425 486.495214061122  817.037822737949 485.426251789232  820.19387775476 484.351902716584  L 819.871628105222 483.40524799422  C 816.71665010789 484.479230439902  813.559841585271 485.547827922915  810.401216327352 486.611035775274  L 810.720233047957 487.558784862308  Z M 798.388230428151 491.679357745776  C 801.55262197244 490.629817201794  804.715220101945 489.574877176472  807.876011000307 488.514542278496  L 807.55796488479 487.566467034434  C 804.398252622049 488.626440087849  801.236733745432 489.681020109459  798.073422065502 490.730202492508  L 798.388230428151 491.679357745776  Z M 786.038065981315 495.745172256914  C 789.207083248214 494.70968263305  792.374331075793 493.668785623512  795.539795627383 492.622485775638  L 795.225959307445 491.673008675183  C 792.061574986384 492.718951468028  788.895407998425 493.759493266105  785.727472174436 494.794629523982  L 786.038065981315 495.745172256914  Z M 773.669982852302 499.756148349671  C 776.843563451529 498.734730032211  780.015398621737 497.707896531201  783.185474506218 496.67565233254  L 782.875854160536 495.7247920686  C 779.706860080225 496.756684008792  776.536107315091 497.783167097586  773.363609716034 498.804236850962  L 773.669982852302 499.756148349671  Z M 761.284224538738 503.712207057636  C 764.462305990171 502.704880155835  767.638666057251 501.69213037922  770.813290863499 500.673962152162  L 770.507892587749 499.721737444874  C 767.334351138013 500.739558216958  764.159075020152 501.7519623875  760.982078104828 502.758945533984  L 761.284224538738 503.712207057636  Z M 748.881034886235 507.613270495586  C 752.06355462114 506.620054841272  755.244377050246 505.621408727644  758.423488277581 504.617336517459  L 758.122318084317 503.663766113823  C 754.944291744507 504.667495679371  751.764554787424 505.665800999874  748.583121103214 506.658677714404  L 748.881034886235 507.613270495586  Z M 736.460658083583 511.459261861022  C 739.647553445848 510.480177008208  742.832775614284 509.495654218492  746.016310673699 508.505697792931  L 745.719374492232 507.550800466442  C 742.536925829997 508.540419064447  739.352790635017 509.524605880694  736.166982816652 510.50335661593  L 736.460658083583 511.459261861022  Z M 724.023338657945 515.250105435679  C 727.214546905312 514.285170660177  730.404106103762 513.314790577245  733.592002319155 512.338969426155  L 733.299305995441 511.38276397643  C 730.112497665493 512.358252123696  726.924026920534 513.328301059431  723.73390768886 514.29290654614  L 724.023338657945 515.250105435679  Z M 711.569321470045 518.985726587021  C 714.764779775345 518.034960886062  717.958613209107 517.078742614349  721.150807818516 516.117075949287  L 720.862357115037 515.159581201697  C 717.671251857921 516.120919693225  714.478508336255 517.076811650531  711.284140497001 518.027252897964  L 711.569321470045 518.985726587021  Z M 699.098349861951 522.664869645982  C 700.446207857065 522.270769563943  701.7937844286 521.875707619437  703.141078544115 521.47968411514  C 704.992249170736 520.934931848408  706.842881261856 520.388351203545  708.692972108796 519.839942980553  L 708.408772704447 518.881177785853  C 706.559362416135 519.429384276077  704.709411098522 519.975763908646  702.858921456348 520.520315884721  C 701.512133020703 520.916190673175  700.16506224944 521.311104296705  698.817710166502 521.705056455127  L 699.098349861951 522.664869645982  Z M 686.610667671005 526.286304688033  C 689.814678298617 525.364785441289  693.01712531091 524.437838350886  696.217994919123 523.505467407974  L 695.938331086165 522.545369423113  C 692.738545930982 523.477424479213  689.537183905042 524.404057520722  686.334258794636 525.325264557204  L 686.610667671005 526.286304688033  Z M 674.107153772619 529.852694803924  C 677.31519271955 528.945298562502  680.521691976656 528.032467642165  683.726637737732 527.114205973286  L 683.451205968938 526.152885350008  C 680.247346041892 527.070835912291  677.041933144034 527.983357566281  673.834981079102 528.890446382307  L 674.107153772619 529.852694803924  Z M 661.588050800127 533.363970787099  C 664.800055813701 532.470715159216  668.010545092825 531.572018122623  671.219504814111 530.667883546837  L 670.948310454295 529.705358939773  C 667.740437926486 530.609187195349  664.531036359386 531.507579753874  661.320119571034 532.400532747329  L 661.588050800127 533.363970787099  Z M 649.053601689375 536.820064500504  C 652.269510439955 535.940966819973  655.483927440871 535.056421106531  658.696838851825 534.166431168761  L 658.429887163569 533.202721255905  C 655.218064284923 534.092409665659  652.004736326741 534.976655695495  648.789917123966 535.8554555383  L 649.053601689375 536.820064500504  Z M 636.504049674003 540.220908877909  C 639.723799756198 539.355986203807  642.942082102463 538.485608978312  646.158882855859 537.609780949002  L 645.896179019418 536.644904431349  C 642.680468116037 537.520435730689  639.463276122082 538.390518072852  636.244616889132 539.255147711712  L 636.504049674003 540.220908877909  Z M 623.939638280724 543.566437925208  C 627.163167214602 542.715707041543  630.385252454767 541.859515193849  633.605880127904 540.997866068628  L 633.347429241101 540.03184166981  C 630.127892714537 540.893198868865  626.9068991151 541.749100639226  623.684462310741 542.599543295818  L 623.939638280724 543.566437925208  Z M 611.360611324603 546.8565867217  C 614.587856556903 546.020064137086  617.813682165721 545.178074281778  621.038074261637 544.330620781129  L 620.783881339767 543.363467247055  C 617.560581665808 544.210633631007  614.335848964953 545.052338220609  611.109697121251 545.888577391913  L 611.360611324603 546.8565867217  Z M 598.767212904324 550.091291421353  C 601.998111809667 549.268993368686  605.227615189309 548.441221844756  608.455709137993 547.607980413693  L 608.205779113723 546.639716512183  C 604.978778841662 547.472675641463  601.750369615048 548.300166717098  598.520565336645 549.122186175594  L 598.767212904324 550.091291421353  Z M 586.159687397447 553.270489254037  C 589.394177279558 552.462431690186  592.627295760826 551.648894560714  595.859028920431 550.829881368465  L 595.613366643706 549.860525888883  C 592.382728393205 550.679261599993  589.150705290722 551.492523103527  585.917311251692 552.300306897998  L 586.159687397447 553.270489254037  Z M 573.538279455678 556.394118526743  C 576.776297548593 555.600317132236  580.01296839214 554.801030184083  583.248278050199 553.996261123771  L 583.006888288148 553.025832876668  C 579.77267475139 553.830329281623  576.537100489202 554.62934543203  573.300179435205 555.422877887019  L 573.538279455678 556.394118526743  Z M 560.903234000109 559.462118624785  C 564.144717469403 558.682588803506  567.384877866944 557.897567547005  570.623701241589 557.107058235345  L 570.386588678431 556.135576052084  C 567.148862615533 556.925817539583  563.909799981609 557.710572831543  560.669414725301 558.489838548506  L 560.903234000109 559.462118624785  Z M 548.254796216475 562.47443001297  C 551.499682160474 561.709186891861  554.74326923601 560.938446560516  557.985543477187 560.162212337508  L 557.752712714142 559.189695069908  C 554.511536953381 559.965666305263  551.269048803383 560.736145510203  548.025262224643 561.501129367438  L 548.254796216475 562.47443001297  Z M 535.593211550388 565.430994236759  C 538.841437001394 564.680052665524  542.088387812432 563.923608215713  545.334050003122 563.161664144347  L 545.105505558319 562.188130664312  C 541.86094299588 562.94981658952  538.615092250012 563.706004756361  535.367967295689 564.456691909078  L 535.593211550388 565.430994236759  Z M 522.918725702581 568.331753923396  C 526.170227628091 567.595128474215  529.420479166862 566.852994584905  532.669466324304 566.105355450866  L 532.445212632697 565.130824650019  C 529.197326230003 565.878210484402  525.948175874687 566.620092939154  522.697775555927 567.356468820109  L 522.918725702581 568.331753923396  Z M 510.231584624137 571.176652783025  C 513.486299928066 570.454357750272  516.739789122751 569.726548822726  519.992038199661 568.993229134112  L 519.772079612941 568.017719923428  C 516.520932395915 568.750791163807  513.268545481601 569.478353510083  510.014932873112 570.200403829746  L 510.231584624137 571.176652783025  Z M 497.532034511715 573.965635609782  C 500.789900035624 573.257685009744  504.046563751576 572.544215167249  507.302011637371 571.825229154282  L 507.08635242388 570.848760463726  C 503.832007482209 571.56750288459  500.576447121183 572.280731004102  497.319685360492 572.988441750829  L 497.532034511715 573.965635609782  Z M 484.820321802774 576.698648282864  C 488.081274326607 576.005055853576  491.341049368548 575.305938940958  494.599632890087 574.601300555819  L 494.388277234739 573.623891333971  C 491.130797718704 574.328290988186  487.872127087747 575.027171040166  484.612279372034 575.72052848089  L 484.820321802774 576.698648282864  Z M 472.096693170792 579.37563776758  C 475.360669416046 578.696416968144  478.623492525409 578.011666552331  481.88514845016 577.321389468467  L 481.678100454355 576.343058682161  C 478.417549576522 577.033101900595  475.155831909856 577.71762032334  471.892961497643 578.396611003209  L 472.096693170792 579.37563776758  Z M 459.361395520478 581.996552116384  C 462.628332148517 581.331716127326  465.894140010499 580.661345495836  469.158805044852 579.985443108326  L 468.956068726401 579.006209742278  C 465.692509758937 579.681883134396  462.42780834991 580.35202664488  459.161978558375 581.016637387836  L 459.361395520478 581.996552116384  Z M 446.614675982979 584.561340469877  C 449.884509598206 583.910902192481  453.153238839114 583.254924353998  456.420849631553 582.59340977887  L 456.222428924597 581.613292835311  C 452.955925196582 582.274583289729  449.688303399363 582.930338883276  446.419577601651 583.580556792605  L 446.614675982979 584.561340469877  Z M 433.856781911088 587.069953057798  C 437.129449061688 586.433925113955  440.40103625114 585.792352797869  443.671529392985 585.145238871954  L 443.477428147919 584.164257370261  C 440.208043047523 584.8111520543  436.937564269059 585.452507006225  433.66600589646 586.088319464117  L 433.856781911088 587.069953057798  Z M 421.087960874441 589.522341199989  C 424.363398053616 588.900735931957  427.637779705769 588.273581588114  430.911091732408 587.640880868794  L 430.721313715809 586.659053845121  C 427.449110685168 587.291540205846  424.175838391739 587.918482070138  420.901510928562 588.539876738707  L 421.087960874441 589.522341199989  Z M 408.308460654715 591.918457307337  C 411.586604301913 591.311286777498  414.863716876696 590.698562575961  418.139784268816 590.080287340929  L 417.954333163366 589.097633847836  C 414.67937570076 589.715699611618  411.403373409937 590.328216222529  408.126340395686 590.935181043385  L 408.308460654715 591.918457307337  Z M 395.518529240819 594.258254882703  C 398.799315742479 593.665530873418  402.079095647806 593.067248704051  405.357854832137 592.463410951158  L 405.176734236555 591.479950057245  C 401.899085893227 592.083583230388  398.620417176525 592.681662701903  395.340742202722 593.274185896765  L 395.518529240819 594.258254882703  Z M 382.718414824079 596.54168852182  C 386.001780516822 595.963422534846  389.284164105916 595.379594007799  392.565551458419 594.790205454464  L 392.388764887387 593.805956243998  C 389.108489267285 594.395145112784  385.82721774699 594.978775839218  382.544964456909 595.556845909963  L 382.718414824079 596.54168852182  Z M 369.908365793428 598.768713914173  C 373.194246962358 598.204917170974  376.479170540847 597.635553615383  379.763122385017 597.060625698906  L 379.590673269116 596.075607271452  C 376.307834025707 596.650340402722  373.024023377542 597.21951105825  369.739255463027 597.783116787477  L 369.908365793428 598.768713914173  Z M 357.08863073058 600.939287843863  C 360.376963612477 600.389971285034  363.664363435723 599.83508374952  366.950816045779 599.2746276265  L 366.782707731421 598.288859096548  C 363.497368569385 598.849125337396  360.211082515412 599.403824877314  356.923863718569 599.952955328048  L 357.08863073058 600.939287843863  Z M 344.259458405209 603.053368190443  C 347.550179189277 602.518542475588  350.839991464591 601.978141727863  354.128881066223 601.432168274068  L 353.965116815585 600.445668770666  C 350.677341487624 600.991457249007  347.388643798921 601.531674909253  344.099037908926 602.066319425502  L 344.259458405209 603.053368190443  Z M 331.42109777012 605.110913929738  C 334.714142599226 604.590589437262  338.006303487104 604.064685963916  341.297566258713 603.533205774077  L 341.138149249676 602.545994440456  C 337.848001555766 603.07729456515  334.556956050208 603.603019862686  331.265026902561 604.123168069559  L 331.42109777012 605.110913929738  Z M 318.573797956423 607.111885134634  C 321.869102928333 606.606071961546  325.163548543695 606.094675967846  328.45712061763 605.57769935545  L 328.302053943715 604.589795348655  C 325.009597729868 605.10659680971  321.716268270891 605.617819542725  318.422079746174 606.123461346637  L 318.573797956423 607.111885134634  Z M 1065.07029811645 388.530716592219  C 1068.1173362989 387.177768879351  1071.16206336741 385.81962217738  1074.20446602056 384.456282419602  L 1073.79553397944 383.543717580398  C 1070.75416956134 384.906592091699  1067.71048152161 386.26427531912  1064.66448315611 387.616761331849  L 1065.07029811645 388.530716592219  Z M 322.687239788137 610.676383924835  L 317.390886687348 606.786965456748  L 321.280305155436 601.490612355959  L 320.474294130679 600.898711833937  L 316.28892540158 606.598070447104  L 315.992975140569 607.001075959482  L 316.395980652947 607.297026220494  L 322.095339266115 611.482394949592  L 322.687239788137 610.676383924835  Z " fill-rule="nonzero" fill="#000000" stroke="none" />
  </g>
</svg>