<?xml version="1.0" encoding="utf-8"?>
<svg version="1.1" xmlns:xlink="http://www.w3.org/1999/xlink" width="184px" height="16px" viewBox="302 560  184 16" xmlns="http://www.w3.org/2000/svg">
  <g transform="matrix(-0.874619707139399 -0.484809620246339 0.484809620246333 -0.874619707139399 463.228300313006 1255.79898403224 )">
    <path d="M 565.363830390775 404.409958808649  C 567.038370879825 401.523778624766  568.683250028537 398.620490710573  570.298208033322 395.700553631441  L 569.423132569011 395.216567131876  C 567.811485596083 398.130517674727  566.16997882439 401.027853187219  564.498871524865 403.908116044148  L 565.363830390775 404.409958808649  Z M 558.683806616418 415.577512658045  C 560.4347461922 412.737031623911  562.156491369503 409.878657668147  563.848770203988 407.002842262098  L 562.986917556647 406.495683495763  C 561.298108279332 409.365602825018  559.579893071927 412.218116462918  557.8325433212 415.052773863772  L 558.683806616418 415.577512658045  Z M 551.708241776252 426.562888016482  C 553.534334125515 423.770127977511  555.33171979864 420.958702561711  557.100114904106 418.129055825054  L 556.252098537722 417.599085785953  C 554.487329045128 420.422931102102  552.693628422143 423.228592455254  550.871279978247 426.015626699851  L 551.708241776252 426.562888016482  Z M 544.442101055258 437.35826552854  C 546.342046371251 434.615214362484  548.213793166754 431.852738650378  550.057045805164 429.071274716698  L 549.223469335103 428.518870635829  C 547.383995784568 431.294631934718  545.516086496439 434.051443942234  543.620036501226 436.788871228425  L 544.442101055258 437.35826552854  Z M 536.890556469411 447.955961078663  C 538.86300237706 445.264571280676  540.807777991513 442.553011593708  542.724576141462 439.821710300247  L 541.906032904819 439.247265377086  C 539.993164627799 441.972966880598  538.052376246438 444.678967252427  536.0839743023 447.364839088124  L 536.890556469411 447.955961078663  Z M 529.058983184253 458.34843126069  C 531.102525702812 455.710618553502  533.118945851068 453.051904971303  535.107925141707 450.372710449666  L 534.304997774967 449.776633572292  C 532.320096345036 452.450335134741  530.307810317499 455.103597748343  528.268457526697 457.736002338491  L 529.058983184253 458.34843126069  Z M 520.932434179533 468.514063958249  C 523.055157133262 465.938994104304  525.148184113908 463.339587905729  527.211099596229 460.716361418408  L 526.425044662694 460.098204770409  C 524.366870369954 462.715402307829  522.278653784017 465.308834302565  520.160809475119 467.877985884788  L 520.932434179533 468.514063958249  Z M 512.504952503879 478.431422756815  C 514.703740445948 475.920990706989  516.873573544499 473.385345059163  519.014021026095 470.824989210944  L 518.246805402196 470.183599948136  C 516.111277301639 472.738071341762  513.946431120951 475.267889326353  511.752696643545 477.772551661233  L 512.504952503879 478.431422756815  Z M 503.784634805542 488.092298088432  C 506.057520537596 485.648749860955  508.30221846084 483.179133340058  510.518282939048 480.683938814694  L 509.77059303264 480.01989077136  C 507.559621725677 482.50935060212  505.320082781803 484.973291214222  503.052420813032 487.411223445553  L 503.784634805542 488.092298088432  Z M 494.77928292585 497.488046619332  C 497.124232956163 495.113568393223  499.441787431291 492.712190500883  501.731486250881 490.284389683992  L 501.003991000667 489.598276966637  C 498.719554585805 492.020497979587  496.40732653594 494.416356795673  494.067765893969 496.785377768917  L 494.77928292585 497.488046619332  Z M 485.496953718797 506.610262217797  C 487.911870081602 504.306978376932  490.30020765292 501.975987563472  492.661492279945 499.617752545264  L 491.954842556995 498.910189001083  C 489.598984860039 501.263004098125  487.216136394473 503.588637605634  484.80677022332 505.886627819381  L 485.496953718797 506.610262217797  Z M 475.945951842784 515.450783474905  C 478.428673975256 513.220754707397  480.885657859276 510.962236449652  483.316415713831 508.675677081627  L 482.631243739263 507.947295749311  C 480.206072484797 510.228599927995  477.754735476036 512.481927443156  475.277719372924 514.706830945354  L 475.945951842784 515.450783474905  Z M 466.132340365817 523.999550754683  C 466.966053614149 523.296003548469  467.797118009979 522.58932339621  468.625515922038 521.879525290329  C 470.329959020376 520.416170511056  472.02304360135 518.939637604222  473.704617349369 517.4500594037  L 473.04153612872 516.701511947073  C 471.363950820709 518.187557092148  469.674882826453 519.660588846119  467.974484077804 521.120474709619  C 467.14811473431 521.828533036001  466.319085846197 522.533481516555  465.487414996257 523.235305200101  L 466.132340365817 523.999550754683  Z M 456.061673868133 532.243222826363  C 458.675345991885 530.16821547205  461.265059028198 528.06320694082  463.830298845522 525.928615136622  L 463.190664247866 525.159936021853  C 460.631320109928 527.289621903099  458.047558999714 529.389792502465  455.439893867105 531.460030876505  L 456.061673868133 532.243222826363  Z M 445.748962619339 540.18201616238  C 448.423524364498 538.186106103707  451.075035007866 536.159491726226  453.702968149346 534.102575370393  L 453.0866091513 533.315110078759  C 450.464715777003 535.367299032776  447.819299088892 537.389255651342  445.150884277231 539.380578518704  L 445.748962619339 540.18201616238  Z M 435.203433133838 547.808828130917  C 437.936491639601 545.893801056681  440.647427652458 543.947393992087  443.33570297469 541.969993354164  L 442.743171016612 541.16444641037  C 440.061074145731 543.137302397102  437.356368665197 545.079236042896  434.629591535779 546.989861818828  L 435.203433133838 547.808828130917  Z M 424.434520222449 555.116835221766  C 427.22363029249 553.284404456859  429.991566270927 551.419946104904  432.737778643934 549.523830313787  L 432.169603848748 548.700922419721  C 429.429703083568 550.59268037625  426.668128640209 552.452853651779  423.885428769584 554.281072949113  L 424.434520222449 555.116835221766  Z M 413.45185855133 562.099499151149  C 416.294524841445 560.351304123693  419.11698438517 558.570462566749  421.918676844202 556.757328027896  L 421.375367543112 555.917795417839  C 418.580114201538 557.726762837555  415.764141504176 559.503511494177  412.928008501494 561.247688652689  L 413.45185855133 562.099499151149  Z M 402.265274022092 568.750572711349  C 405.158953272723 567.088177485944  408.033411200626 565.392545996612  410.888077144345 563.664014874313  L 410.370119422044 562.808608656245  C 407.522014344517 564.533167103063  404.654162770621 566.224901530005  401.767134050294 567.88347607977  L 402.265274022092 568.750572711349  Z M 390.886314998236 575.065653372118  C 393.257864358955 573.792148043245  395.618830549557 572.499031989365  397.968970878266 571.186438134294  C 398.531965998386 570.871446905442  399.094259874577 570.555203951899  399.655848334879 570.237711620041  L 399.163705594664 569.367197103647  C 398.603515571075 569.683898833552  398.042622023404 569.999354535973  397.481029111531 570.313561871324  C 395.135814176948 571.62340246164  392.779796584595 572.913806968782  390.413218495167 574.184642759932  L 390.886314998236 575.065653372118  Z M 379.340659689076 581.068554344747  C 382.321467910178 579.568919638436  385.286808782488 578.038736107789  388.236213939605 576.478245440551  L 387.768550747496 575.594338692784  C 384.825192542942 577.151629998614  381.86593129502 578.678676304398  378.891234409916 580.175236417886  L 379.340659689076 581.068554344747  Z M 367.638973188684 586.761313750491  C 370.65872652036 585.341732220904  373.663832963548 583.891200114512  376.653817870954 582.409946538384  L 376.209901229683 581.513878451907  C 373.226046472565 582.992095120719  370.22710118226 584.439653305809  367.213539032925 585.856324369827  L 367.638973188684 586.761313750491  Z M 355.789584720487 592.139879501215  C 358.846133711884 590.801361601988  361.888866700662 589.431513404028  364.917303096577 588.030551270613  L 364.497448984604 587.122959663854  C 361.475221573297 588.521049505701  358.438726880378 589.88808920276  355.388444510815 591.223862835328  L 355.789584720487 592.139879501215  Z M 343.800928641702 597.200423150839  C 346.892097650905 595.943921634782  349.97029137759 594.655732398854  353.035023630554 593.336058908572  L 352.639530898706 592.417589802365  C 349.58108204512 593.734557661322  346.509199316901 595.020105815819  343.424367908449 596.274031217491  L 343.800928641702 597.200423150839  Z M 331.681538439794 601.939342620403  C 334.80512718249 600.765751861317  337.916590598512 599.560138516451  341.015437241811 598.322693008712  L 340.644587400565 597.394000166461  C 337.552094098909 598.628908628976  334.44700989181 599.832050191797  331.329825217698 601.003234822443  L 331.681538439794 601.939342620403  Z M 319.440040658361 606.353264762025  C 322.593825773966 605.263420118098  325.73634414951 604.141240816057  328.86709943391 602.986904100659  L 328.521156453009 602.048648562991  C 325.396819930244 603.200618625121  322.260744433351 604.32049720392  319.113425295781 605.40810741802  L 319.440040658361 606.353264762025  Z M 571.743558279536 393.06817549779  C 573.340507749234 390.138350538079  574.90735004958 387.19221521661  576.443837702667 384.230234866368  L 575.556162297333 383.769765133632  C 574.022824794003 386.725672749308  572.459194877357 389.66576782213  570.865519517917 392.589585973152  L 571.743558279536 393.06817549779  Z M 323.228752001291 609.445428234616  L 317.331893844692 606.546118649718  L 320.23120342959 600.649260493119  L 319.333806183749 600.208036986087  L 316.213884845335 606.553593765606  L 315.993273091819 607.002292388527  L 316.441971714739 607.222904142043  L 322.787528494259 610.342825480457  L 323.228752001291 609.445428234616  Z " fill-rule="nonzero" fill="#000000" stroke="none" />
  </g>
</svg>