<?xml version="1.0" encoding="utf-8"?>
<svg version="1.1" xmlns:xlink="http://www.w3.org/1999/xlink" width="140px" height="14px" viewBox="310 616  140 14" xmlns="http://www.w3.org/2000/svg">
  <g transform="matrix(-0.981627183447663 0.190808995376546 -0.190808995376549 -0.981627183447668 871.892333829702 1162.04631704481 )">
    <path d="M 554.573413426419 615.408082668798  C 557.740656851232 614.354478251368  560.893511578075 613.258103132701  564.031113310819 612.119257863522  L 563.689926186962 611.179262466452  C 560.560796493851 612.315032666492  557.416454992238 613.408447392394  554.257763644491 614.459206904976  L 554.573413426419 615.408082668798  Z M 542.151688224764 619.299168675392  C 545.35400143288 618.357519431979  548.543437893659 617.372620253403  551.719123282817 616.344741131333  L 551.411180552736 615.393336235934  C 548.244070035341 616.418439915672  545.063245576463 617.400679704822  541.869579139591 618.33978634073  L 542.151688224764 619.299168675392  Z M 529.600893803493 622.751322595941  C 532.834320764864 621.922791808354  536.056398837051 621.050585281187  539.266244747686 620.134942113528  L 538.991926833474 619.173303053412  C 535.790748033609 620.08647383424  532.577370101045 620.956325260631  529.352673923151 621.78261887911  L 529.600893803493 622.751322595941  Z M 516.936534991948 625.760279755589  C 520.197081239646 625.045890962899  523.447820476352 624.287454581752  526.687861572773 623.48517852328  L 526.447507357555 622.514493275001  C 523.216214903868 623.314603056441  519.974253196619 624.070991534883  516.72251095893 624.783451360583  L 516.936534991948 625.760279755589  Z M 504.170272046994 628.309470082093  C 506.484459658646 627.894349548492  508.794150180776 627.454538255634  511.098948876249 626.990111369369  C 512.066597727944 626.794378297765  513.033460055095 626.59477677604  513.999512669637 626.391311591198  L 513.793419078927 625.412779306668  C 512.830096050435 625.615669599706  511.865965698098 625.814707630754  510.9010511388 626.009888627492  C 508.603349262278 626.472882779857  506.300770904493 626.911338429961  503.993709545507 627.325180651555  L 504.170272046994 628.309470082093  Z M 491.313143061513 630.355193186171  C 494.619814928984 629.895665092346  497.919331809965 629.386044207872  501.210556816865 628.826506128655  L 501.042952639198 627.840651758259  C 497.761689353978 628.398496254508  494.472159292122 628.906574642981  491.175495900147 629.364711859256  L 491.313143061513 630.355193186171  Z M 478.385400194024 631.892792978045  C 481.707608982199 631.563895310238  485.024641855251 631.184661855863  488.335355890223 630.755223284298  L 488.20672175196 629.763531165507  C 484.906028427113 630.191669933042  481.599035389765 630.569755541821  478.286882103483 630.897657717974  L 478.385400194024 631.892792978045  Z M 465.407116910359 632.919881959976  C 468.739704081883 632.722125411828  472.069102446495 632.473868239751  475.394164820587 632.175195983692  L 475.30470045752 631.179205959776  C 471.989702222422 631.476974209004  468.670381120781 631.724479968203  465.347880863946 631.921637956335  L 465.407116910359 632.919881959976  Z M 452.398445152639 633.43486532645  C 455.73623605518 633.368556963113  459.072830210433 633.251661552988  462.407077955391 633.084219373774  L 462.356922282709 632.085477961546  C 459.032766478583 632.25241333482  455.706271366176 632.368954931535  452.378583128726 632.435062595904  L 452.398445152639 633.43486532645  Z M 439.379153626847 633.430372216123  C 441.585814444458 633.475695944488  443.792874038824 633.498906391531  445.999999999937 633.500000061478  C 447.13144557414 633.499439410186  448.262880804162 633.493066630475  449.394260906458 633.480881974584  L 449.383491803046 632.48093996306  C 448.255701271749 632.493085960247  447.127855794573 632.49943936914  445.999999999938 632.499999938336  C 443.799719639936 632.498906350486  441.599505464912 632.475766237857  439.399688804086 632.430583085109  L 439.379153626847 633.430372216123  Z M 426.370831551158 632.906630349343  C 429.703284819682 633.106630652442  433.03857808465 633.256109515272  436.375562131294 633.35501543312  L 436.405188434924 632.355454388394  C 433.078304611223 632.256847834225  429.75310645162 632.107821406834  426.430739692497 631.90842645504  L 426.370831551158 632.906630349343  Z M 413.393242738559 631.870803443456  C 416.715229330001 632.201937848822  420.042044117022 632.482701925281  423.372540806214 632.712998932248  L 423.441524029887 631.715381112213  C 420.121107928015 631.485781157159  416.80436258411 631.205866883913  413.492430822033 630.875734740252  L 413.393242738559 631.870803443456  Z M 400.466538052835 630.324499871727  C 403.772899774851 630.786254212638  407.086070394622 631.197867548194  410.404908320022 631.559198052151  L 410.5131413505 630.56507250117  C 407.204348724235 630.204835655017  403.90120625007 629.794468170924  400.604852064816 629.33411144586  L 400.466538052835 630.324499871727  Z M 387.610789347786 628.270120646631  C 390.896392269435 628.861777937139  394.190774218557 629.403601401953  397.492800076884 629.895404349388  L 397.640114856057 628.906314689227  C 394.348083410909 628.416000307318  391.063672738748 627.875816807729  387.788014522121 627.285950317073  L 387.610789347786 628.270120646631  Z M 374.84622268314 625.712613387232  C 376.86090593749 626.155300564857  378.879252522024 626.581148087092  380.901051123846 626.990111369388  C 382.151361720763 627.242054351884  383.40312075472 627.486755087469  384.656265266072 627.724201268447  L 384.842433051908 626.741683301427  C 383.593203057362 626.504978844215  382.34535407692 626.261043197304  381.098948861344 626.009888627521  C 379.0827311446 625.602052120338  377.069955724724 625.177378992156  375.06083330609 624.735913699243  L 374.84622268314 625.712613387232  Z M 362.183673166776 622.696051264254  C 365.4166019758 623.52652371791  368.660610445018 624.313251358804  371.914809290252 625.056018520286  L 372.13733521048 624.081091746202  C 368.891923236226 623.340330177963  365.656674122288 622.555726830818  362.432474751655 621.727496789089  L 362.183673166776 622.696051264254  Z M 349.634954179406 619.236360660719  C 352.836701308166 620.179932864622  356.051058548966 621.080176641507  359.277144745958 621.9368452064  L 359.533794434607 620.970340712196  C 356.316419199831 620.115985293029  353.110741251128 619.218172322092  349.917639365105 618.277147918004  L 349.634954179406 619.236360660719  Z M 337.21556798645 615.337815562048  C 340.382178104218 616.39332185883  343.562913207766 617.405969640819  346.756901358123 618.375481309587  L 347.047357758798 617.418593082412  C 343.861993900663 616.451699254271  340.689847303924 615.441785787491  337.531787553197 614.389129530947  L 337.21556798645 615.337815562048  Z M 324.940857079942 611.005232099746  C 328.068418263066 612.171368552422  331.211601856198 613.295169348507  334.369546214366 614.376326419038  L 334.693450507 613.430236566427  C 331.544033116891 612.351998797429  328.409336635342 611.23123244794  325.290220380718 610.068244755077  L 324.940857079942 611.005232099746  Z M 566.850724026893 611.082871492952  C 569.978984962405 609.918613488965  573.091363024585 608.712116855167  576.187005013267 607.46371233002  L 575.812994986733 606.53628766998  C 572.725711739495 607.781321298013  569.621737608892 608.984560192887  566.501923491335 610.145674509179  L 566.850724026893 611.082871492952  Z M 316.740923463737 607.836469803441  C 318.53189273284 608.553112144241  320.328433822419 609.255750640281  322.130382236642 609.94432095621  L 322.487334280763 609.01019824575  C 320.69109219737 608.323808463954  318.900237780293 607.623401608667  317.114934851282 606.909041750914  L 316.740923463737 607.836469803441  Z M 319.894936271285 613.562350660355  L 317.306465847918 607.522586339167  L 323.346230169106 604.934115915801  L 322.952310870527 604.014970885783  L 316.45297403433 606.800400958439  L 315.993401519321 606.997360607729  L 316.190361168611 607.456933122737  L 318.975791241266 613.956269958934  L 319.894936271285 613.562350660355  Z " fill-rule="nonzero" fill="#000000" stroke="none" />
  </g>
</svg>