<?xml version="1.0" encoding="utf-8"?>
<svg version="1.1" xmlns:xlink="http://www.w3.org/1999/xlink" width="152px" height="14px" viewBox="442 664  152 14" xmlns="http://www.w3.org/2000/svg">
  <g transform="matrix(-0.829037572555046 0.559192903470746 -0.55919290347074 -0.82903757255504 1322.65990081238 937.622287186585 )">
    <path d="M 558.766855295095 698.786131811466  C 561.278022461861 700.971921121797  563.761764876064 703.189019502702  566.217500274562 705.436907200334  L 566.892701923148 704.699274003043  C 564.430818623072 702.445758747844  561.940858192114 700.223109890046  559.423404351061 698.031848484651  L 558.766855295095 698.786131811466  Z M 548.836625168243 690.422317410265  C 551.417501653789 692.525341902504  553.971985384302 694.660550201774  556.499477512768 696.8274417517  L 557.150350218001 696.068254869844  C 554.616530545924 693.895938535156  552.055651698682 691.755384769735  549.468314022483 689.647095383083  L 548.836625168243 690.422317410265  Z M 538.639825548938 682.385642772475  C 541.287684763588 684.403680687888  543.910211103573 686.454743145909  546.506789770705 688.538349316482  L 547.132645912386 687.758410799725  C 544.5295667444 685.669588348258  541.900474943887 683.613391082093  539.2459868482 681.590301035059  L 538.639825548938 682.385642772475  Z M 528.187228935899 674.684598313762  C 530.899273525465 676.615517678419  533.58707188391 678.580267432221  536.249993911304 680.57838697935  L 536.850172298202 679.778520800606  C 534.18058368021 677.775398987225  531.486056453602 675.805730508019  528.767222295744 673.869977111892  L 528.187228935899 674.684598313762  Z M 517.489563401133 667.328876406693  C 517.90929128168 667.606886856735  518.328429335483 667.885786776771  518.746974737185 668.165574286774  C 521.094835737456 669.737592896783  523.425950646529 671.334479392345  525.739925816841 672.955964112589  L 526.313792385217 672.137015297521  C 523.993922603493 670.511400013363  521.656868671527 668.910446697441  519.30302527438 667.334425721073  C 518.883202079783 667.053783404367  518.46278427642 666.774031606272  518.041774699679 666.495172213494  L 517.489563401133 667.328876406693  Z M 506.538388792022 660.358961778511  C 509.378681881402 662.0947854525  512.194505443611 663.870334585072  514.985029765922 665.68508599156  L 515.530210410124 664.846767397475  C 512.731852608684 663.026921673352  509.908124548065 661.246388270642  507.059858270113 659.505691842664  L 506.538388792022 660.358961778511  Z M 495.340543163075 653.792669939606  C 498.242193486342 655.423857869389  501.120837886406 657.095636405439  503.975628139723 658.807512940225  L 504.489903510274 657.949887822096  C 501.627099372369 656.23320575704  498.740374125049 654.556734252662  495.830578372963 652.920967299326  L 495.340543163075 653.792669939606  Z M 483.910895885024 647.638720123206  C 486.870050405098 649.163106290525  489.807693155001 650.728894312436  492.722958526692 652.335622812653  L 493.205645728737 651.459829991844  C 490.282196708457 649.848591129876  487.336307492838 648.278407673142  484.368846119828 646.749742293087  L 483.910895885024 647.638720123206  Z M 472.26462413287 641.90528402272  C 475.277353454126 643.320844229009  478.270093723246 644.778562561611  481.241963097112 646.278009488136  L 481.692421181027 645.385211910499  C 478.712209261459 643.881555779954  475.711067858454 642.41974538263  472.689881290633 641.000211456695  L 472.26462413287 641.90528402272  Z M 460.417192732442 636.599974940719  C 463.479496318471 637.904829494993  466.523360113405 639.252542466455  469.547887210053 640.64271673699  L 469.965518022545 639.734099928617  C 466.932500560959 638.340023201101  463.880092119657 636.988526968782  460.809192123622 635.680009464566  L 460.417192732442 636.599974940719  Z M 448.381588231839 631.738092652179  C 451.10405303349 632.779558913882  453.813632542353 633.854400960161  456.50971452213 634.962375927757  C 456.892171485369 635.119993981942  457.274353614198 635.278278092598  457.656259169398 635.437227539413  L 458.040508147777 634.513998032402  C 457.657377580585 634.354538734458  457.273969441871 634.195747173395  456.890285477951 634.037624072463  C 454.186483453734 632.926472098433  451.469144435844 631.848549805244  448.738882483449 630.804100779749  L 448.381588231839 631.738092652179  Z M 436.174890144899 627.321707585441  C 439.325151532068 628.39697585583  442.460186783802 629.516346672849  445.579072128239 630.679490201846  L 445.928499237743 629.742526651251  C 442.800858648622 628.576117979399  439.657022816652 627.453604897015  436.49791810688 626.375318164653  L 436.174890144899 627.321707585441  Z M 423.815389947453 623.352993673766  C 427.002736087119 624.312771380696  430.176473033157 625.317177102015  433.335665609809 626.365914878766  L 433.650723382838 625.416842384352  C 430.482662412201 624.365160621261  427.300016243659 623.357935361269  424.103722678142 622.395463394133  L 423.815389947453 623.352993673766  Z M 411.319499545557 619.837220884292  C 414.539698031519 620.680233560247  417.747922336972 621.56834045779  420.943227124131 622.501279886676  L 421.223497202458 621.541358700748  C 418.01922264817 620.605800351295  414.801992308281 619.715200385768  411.572754174319 618.869821229025  L 411.319499545557 619.837220884292  Z M 398.703811954794 616.779057733693  C 401.952586756932 617.504185960844  405.191038291949 618.274814737173  408.418212315284 619.090716988627  L 408.663322534492 618.121221769226  C 405.427089281631 617.303029140584  402.179546859173 616.530237077454  398.921652190428 615.803073291328  L 398.703811954794 616.779057733693  Z M 385.984834666214 614.183401676367  C 386.967243894881 614.365546489997  387.948966250325 614.551376707042  388.929981001821 614.740888403383  C 391.216920704191 615.184443980292  393.499454468887 615.650421928167  395.777252872504 616.13875499541  L 395.986877756172 615.160973113727  C 393.702563854216 614.671243200616  391.413500796652 614.203933543729  389.120018984315 613.759111594027  C 388.136426639664 613.569101011852  387.152124740899 613.382782039252  386.167134078266 613.200158611624  L 385.984834666214 614.183401676367  Z M 373.182437996418 612.0243506767  C 376.473854978962 612.524560328413  379.758889750028 613.06589955987  383.036772199739 613.64824146505  L 383.211691175821 612.663658633691  C 379.925602590115 612.07985884314  376.632343777295 611.53716437597  373.332686775229 611.035702455913  L 373.182437996418 612.0243506767  Z M 360.316637104051 610.282504211609  C 363.622571736631 610.675482141913  366.923464195933 611.109775341088  370.218540654521 611.585281997883  L 370.361369354959 610.59553457438  C 367.058043715391 610.118837492865  363.748887514834 609.683457046326  360.434676517977 609.289495300893  L 360.316637104051 610.282504211609  Z M 347.401024177724 608.959702470125  C 350.717983876611 609.245033514028  354.031246767222 609.571821868045  357.340036122172 609.939990923264  L 357.450623654326 608.946124534994  C 354.133550788347 608.577033773344  350.811993187252 608.24942730894  347.486729522986 607.963381942487  L 347.401024177724 608.959702470125  Z M 334.449244030409 608.057342937793  C 337.773724564313 608.234725654802  341.095857560517 608.45366392523  344.414864212172 608.714106423431  L 344.493093744872 607.71717104929  C 341.165778003303 607.456076536687  337.835328090452 607.236590157154  334.502524762841 607.058763364824  L 334.449244030409 608.057342937793  Z M 321.474979684257 607.576378920285  C 324.803468876461 607.645625912866  328.130962281594 607.756482800441  331.456679836167 607.908923594855  L 331.502468723134 606.909972455995  C 328.168425277996 606.757150028038  324.832601536487 606.64601561169  321.49577951496 606.576595260166  L 321.474979684257 607.576378920285  Z M 568.420025050461 707.468249950725  C 570.858829953792 709.734494882797  573.269207080138 712.031141072225  575.650591365393 714.357650116821  L 576.349408634607 713.642349883179  C 573.962062584828 711.310016453509  571.545651110747 709.007620640264  569.100740691124 706.73570219354  L 568.420025050461 707.468249950725  Z M 316.996422781478 607.508323579126  C 317.490682855257 607.513062674493  317.984933706911 607.518719184536  318.479172782112 607.525293080024  L 318.492472649272 606.525381527169  C 317.996161830411 606.518780075328  317.499839166563 606.513101405851  317.003507231359 606.508345548185  L 316.996422781478 607.508323579126  Z M 322.007223757966 611.706191397357  L 317.407037726071 607.013940268092  L 322.099288855336 602.413754236196  L 321.399222113734 601.699676819313  L 316.349932276027 606.649896222009  L 315.992893567585 606.99992959281  L 316.342926938386 607.356968301252  L 321.293146341083 612.406258138958  L 322.007223757966 611.706191397357  Z " fill-rule="nonzero" fill="#000000" stroke="none" />
  </g>
</svg>