<?xml version="1.0" encoding="utf-8"?>
<svg version="1.1" xmlns:xlink="http://www.w3.org/1999/xlink" width="292px" height="10px" viewBox="282 688  292 10" xmlns="http://www.w3.org/2000/svg">
  <g transform="matrix(-0.788010753606724 0.615661475325656 -0.615661475325655 -0.788010753606719 1191.92200494436 975.588340810075 )">
    <path d="M 576.666149043416 819.711895063886  C 577.664198126281 820.896438780952  578.644638712568 822.095707507257  579.607147878491 823.309306244468  C 580.683420547315 824.686395444413  581.625624959504 826.163190054628  582.420911675922 827.7195500904  L 583.311389524964 827.264523497369  C 582.486566280367 825.650361072717  581.509269253372 824.118776192769  580.392844040012 822.690683597395  C 579.423490474399 821.468398672471  578.436063520624 820.260556631915  577.430888895797 819.067555899951  L 576.666149043416 819.711895063886  Z M 567.916566370661 810.15802305973  C 570.260205034243 812.513824165264  572.528356618532 814.943537946634  574.717584203391 817.443482669216  L 575.469895982084 816.78467542302  C 573.266705360847 814.268785889882  570.984087357762 811.823575235481  568.625500813867 809.452748676786  L 567.916566370661 810.15802305973  Z M 558.551524593319 801.166490977191  C 560.514189298718 803.011094671516  562.465348160498 804.867902494852  564.404887685718 806.736806442369  C 564.868400398962 807.174463758446  565.329239579101 807.614943916627  565.787379514265 808.058222340942  L 566.482733864777 807.339555292008  C 566.022887684568 806.894625971193  565.560339339673 806.452497920783  565.095114501408 806.013195678773  C 563.153786204427 804.142597275084  561.200835300596 802.284098565233  559.236375244947 800.437807517131  L 558.551524593319 801.166490977191  Z M 548.997510071037 792.365639649082  C 551.469778843867 794.597679448383  553.924822476392 796.848724597622  556.36242259054 799.118574864551  L 557.043899094142 798.386734871768  C 554.602541812165 796.11338599637  552.143714125449 793.858871223733  549.667634748638 791.623391094708  L 548.997510071037 792.365639649082  Z M 539.269211835864 783.757829762764  C 541.785671943773 785.939925790892  544.28529086312 788.141368217976  546.767846250753 790.36196122391  L 547.434534260822 789.61662432208  C 544.948152414036 787.392608629799  542.444680734901 785.187773033941  539.924341909176 783.002313656355  L 539.269211835864 783.757829762764  Z M 529.390975815891 775.314813534453  C 531.931353825891 777.471937546477  534.467444228675 779.634105861451  536.999232012145 781.801305680667  L 537.649520923209 781.041618684499  C 535.116727066928 778.873557671137  532.579628881573 776.71053016142  530.038241385207 774.55254895914  L 529.390975815891 775.314813534453  Z M 519.461823481938 766.927655387305  C 522.013308818796 769.071629970349  524.560532658666 771.220670933888  527.103479923548 773.374765556919  L 527.749836495894 772.611730052251  C 525.205878723687 770.456779442771  522.657642677081 768.306884500989  520.105143440067 766.162057952962  L 519.461823481938 766.927655387305  Z M 509.489485214102 758.591891635377  C 512.052009814913 760.72265959721  514.610299142643 762.858515881934  517.164338053791 764.999447846589  L 517.806745045344 764.233084188002  C 515.251691219312 762.091301467428  512.692385287681 759.954596443742  510.128842399971 757.822981764925  L 509.489485214102 758.591891635377  Z M 499.474227032454 750.30774464181  C 502.047722540024 752.425249142658  504.617009110824 754.54786377258  507.182071537406 756.675575967952  L 507.820511811447 755.905904598807  C 505.254430089686 753.7773469009  502.684122544557 751.65388879362  500.1096043907 749.535542846534  L 499.474227032454 750.30774464181  Z M 489.416316101986 742.075435392827  C 492.000713865888 744.179619946253  494.580929142758 746.288936299571  497.156946659307 748.403371966924  L 497.791403184933 747.630413418818  C 495.214362019719 745.515137524551  492.633121426092 743.404982978613  490.047696683412 741.299962271824  L 489.416316101986 742.075435392827  Z M 479.316020725489 733.895183491838  C 481.911251805238 735.985991967356  484.50232695811 738.081953775746  487.089230847689 740.183056511138  L 487.719686700267 739.406831403357  C 485.131754836227 737.3048937394  482.539650050753 735.20809904486  479.943387687515 733.116459731473  L 479.316020725489 733.895183491838  Z M 469.173610336391 725.767207153582  C 471.779605501743 727.844583776899  474.381471412395 729.927135129534  476.979192666897 732.014848884062  L 477.605631028513 731.235377923028  C 475.006877500598 729.146834560089  472.403977670126 727.063455650925  469.796946943504 724.985253526931  L 469.173610336391 725.767207153582  Z M 458.989355491574 717.691723198306  C 461.606045225724 719.7556125539  464.218632486922 721.82469789675  466.827101810255 723.898966979143  L 467.449505970167 723.116270957866  C 464.840000102586 721.041177609814  462.226374660768 718.971270061199  459.608645115772 716.906560564605  L 458.989355491574 717.691723198306  Z M 448.764321779642 709.66570875595  C 449.073473966237 709.908336945212  449.382608791926 710.150987134835  449.691726370676 710.393659414275  C 452.008737871175 712.203592294441  454.322575665189 714.017584373366  456.633229092877 715.835627293999  L 457.251582447959 715.049727091519  C 454.940327392108 713.23121080443  452.625887576966 711.416745858814  450.308273661863 709.606340611327  C 449.999435477993 709.363887743362  449.690579999425 709.121456859046  449.381707274429 708.879047996267  L 448.764321779642 709.66570875595  Z M 438.532044375794 701.648226497931  C 441.157321186173 703.701927897926  443.781355620195 705.757216948745  446.404146240392 707.814092524482  L 447.021246218109 707.027207769578  C 444.398138312745 704.970083368751  441.773786439527 702.914545681978  439.14819204322 700.860595840881  L 438.532044375794 701.648226497931  Z M 428.287171725769 693.64684492899  C 430.915674839836 695.696415408577  433.542938075746 697.747575490724  436.168959994257 699.800324051789  L 436.784821792723 699.012469848785  C 434.158482198146 696.959472961885  431.53090113244 694.908064743281  428.902080042152 692.858246322319  L 428.287171725769 693.64684492899  Z M 418.029729164297 685.661583835885  C 420.661452081981 687.707018326645  423.29193762277 689.754044367772  425.921184345661 691.802660837886  L 426.535806441899 691.013839135081  C 423.906241652831 688.964974839  421.275437892431 686.917701161527  418.643396609018 684.872019229732  L 418.029729164297 685.661583835885  Z M 407.759742057184 677.692462965506  C 410.394678270451 679.733756409249  413.028379611147 681.776643347229  415.660844636507 683.821122660333  L 416.274225510607 683.031335408418  C 413.641442029744 680.986608769829  411.007422080411 678.943474696226  408.372167112695 676.9019343124  L 407.759742057184 677.692462965506  Z M 397.477235801261 669.739502024833  C 400.115378794132 671.776649373608  402.752289421809 673.815392156551  405.387966239768 675.855729256817  L 406.000104374891 675.064978408871  C 403.36410871289 673.024394484213  400.726879088336 670.98540506698  398.088416953085 668.948011279685  L 397.477235801261 669.739502024833  Z M 387.182235824317 661.802720680881  C 389.823579072881 663.835716896991  392.463692466676 665.870310483254  395.102574559424 667.906500325097  L 395.713468441802 667.11478783658  C 393.074267117263 665.078351672049  390.43383433914 663.043511953441  387.792171561054 661.010269800983  L 387.182235824317 661.802720680881  Z M 376.874767585038 653.882138560656  C 379.519304557472 655.91097861667  382.162614188602 657.941417974869  384.804695030402 659.973455522959  L 385.414343149345 659.180783351712  C 382.771942688793 657.148499983247  380.128313286676 655.117814995255  377.483456398367 653.088729505673  L 376.874767585038 653.882138560656  Z M 366.554856572942 645.977775251104  C 369.202580729522 648.002454129867  371.849080061303 650.028734238895  374.494353118507 652.056614468171  L 375.102753966405 651.262984574407  C 372.457160904281 649.234859027676  369.810341415642 647.208333792015  367.162296957625 645.183409983072  L 366.554856572942 645.977775251104  Z M 356.222528308317 638.089650299063  C 358.873433101443 640.110162993712  361.523115589297 642.132278842744  364.171574320362 644.155996738425  L 364.778726392691 643.361411084725  C 362.129947271327 641.337448375116  359.479944241536 639.315087903217  356.828718762205 637.294330782381  L 356.222528308317 638.089650299063  Z M 345.877808342159 630.217783211215  C 348.53188721636 632.234124725188  351.184746307845 634.2520713137  353.836384163351 636.271621871299  L 354.442285958674 635.476082422607  C 351.790327328282 633.456287555213  349.137147310576 631.438096848205  346.482747366193 629.421511412643  L 345.877808342159 630.217783211215  Z M 335.520722256107 622.362193454038  C 338.177968648066 624.374358801089  340.833997782876 626.388131138864  343.488808205543 628.403509364199  L 344.093458225514 627.60701808782  C 341.438326644169 625.591396057427  338.781976199644 623.577380106129  336.124408354322 621.56497134269  L 335.520722256107 622.362193454038  Z M 325.151295662378 614.522900453756  C 327.811703000943 616.530884657967  330.470895610942 618.540477765113  333.12887203564 620.551678674321  L 333.73226878501 619.75423753991  C 331.073970818634 617.742793330985  328.414456516225 615.732957115893  325.753727341909 613.724730001097  L 325.151295662378 614.522900453756  Z M 583.388894580117 830.330585908116  C 583.428047527129 830.791954314916  583.390335987191 831.256621998111  583.277297912925 831.70563887287  C 582.914586929673 832.463410422007  582.137584057775 832.934485878773  581.297973797013 832.905648609917  C 579.561424020879 833.056840629279  577.811843496519 832.924585837987  576.117754952964 832.514064025768  L 575.882245047036 833.485935974232  C 577.663556904738 833.917594269031  579.502749027093 834.059640000968  581.329217138583 833.906620212804  C 582.580741211875 833.92322828447  583.720576971935 833.188891302791  584.222799371052 832.042435461558  C 584.381540714419 831.457732138708  584.436544551894 830.849725895481  584.385313078208 830.246027190869  L 583.388894580117 830.330585908116  Z M 316.498351690873 608.000852675168  C 318.585179720852 609.571629383343  320.671263148388 611.143395073767  322.756601272911 612.716149218591  L 323.358743259529 611.917760198156  C 321.273120671559 610.344791512073  319.186752666731 608.772811429981  317.099639947077 607.201820480832  L 316.498351690873 608.000852675168  Z M 318.032547529895 614.355523454218  L 317.123104915589 607.847693837562  L 323.630934532244 606.938251223257  L 323.49253349297 605.947874955201  L 316.489515742287 606.926518089144  L 315.994327608259 606.995718608781  L 316.063528127896 607.490906742809  L 317.042171261839 614.493924493493  L 318.032547529895 614.355523454218  Z " fill-rule="nonzero" fill="#000000" stroke="none" />
  </g>
</svg>