<?xml version="1.0" encoding="utf-8"?>
<svg version="1.1" xmlns:xlink="http://www.w3.org/1999/xlink" width="98px" height="62px" xmlns="http://www.w3.org/2000/svg">
  <defs>
    <linearGradient gradientUnits="userSpaceOnUse" x1="49" y1="0" x2="49" y2="62" id="LinearGradient69">
      <stop id="Stop70" stop-color="#ffffff" offset="0" />
      <stop id="Stop71" stop-color="#f2f2f2" offset="0" />
      <stop id="Stop72" stop-color="#e4e4e4" offset="1" />
      <stop id="Stop73" stop-color="#ffffff" offset="1" />
    </linearGradient>
    <mask fill="white" id="clip74">
      <path d="M 49 62  L 0 31  L 49 0  L 79.650505651398 19.3911362284355  L 98 31  L 75.4656160458453 45.2564469914041  L 49 62  Z " fill-rule="evenodd" />
    </mask>
  </defs>
  <g transform="matrix(1 0 0 1 -587 -1219 )">
    <path d="M 49 62  L 0 31  L 49 0  L 79.650505651398 19.3911362284355  L 98 31  L 75.4656160458453 45.2564469914041  L 49 62  Z " fill-rule="nonzero" fill="url(#LinearGradient69)" stroke="none" transform="matrix(1 0 0 1 587 1219 )" />
    <path d="M 49 62  L 0 31  L 49 0  L 79.650505651398 19.3911362284355  L 98 31  L 75.4656160458453 45.2564469914041  L 49 62  Z " stroke-width="2" stroke="#797979" fill="none" transform="matrix(1 0 0 1 587 1219 )" mask="url(#clip74)" />
  </g>
</svg>