<?xml version="1.0" encoding="utf-8"?>
<svg version="1.1" xmlns:xlink="http://www.w3.org/1999/xlink" width="162px" height="14px" viewBox="672 1128  162 14" xmlns="http://www.w3.org/2000/svg">
  <g transform="matrix(-0.956304755963036 -0.292371704722733 0.292371704722733 -0.956304755963028 1141.25559637986 2440.56179167425 )">
    <path d="M 820.008151593811 1112.66104260766  C 820.901144617412 1112.20841157634  821.792567916485 1111.75269028055  822.68240546416 1111.29388691367  L 822.22413141678 1110.4050759678  C 821.336345297148 1110.86282161117  820.44697708193 1111.31749228884  819.556042760995 1111.76907982632  L 820.008151593811 1112.66104260766  Z M 816.427876292472 1114.45505071072  C 817.325009992496 1114.01068316584  818.220602564573 1113.5632109963  819.114637906738 1113.11264224725  L 818.664588976931 1112.21963834985  C 817.772614740367 1112.66916835945  816.879086864016 1113.11560892835  815.984021412534 1113.55895203002  L 816.427876292472 1114.45505071072  Z M 812.831191116698 1116.21592891594  C 813.73238902741 1115.77986273244  814.632074538046 1115.34067782875  815.530231473049 1114.89838210103  L 815.088446020017 1114.00126136585  C 814.192359692541 1114.44253742671  813.29474831343 1114.88070983521  812.395628020899 1115.31577071341  L 812.831191116698 1116.21592891594  Z M 809.218402624201 1117.94352713766  C 810.123587933438 1117.51579948296  811.027289699374 1117.08493927834  811.929491674246 1116.65095427031  L 811.496007352866 1115.74979316201  C 810.59588531094 1116.18277766268  809.694266935589 1116.61264456383  808.791168437065 1117.03938613685  L 809.218402624201 1117.94352713766  Z M 805.589818745233 1119.63769812683  C 806.498914300996 1119.21834545758  807.406555296611 1118.79584667575  808.312725413631 1118.37020937741  L 807.887579171245 1117.46508470502  C 806.983498135311 1117.88974074076  806.077949611766 1118.31126549553  805.170949881384 1118.72965139075  L 805.589818745233 1119.63769812683  Z M 801.945748756342 1121.29829748347  C 802.858677073301 1120.88735554255  803.770179937311 1120.47325419448  804.680240960495 1120.05600088438  L 804.263469033764 1119.14698979474  C 803.35550606177 1119.56328117066  802.446104572919 1119.9764278511  801.535280917397 1120.38642240804  L 801.945748756342 1121.29829748347  Z M 798.286503254009 1122.92518366907  C 799.203186520177 1122.52268748246  800.118473562094 1122.11701886342  801.032347923844 1121.70818510546  L 800.623985835658 1120.79536507669  C 799.712218316329 1121.20325631088  798.799041373648 1121.60798970304  797.884471425539 1122.0095579765  L 798.286503254009 1122.92518366907  Z M 794.612394128175 1124.51821801857  C 795.532754211496 1124.12420189239  796.451747418338 1123.72700057888  797.369357226011 1123.32662121937  L 796.969439782459 1122.41007005422  C 796.053945428867 1122.80952638071  795.137070865487 1123.20581198782  794.218832576721 1123.59891975075  L 794.612394128175 1124.51821801857  Z M 790.92373453566 1126.07726475225  C 791.847692990761 1125.69176226982  792.770314033517 1125.3030621167  793.691581076154 1124.91117128131  L 793.30014236356 1123.99096710055  C 792.380999206402 1124.38195447232  791.46050517066 1124.7697585176  790.538676805811 1125.1543722641  L 790.92373453566 1126.07726475225  Z M 787.220838873468 1127.60219098723  C 788.148316948203 1127.22523500625  789.074487188789 1126.84506914373  789.999332943643 1126.46170023467  L 789.616406325661 1125.53792147044  C 788.693692706636 1125.9204065623  787.76965765537 1126.2996959919  786.844317785004 1126.67578294002  L 787.220838873468 1127.60219098723  Z M 783.504022751993 1129.09286674888  C 784.43494139425 1128.72448939859  785.364581892027 1128.3528902295  786.292927531348 1127.9780759226  L 785.918545646115 1127.0508013117  C 784.992340211291 1127.42475152314  784.064842903056 1127.79549400896  783.136070397087 1128.16302210352  L 783.504022751993 1129.09286674888  Z M 779.773602968115 1130.54916498183  C 780.707882832532 1130.18939766028  781.640914351078 1129.82639685729  782.57268074881 1129.46016909924  L 782.206875506168 1128.52947767645  C 781.277257199089 1128.89486113444  780.346376687827 1129.25702507677  779.414250708598 1129.61596299213  L 779.773602968115 1130.54916498183  Z M 776.029897478203 1131.97096156082  C 776.96745893293 1131.61983493221  777.903801946794 1131.2654634351  778.838909685317 1130.90785344074  L 778.481712264091 1129.97382453205  C 777.548760319311 1130.33061009372  776.614575947087 1130.68416462412  775.679175942891 1131.03448176677  L 776.029897478203 1131.97096156082  Z M 772.273225371011 1133.3581353013  C 773.213988504494 1133.01567929334  774.153563205977 1132.66996730641  775.091932582877 1132.32100555606  L 774.743373428219 1131.38371877193  C 773.807167364478 1131.7318760272  772.86975875486 1132.07679101106  771.931164453093 1132.41845752225  L 772.273225371011 1133.3581353013  Z M 768.50390684048 1134.71056796973  C 769.447791468279 1134.37681177111  770.390517774232 1134.03978876057  771.332068809096 1133.69950499742  L 770.992177629887 1132.759040226  C 770.052797243165 1133.09853950026  769.112244294773 1133.43478553926  768.170535694972 1133.76777229762  L 768.50390684048 1134.71056796973  Z M 764.722263158452 1136.02814429367  C 765.669188830093 1135.70311635156  766.614986388697 1135.37481104304  767.559638829951 1135.04323427063  L 767.228444596274 1134.09967167092  C 766.285969953108 1134.43048402751  765.342352832567 1134.75803246224  764.39761019971 1135.08231108618  L 764.722263158452 1136.02814429367  Z M 760.928616647281 1137.31075197161  C 761.878502653019 1136.99447998927  762.82729085083 1136.67492036531  763.774964182484 1136.35207884508  L 763.45249512315 1135.40549884013  C 762.507006553956 1135.72759608275  761.560405688768 1136.0464189952  760.612709546582 1136.36196184533  L 760.928616647281 1137.31075197161  Z M 757.123290652365 1138.55828168254  C 758.076056030208 1138.25079261689  759.027753998731 1137.94000591466  759.978367447388 1137.62592716348  L 759.664651047531 1136.67641043353  C 758.716229139469 1136.98976510876  757.766725211743 1137.29983532453  756.816156335545 1137.60661550607  L 757.123290652365 1138.55828168254  Z M 753.306609514582 1139.77062709525  C 754.262173057072 1139.47194715464  755.216699679901 1139.16995986354  756.170172221518 1138.86467065141  L 755.865235220255 1137.912298127  C 754.913960810525 1138.21688352656  753.96163474976 1138.5181746173  753.008274159744 1138.81616598234  L 753.306609514582 1139.77062709525  Z M 749.476883317146 1140.94398241302  C 750.435786519835 1140.65571781049  751.393567221141 1140.3637323421  752.350203776702 1140.06803260628  L 752.054886499786 1139.11263336724  C 751.100722178289 1139.40756892679  750.14541666783 1139.69879981768  749.188991556897 1139.98631945854  L 749.476883317146 1140.94398241302  Z M 745.63537646571 1142.07716860547  C 746.597211951972 1141.7988444589  747.557963509363 1141.51678802746  748.517609426384 1141.23100568521  L 748.232196715849 1140.27260097703  C 747.275030809979 1140.55764477251  746.316762121013 1140.83897228604  745.357412304402 1141.11657716004  L 745.63537646571 1142.07716860547  Z M 741.782346480753 1143.17053303302  C 742.747011205973 1142.90217916018  743.710630691033 1142.63008198332  744.673183159475 1142.35424765144  L 744.397705592521 1141.39294015115  C 743.4376406466 1141.66806164489  742.476511441595 1141.93945564153  741.514339697598 1142.20711600795  L 741.782346480753 1143.17053303302  Z M 737.918206150016 1144.22395855994  C 738.885596766521 1143.96560371047  739.851980943486 1143.70349493885  740.81733684197 1143.43763816837  L 740.551823931412 1142.47353086401  C 739.588962800348 1142.73870058134  738.625076048227 1143.00013198574  737.66018545746 1143.25781916926  L 737.918206150016 1144.22395855994  Z M 734.043369451525 1145.2373323293  C 735.013382319613 1144.98900418159  735.982427656524 1144.7369118958  736.950483563332 1144.48106116883  L 736.694963754439 1143.51425734837  C 735.729409592703 1143.76944688078  734.762868557816 1144.02088768496  733.795362492171 1144.2685740787  L 734.043369451525 1145.2373323293  Z M 730.158251509247 1146.21054577505  C 731.130782708231 1145.97227093332  732.102385388134 1145.73022214082  733.073037592237 1145.48440486749  L 732.827538259684 1144.51500810779  C 731.859394510259 1144.760190116  730.890302741317 1145.00161338226  729.920284852894 1145.23927245077  L 730.158251509247 1146.21054577505  Z M 726.26326854861 1147.14349463364  C 727.238213888033 1146.91529862505  728.212269819945 1146.68331925732  729.185414332188 1146.44756177284  L 728.949961777124 1145.47567592856  C 727.979332160426 1145.71082414542  727.007793479409 1145.9422040093  726.035367689406 1146.16981029137  L 726.26326854861 1147.14349463364  Z M 722.358837851912 1148.03607895519  C 723.336092882708 1147.81798622713  724.312497712772 1147.59610113689  725.288030277017 1147.37042869873  L 725.062649724247 1146.39615789118  C 724.089638227011 1146.62124712448  723.115756718044 1146.84255879751  722.141027205624 1147.06008790894  L 722.358837851912 1148.03607895519  Z M 718.445377713622 1148.88820311423  C 719.424837739203 1148.68023703168  720.403486862068 1148.4684699902  721.381302966261 1148.25290677539  L 721.166018561542 1147.27635538141  C 720.190729425655 1147.49136151662  719.214609423911 1147.70258128892  718.237680615019 1147.91000992511  L 718.445377713622 1148.88820311423  Z M 714.52330739556 1149.69977581989  C 715.504867483186 1149.50195866295  716.485656052911 1149.30033235753  717.465650940431 1149.09490146006  L 717.260485747888 1148.1161741008  C 716.283023459325 1148.32107410358  715.304769539638 1148.52217934653  714.325746095913 1148.71948528495  L 714.52330739556 1149.69977581989  Z M 710.593047081982 1150.47071012573  C 711.576602073902 1150.2830630872  712.559425015392 1150.09159911872  713.541493696171 1149.89632254708  L 713.346469695824 1148.91552407681  C 712.366938973302 1149.11029599557  711.386655939273 1149.30126516408  710.405642746682 1149.48842726671  L 710.593047081982 1150.47071012573  Z M 706.655017834569 1151.20092343903  C 707.64046235931 1151.02346662215  708.625214379518 1150.84218550278  709.609251641319 1150.65708417759  L 709.424389726728 1149.67431967246  C 708.442895510585 1149.85894264064  707.460688383153 1150.03975527556  706.477790540857 1150.21675349112  L 706.655017834569 1151.20092343903  Z M 702.70964154731 1151.89033752963  C 703.696870030942 1151.72308994594  704.683445630205 1151.55201109691  705.669346049863 1151.37710484869  L 705.494666025892 1150.3924795955  C 704.511313466797 1150.56693383384  703.527287473083 1150.7375705641  702.542610282126 1150.90438593019  L 702.70964154731 1151.89033752963  Z M 698.757340901306 1152.53887853836  C 699.746247578856 1152.38185810563  700.734541061993 1152.22099985519  701.722199016812 1152.05630742221  L 701.557719597505 1151.06992690708  C 700.572614045294 1151.23419372572  699.586874607129 1151.39463627048  698.600523559258 1151.5512509156  L 698.757340901306 1152.53887853836  Z M 694.798539319491 1153.14647698488  C 695.789018246091 1152.99970052522  696.778923734081 1152.84908010664  697.768233412974 1152.69461913295  L 697.613972219551 1151.70658903007  C 696.627219211813 1151.86065083055  695.639871934695 1152.01088200107  694.651952700935 1152.1572791466  L 694.798539319491 1153.14647698488  Z M 690.833660921261 1153.71306777518  C 691.825605983706 1153.57655101324  692.817017424625 1153.43618456298  693.807872839654 1153.29197159648  L 693.663846398621 1152.30239775675  C 692.675551649366 1152.44623803396  691.686702311201 1152.58624173545  690.697320730503 1152.72240569738  L 690.833660921261 1153.71306777518  Z M 686.863130477044 1154.23859020852  C 687.856435404955 1154.1123477698  688.849246585747 1153.98225032577  689.841541583268 1153.84830081647  L 689.707765324652 1152.85728925618  C 688.718034713214 1152.99089260002  687.727789252522 1153.12065383346  686.737051320656 1153.24657002409  L 686.863130477044 1154.23859020852  Z M 682.887373362791 1154.72298798397  C 683.881931740204 1154.60703339322  684.876036297647 1154.48721889321  685.869664569895 1154.36354719155  L 685.746152825584 1153.37120408102  C 684.755092385024 1153.49455617813  683.763556890101 1153.61406104176  682.771568748045 1153.72971597128  L 682.887373362791 1154.72298798397  Z M 678.906815514401 1155.16620920641  C 679.902520790989 1155.06055488623  680.897812223453 1154.95103616634  681.892667319746 1154.83765552169  L 681.779433321958 1153.84408717389  C 680.787149227833 1153.95717480915  679.794429925128 1154.06641050002  678.801297847826 1154.17179177794  L 678.906815514401 1155.16620920641  Z M 674.921122227812 1155.5655478833  C 675.831358576558 1155.47939172611  676.741286707484 1155.39000973075  677.650889475239 1155.29740358141  C 677.73758796949 1155.28849001629  677.824283450083 1155.27954715999  677.910975901581 1155.2705750141  L 677.808031781447 1154.27588787327  C 677.721727700058 1154.2848198252  677.635420610243 1154.29372267402  677.549110524567 1154.30259641845  C 676.642022682989 1154.39494534763  675.734610440319 1154.48407961971  674.826890888189 1154.56999755578  L 674.921122227812 1155.5655478833  Z M 670.931886657189 1155.92231867594  C 671.92964949618 1155.83828802482  672.927082414865 1155.75038490619  673.924162872803 1155.65861130651  L 673.832507973369 1154.66282047536  C 672.838004268596 1154.75435690469  671.843149013908 1154.84203285546  670.847964691559 1154.92584634633  L 670.931886657189 1155.92231867594  Z M 666.93917206247 1156.23778024494  C 667.937751204009 1156.16408132173  668.936040524434 1156.08650672365  669.93401746395 1156.00505820374  L 669.852674289801 1155.00837205052  C 668.857276420226 1155.08961008317  667.861566976996 1155.16698420537  666.865568461667 1155.24049266859  L 666.93917206247 1156.23778024494  Z M 662.943406196264 1156.51189879386  C 663.942694659267 1156.44853949418  664.941733431474 1156.38130172746  665.940499935999 1156.31018701318  L 665.869477201697 1155.31271231615  C 664.873291807558 1155.38364324881  663.876834849405 1155.4507072531  662.880128845684 1155.51390281346  L 662.943406196264 1156.51189879386  Z M 658.945017138075 1156.74464495549  C 659.944907865543 1156.69163206722  660.944589059128 1156.63473833528  661.944038127582 1156.57396504537  L 661.883343442025 1155.57580866727  C 660.886477247906 1155.63642490088  659.889379528583 1155.69317160246  658.892072816828 1155.74604748962  L 658.945017138075 1156.74464495549  Z M 654.944433248437 1156.93599379497  C 655.944819118745 1156.89333299756  656.945035634687 1156.84678939559  657.945060192761 1156.7963640409  L 657.89470005837 1155.79763291749  C 656.897259861842 1155.84792795804  655.899628203646 1155.89435127745  654.901827628622 1155.93690182665  L 654.944433248437 1156.93599379497  Z M 650.942083123025 1157.08592481246  C 651.942856961604 1157.0536206763  652.943501643323 1157.01743219069  653.943994555158 1156.97736017345  L 653.90397436718 1155.97816130207  C 652.906067027333 1156.01812976127  651.908008309713 1156.05422472505  650.909820769121 1156.0864453777  L 650.942083123025 1157.08592481246  Z M 646.938395546733 1157.19442194537  C 647.939450137401 1157.1724779313  648.94041578255 1157.14664843904  649.94126986206 1157.11693405229  L 649.911593907987 1156.11737448041  C 648.913326333832 1156.14701207632  647.914947482247 1156.17277481747  646.916479915113 1156.19466212167  L 646.938395546733 1157.19442194537  Z M 642.933799447746 1157.26147357005  C 643.935027544188 1157.24989202901  644.936206916138 1157.23442429729  645.93731493849 1157.21507072443  L 645.917986397606 1156.21525753813  C 644.919465536846 1156.23456109558  643.920873510846 1156.24998885407  642.922232886303 1156.26154046496  L 642.933799447746 1157.26147357005  Z M 638.928723851576 1157.28707250302  C 639.930018188944 1157.28585467578  640.931304028065 1157.28075036171  641.932558741272 1157.27175967617  L 641.923579684307 1156.27179998871  C 640.924912511733 1156.28076743964  639.926214293808 1156.28585856264  638.927507599474 1156.28707324266  L 638.928723851576 1157.28707250302  Z M 634.923597835111 1157.2712160018  C 635.924851141482 1157.28036201883  636.926136176687 1157.28562166925  637.927430313075 1157.28699483422  L 637.928801701984 1156.28699577457  C 636.930095208136 1156.28562615827  635.931397791998 1156.28038010035  634.932732022651 1156.27125771936  L 634.923597835111 1157.2712160018  Z M 630.918850480636 1157.21390576515  C 631.919955488487 1157.2334146466  632.921132448772 1157.24903769803  633.922358736442 1157.26077456639  L 633.934080424303 1156.26084326774  C 632.935441603859 1156.24913673094  631.936851983291 1156.23355405413  630.938334129242 1156.21409558944  L 630.918850480636 1157.21390576515  Z M 626.914910829871 1157.11514793289  C 627.915760287512 1157.14501758871  628.916721913559 1157.17100236741  629.917773087828 1157.19310168176  L 629.93984381886 1156.19334527001  C 628.941379659271 1156.17130306688  627.943004816453 1156.14538544059  626.944741852196 1156.11559297686  L 626.914910829871 1157.11514793289  Z M 622.912207838004 1156.97495308527  C 623.91269452115 1157.01518031544  624.913333576656 1157.05152403756  625.914102391628 1157.08398343033  L 625.946519801321 1156.08450901267  C 624.948337271354 1156.05213350465  623.950284165407 1156.01588370554  622.952383038153 1155.97576043453  L 622.912207838004 1156.97495308527  Z M 618.911170327735 1156.79333624184  C 619.911187050992 1156.84391673668  620.911396334162 1156.8906155086  621.911775574218 1156.9334315023  L 621.954536189587 1155.93434615571  C 620.956742227758 1155.8916408113  619.959117783488 1155.84506272292  618.961685401607 1155.79461294317  L 618.911170327735 1156.79333624184  Z M 614.912226943335 1156.5703168598  C 615.91166657158 1156.63124520045  616.911338926816 1156.68829401918  617.911221417995 1156.7414620268  L 617.964320657955 1155.74287278656  C 616.967022161231 1155.68984218093  615.969933257364 1155.63294079335  614.973076479084 1155.5721699097  L 614.912226943335 1156.5703168598  Z M 610.915806104727 1156.30591883195  C 611.914561564739 1156.37718849095  612.913589893811 1156.44458124467  613.912868515447 1156.50809557014  L 613.976300691304 1155.5101094184  C 612.979604503544 1155.44675923288  611.983157961485 1155.37954064213  610.986983583342 1155.30845516517  L 610.915806104727 1156.30591883195  Z M 606.922335961581 1156.00017048411  C 607.920300253414 1156.08177382612  608.91857752714 1156.15950329482  609.917145223237 1156.23335713365  L 609.990903539294 1155.23608098793  C 608.994916439828 1155.16241800944  607.999219012164 1155.08488941686  607.003833757587 1155.00349696222  L 606.922335961581 1156.00017048411  Z M 602.932244347454 1155.65310457211  C 603.929310555919 1155.74503285469  604.92672982558 1155.83309071096  605.924479616307 1155.91727615094  L 606.008556170591 1154.92081685271  C 605.01338486276 1154.836848973  604.018543221874 1154.74901868449  603.024053729724 1154.657327972  L 602.932244347454 1155.65310457211  Z M 598.945972802399 1155.26381184557  C 599.639295748964 1155.3350916433  600.332789488188 1155.40470028113  601.026447977145 1155.47263715253  C 601.329364048501 1155.50207766537  601.632314747838 1155.53116079638  601.935299442017 1155.55988648481  L 602.029685227134 1154.56435078802  C 601.727606731767 1154.53571101544  601.425562115958 1154.50671501464  601.123552009935 1154.47736284612  C 600.431615913366 1154.40959406638  599.739844129407 1154.34015796808  599.048242683946 1154.26905515605  L 598.945972802399 1155.26381184557  Z M 594.964301247736 1154.83587734355  C 595.959219211306 1154.94745528234  596.954520486343 1155.05558839284  597.950187178204 1155.16027473091  L 598.054752740089 1154.16575673546  C 597.061381454372 1154.06131174087  596.068374743077 1153.95342792003  595.075750459535 1153.84210721259  L 594.964301247736 1154.83587734355  Z M 590.986750110926 1154.37120190705  C 591.980595576225 1154.49196026831  592.974856139561 1154.60927748685  593.969513925158 1154.72315145342  L 594.083256515816 1153.7296412003  C 593.09089181046 1153.61602975833  592.098923411561 1153.49898300245  591.107369153782 1153.37850303705  L 590.986750110926 1154.37120190705  Z M 587.013658412182 1153.86982514192  C 588.00634667038 1153.99975363302  588.999481777807 1154.12624496025  589.993045879073 1154.24929684946  L 590.115955803836 1153.25687901891  C 589.124682261434 1153.13411081305  588.133836723824 1153.00791109843  587.143437005325 1152.87828214398  L 587.013658412182 1153.86982514192  Z M 583.045364791627 1153.33178978222  C 584.03681123245 1153.47087732889  585.028736235837 1153.60653198355  586.021121967848 1153.73875130726  L 586.153188750683 1152.74751048643  C 585.163090860904 1152.61559598064  584.173452637615 1152.4802540637  583.184291873584 1152.34148716893  L 583.045364791627 1153.33178978222  Z M 579.082207480422 1152.75714168653  C 580.072327599621 1152.90537643388  581.062957953621 1153.05018285364  582.054080732067 1153.19155834235  L 582.195293116474 1152.20157901807  C 581.206455268728 1152.06052945588  580.218108709993 1151.91605687227  579.230271209968 1151.76816386474  L 579.082207480422 1152.75714168653  Z M 575.124524271949 1152.14592983406  C 576.11323367814 1152.30329914753  577.102484948112 1152.45724499006  578.09226029615 1152.60776459385  L 578.242606246118 1151.61913114544  C 577.255112722342 1151.46895854895  576.268142068453 1151.31536761258  575.281712029106 1151.15836109772  L 575.124524271949 1152.14592983406  Z M 571.172652493009 1151.49820632048  C 572.159866915151 1151.66469678695  573.147654783793 1151.82776893091  574.13599833953 1151.9874198205  L 574.295465040561 1151.00021651253  C 573.309400008264 1150.84093368149  572.323889381934 1150.67823748342  571.338950880131 1150.51213084343  L 571.172652493009 1151.49820632048  Z M 567.226928975076 1150.81402635347  C 568.212564269528 1150.98962378239  569.198804544319 1151.16180832859  570.18563206787 1151.33057689637  L 570.354205928076 1150.34488787155  C 569.369653432884 1150.17650838217  568.385686832639 1150.00472078956  567.402323817986 1149.82952818227  L 567.226928975076 1150.81402635347  Z M 563.287690025589 1150.093448248  C 564.2716621833 1150.2781376726  565.256270803628 1150.45941994518  566.241498184327 1150.63729180644  L 566.419164835584 1149.6532010784  C 565.43620879428 1149.47573928223  564.453870086889 1149.29487493711  563.472166374788 1149.11061129479  L 563.287690025589 1150.093448248  Z M 559.355271399283 1149.33653342141  C 560.33749655296 1149.53029909999  561.320389597282 1149.72066364762  562.303932860848 1149.90762364175  L 562.490677160023 1148.92521508788  C 561.50940135332 1148.7386861106  560.528774266802 1148.54876042866  559.548813531224 1148.35544145673  L 559.355271399283 1149.33653342141  Z M 555.430008269575 1148.54334638812  C 556.410402700851 1148.74617180538  557.391496393799 1148.94560240264  558.37327170952 1149.1416345944  L 558.56907773976 1148.16099194872  C 557.589565805083 1147.96541168883  556.610733921721 1147.76644085808  555.632599688003 1147.56408303376  L 555.430008269575 1148.54334638812  Z M 551.512235199992 1147.71395475416  C 552.490715346465 1147.92582262258  553.469926066188 1148.13430227135  554.449849753963 1148.33938995223  L 554.654700826054 1147.36059679826  C 553.677036250587 1147.15598192573  552.700082999452 1146.94798290513  551.723858637352 1146.73660347608  L 551.512235199992 1147.71395475416  Z M 547.602286115662 1146.84842921139  C 548.578768578166 1147.06932147276  549.556012863151 1147.2868324036  550.534001400776 1147.50095809329  L 550.747880054566 1146.5240978569  C 549.772146167987 1146.31046581176  548.797154818126 1146.09345632976  547.822923534568 1145.87307331256  L 547.602286115662 1146.84842921139  Z M 543.700494274845 1145.94684353151  C 544.674895824457 1146.17674135844  545.650090380851 1146.40326503215  546.626060411036 1146.62641047999  L 546.848948416919 1145.65156642229  C 545.875228384269 1145.4289354131  544.902282037665 1145.2029339662  543.930126869619 1144.97356614484  L 543.700494274845 1145.94684353151  Z M 539.807192240531 1145.00927455974  C 540.779429825694 1145.24815835724  541.752491534347 1145.48367546643  542.726359871847 1145.71582165298  L 542.958238232319 1144.74307686325  C 541.986615047146 1144.51146586563  541.015796631173 1144.27649171666  540.045800438807 1144.03815864095  L 539.807192240531 1145.00927455974  Z M 535.922711852098 1144.03580220825  C 536.892702605694 1144.28365161545  537.863548529247 1144.52814208621  538.83523216795 1144.76926922485  L 539.076081119231 1143.79870661344  C 538.106637596233 1143.55813536837  537.138029857149 1143.31420854501  536.170275316487 1143.06693052887  L 535.922711852098 1144.03580220825  Z M 532.047384197022 1143.02650944942  C 533.015045443465 1143.28330334127  533.983592833367 1143.53674633483  534.953008953397 1143.78683387348  L 535.20280796711 1142.81853616474  C 534.235626735308 1142.56902517695  533.269312230743 1142.31616646987  532.303881826848 1142.05996458967  L 532.047384197022 1143.02650944942  Z M 528.181539582662 1141.98148230869  C 529.146788844842 1142.24719879777  530.112955148605 1142.50957271234  531.080021123277 1142.76859933519  L 531.338748908204 1141.80264906043  C 530.373912403717 1141.54421959657  529.409973495996 1141.2824505578  528.446949515759 1141.01734665049  L 528.181539582662 1141.98148230869  Z M 823.571711861672 1110.83405751616  C 824.460488095971 1110.37320157771  825.34766614309 1109.90926999829  826.233230052349 1109.44227111898  L 825.766769947651 1108.55772888102  C 824.883247614007 1109.02365114292  823.998114863754 1109.48651317626  823.111387610751 1109.94630665921  L 823.571711861672 1110.83405751616  Z M 530.500994319907 1135.5926102722  L 523 1140  L 527.036464452123 1147.70694198283  L 530.500994319907 1135.5926102722  Z " fill-rule="nonzero" fill="#f59a23" stroke="none" />
  </g>
</svg>