<?xml version="1.0" encoding="utf-8"?>
<svg version="1.1" xmlns:xlink="http://www.w3.org/1999/xlink" width="14px" height="14px" viewBox="603 183  14 14" xmlns="http://www.w3.org/2000/svg">
  <path d="M 610 183  C 613.92 183  617 186.08  617 190  C 617 193.92  613.92 197  610 197  C 606.08 197  603 193.92  603 190  C 603 186.08  606.08 183  610 183  Z " fill-rule="nonzero" fill="#f0f0f0" stroke="none" />
  <path d="M 610 183.5  C 613.64 183.5  616.5 186.36  616.5 190  C 616.5 193.64  613.64 196.5  610 196.5  C 606.36 196.5  603.5 193.64  603.5 190  C 603.5 186.36  606.36 183.5  610 183.5  Z " stroke-width="1" stroke="#555555" fill="none" />
  <path d="M 610 193.5  C 608.04 193.5  606.5 191.96  606.5 190  C 606.5 188.04  608.04 186.5  610 186.5  C 611.96 186.5  613.5 188.04  613.5 190  C 613.5 191.96  611.96 193.5  610 193.5  " fill-rule="nonzero" fill="#555555" stroke="none" />
</svg>