<?xml version="1.0" encoding="utf-8"?>
<svg version="1.1" xmlns:xlink="http://www.w3.org/1999/xlink" width="14px" height="14px" viewBox="691 183  14 14" xmlns="http://www.w3.org/2000/svg">
  <path d="M 698 183  C 701.92 183  705 186.08  705 190  C 705 193.92  701.92 197  698 197  C 694.08 197  691 193.92  691 190  C 691 186.08  694.08 183  698 183  Z " fill-rule="nonzero" fill="#ffffff" stroke="none" />
  <path d="M 698 183.5  C 701.64 183.5  704.5 186.36  704.5 190  C 704.5 193.64  701.64 196.5  698 196.5  C 694.36 196.5  691.5 193.64  691.5 190  C 691.5 186.36  694.36 183.5  698 183.5  Z " stroke-width="1" stroke="#555555" fill="none" />
  <path d="M 698 193.5  C 696.04 193.5  694.5 191.96  694.5 190  C 694.5 188.04  696.04 186.5  698 186.5  C 699.96 186.5  701.5 188.04  701.5 190  C 701.5 191.96  699.96 193.5  698 193.5  " fill-rule="nonzero" fill="#555555" stroke="none" />
</svg>