<?xml version="1.0" encoding="utf-8"?>
<svg version="1.1" xmlns:xlink="http://www.w3.org/1999/xlink" width="375px" height="480px" xmlns="http://www.w3.org/2000/svg">
  <g transform="matrix(1 0 0 1 -94 -94 )">
    <path d="M 95 100  A 5 5 0 0 1 100 95 L 463 95  A 5 5 0 0 1 468 100 L 468 568  A 5 5 0 0 1 463 573 L 100 573  A 5 5 0 0 1 95 568 L 95 100  Z " fill-rule="nonzero" fill="#f8f8fd" stroke="none" />
    <path d="M 94.5 100  A 5.5 5.5 0 0 1 100 94.5 L 463 94.5  A 5.5 5.5 0 0 1 468.5 100 L 468.5 568  A 5.5 5.5 0 0 1 463 573.5 L 100 573.5  A 5.5 5.5 0 0 1 94.5 568 L 94.5 100  Z " stroke-width="1" stroke="#d7d7d7" fill="none" stroke-opacity="0.925490196078431" />
  </g>
</svg>