<?xml version="1.0" encoding="utf-8"?>
<svg version="1.1" xmlns:xlink="http://www.w3.org/1999/xlink" width="375px" height="770px" xmlns="http://www.w3.org/2000/svg">
  <g transform="matrix(1 0 0 1 -94 -621 )">
    <path d="M 95 627  A 5 5 0 0 1 100 622 L 463 622  A 5 5 0 0 1 468 627 L 468 1385  A 5 5 0 0 1 463 1390 L 100 1390  A 5 5 0 0 1 95 1385 L 95 627  Z " fill-rule="nonzero" fill="#f8f8fd" stroke="none" />
    <path d="M 94.5 627  A 5.5 5.5 0 0 1 100 621.5 L 463 621.5  A 5.5 5.5 0 0 1 468.5 627 L 468.5 1385  A 5.5 5.5 0 0 1 463 1390.5 L 100 1390.5  A 5.5 5.5 0 0 1 94.5 1385 L 94.5 627  Z " stroke-width="1" stroke="#d7d7d7" fill="none" stroke-opacity="0.925490196078431" />
  </g>
</svg>