<?xml version="1.0" encoding="utf-8"?>
<svg version="1.1" xmlns:xlink="http://www.w3.org/1999/xlink" width="473px" height="244px" xmlns="http://www.w3.org/2000/svg">
  <defs>
    <filter x="508px" y="1316px" width="473px" height="244px" filterUnits="userSpaceOnUse" id="filter103">
      <feOffset dx="1" dy="1" in="SourceAlpha" result="shadowOffsetInner" />
      <feGaussianBlur stdDeviation="5" in="shadowOffsetInner" result="shadowGaussian" />
      <feComposite in2="shadowGaussian" operator="atop" in="SourceAlpha" result="shadowComposite" />
      <feColorMatrix type="matrix" values="0 0 0 0 0.843137254901961  0 0 0 0 0.843137254901961  0 0 0 0 0.843137254901961  0 0 0 0.294117647058824 0  " in="shadowComposite" />
    </filter>
    <g id="widget104">
      <path d="M 518 1329  A 3 3 0 0 1 521 1326 L 966 1326  A 3 3 0 0 1 969 1329 L 969 1545  A 3 3 0 0 1 966 1548 L 521 1548  A 3 3 0 0 1 518 1545 L 518 1329  Z " fill-rule="nonzero" fill="#ffffff" stroke="none" />
      <path d="M 517.5 1329  A 3.5 3.5 0 0 1 521 1325.5 L 966 1325.5  A 3.5 3.5 0 0 1 969.5 1329 L 969.5 1545  A 3.5 3.5 0 0 1 966 1548.5 L 521 1548.5  A 3.5 3.5 0 0 1 517.5 1545 L 517.5 1329  Z " stroke-width="1" stroke="#d7d7d7" fill="none" stroke-opacity="0.462745098039216" />
    </g>
  </defs>
  <g transform="matrix(1 0 0 1 -508 -1316 )">
    <use xlink:href="#widget104" filter="url(#filter103)" />
    <use xlink:href="#widget104" />
  </g>
</svg>