<?xml version="1.0" encoding="utf-8"?>
<svg version="1.1" xmlns:xlink="http://www.w3.org/1999/xlink" width="10px" height="10px" xmlns="http://www.w3.org/2000/svg">
  <g transform="matrix(1 0 0 1 -943 -1341 )">
    <path d="M 1.4155743091535 0.479118704532993  C 1.4155743091535 0.479118704532993  3.16908101682588 2.22607197524383  5.00020000001041 4.05719095840777  C 3.16908101682588 2.22607197524383  1.47160452079106 0.528595479209002  1.4155743091535 0.479118704532993  Z M 8.58482569084663 9.52088129546712  C 8.58482569084663 9.52088129546712  6.83131898317424 7.77392802475629  5.00019999998972 5.94280904159234  C 6.83131898317424 7.77392802475629  8.52879547920907 9.47140452079111  8.58482569084663 9.52088129546712  Z M 0.473336408191244 8.5914003711348  C 0.473336408191244 8.5914003711348  0.528795479209066 8.528595479209  0.528795479209066 8.528595479209  C 0.528795479209066 8.528595479209  8.52879547920907 0.528595479209002  8.52879547920907 0.528595479209002  C 8.78914500704309 0.268245951374865  9.21125499295681 0.268245951374865  9.47160452079106 0.528595479209002  C 9.71192716186874 0.768918120286685  9.73041351887468 1.1470721575979  9.52706359180888 1.40859962886532  C 9.52706359180888 1.40859962886532  9.47160452079106 1.47140452079111  9.47160452079106 1.47140452079111  C 9.47160452079106 1.47140452079111  1.47160452079106 9.47140452079111  1.47160452079106 9.47140452079111  C 1.21125499295704 9.73175404862525  0.789145007043317 9.73175404862525  0.528795479209066 9.47140452079111  C 0.288472838131383 9.23108187971343  0.269986481125443 8.85292784240221  0.473336408191244 8.5914003711348  Z " fill-rule="nonzero" fill="#555555" stroke="none" transform="matrix(1 0 0 1 943 1341 )" />
  </g>
</svg>