<?xml version="1.0" encoding="utf-8"?>
<svg version="1.1" xmlns:xlink="http://www.w3.org/1999/xlink" width="375px" height="1060px" xmlns="http://www.w3.org/2000/svg">
  <g transform="matrix(1 0 0 1 -93 -101 )">
    <path d="M 94 107  A 5 5 0 0 1 99 102 L 462 102  A 5 5 0 0 1 467 107 L 467 1155  A 5 5 0 0 1 462 1160 L 99 1160  A 5 5 0 0 1 94 1155 L 94 107  Z " fill-rule="nonzero" fill="#f9f9fd" stroke="none" />
    <path d="M 93.5 107  A 5.5 5.5 0 0 1 99 101.5 L 462 101.5  A 5.5 5.5 0 0 1 467.5 107 L 467.5 1155  A 5.5 5.5 0 0 1 462 1160.5 L 99 1160.5  A 5.5 5.5 0 0 1 93.5 1155 L 93.5 107  Z " stroke-width="1" stroke="#d7d7d7" fill="none" stroke-opacity="0.925490196078431" />
  </g>
</svg>